<?xml version="1.0" encoding="UTF-8" standalone="no"?>
<svg
   contentStyleType="text/css"
   height="586px"
   preserveAspectRatio="none"
   style="width:1021px;height:586px;background:#FFFFFF;"
   version="1.1"
   viewBox="0 0 1021 586"
   width="1021px"
   zoomAndPan="magnify"
   id="svg39"
   sodipodi:docname="generics.svg"
   inkscape:version="1.3.2 (1:1.3.2+202311252150+091e20ef0f)"
   xmlns:inkscape="http://www.inkscape.org/namespaces/inkscape"
   xmlns:sodipodi="http://sodipodi.sourceforge.net/DTD/sodipodi-0.dtd"
   xmlns="http://www.w3.org/2000/svg"
   xmlns:svg="http://www.w3.org/2000/svg">
  <sodipodi:namedview
     id="namedview39"
     pagecolor="#ffffff"
     bordercolor="#666666"
     borderopacity="1.0"
     inkscape:showpageshadow="2"
     inkscape:pageopacity="0.0"
     inkscape:pagecheckerboard="0"
     inkscape:deskcolor="#d1d1d1"
     showgrid="false"
     inkscape:zoom="1.7041198"
     inkscape:cx="401.08682"
     inkscape:cy="292.52638"
     inkscape:current-layer="svg39" />
  <defs
     id="defs1">
    <marker
       style="overflow:visible"
       id="marker18"
       refX="3"
       refY="0"
       orient="auto-start-reverse"
       inkscape:stockid="Colored triangle"
       markerWidth="4"
       markerHeight="3"
       viewBox="0 0 1 1"
       inkscape:isstock="true"
       inkscape:collect="always"
       preserveAspectRatio="none">
      <path
         transform="scale(0.5)"
         style="fill:context-fill;fill-rule:evenodd;stroke:context-stroke;stroke-width:0.5"
         d="M 5.77,0 -2.88,5 V -5 Z"
         id="path18" />
    </marker>
    <marker
       style="overflow:visible"
       id="marker16"
       refX="3"
       refY="0"
       orient="auto-start-reverse"
       inkscape:stockid="Colored triangle"
       markerWidth="4"
       markerHeight="3"
       viewBox="0 0 1 1"
       inkscape:isstock="true"
       inkscape:collect="always"
       preserveAspectRatio="none">
      <path
         transform="scale(0.5)"
         style="fill:context-fill;fill-rule:evenodd;stroke:context-stroke;stroke-width:0.5"
         d="M 5.77,0 -2.88,5 V -5 Z"
         id="path16" />
    </marker>
    <marker
       style="overflow:visible"
       id="ColoredTriangle"
       refX="3"
       refY="0"
       orient="auto-start-reverse"
       inkscape:stockid="Colored triangle"
       markerWidth="4"
       markerHeight="3"
       viewBox="0 0 1 1"
       inkscape:isstock="true"
       inkscape:collect="always"
       preserveAspectRatio="none">
      <path
         style="fill:context-fill;fill-rule:evenodd;stroke:context-stroke;stroke-width:0.25"
         d="M 2.885,0 -1.44,2.5 v -5 z"
         id="path4" />
    </marker>
    <marker
       style="overflow:visible"
       id="ColoredTriangle-4"
       refX="3"
       refY="0"
       orient="auto-start-reverse"
       inkscape:stockid="Colored triangle"
       markerWidth="4"
       markerHeight="3"
       viewBox="0 0 1 1"
       inkscape:isstock="true"
       inkscape:collect="always"
       preserveAspectRatio="none">
      <path
         style="fill:context-fill;fill-rule:evenodd;stroke:context-stroke;stroke-width:0.25"
         d="M 2.885,0 -1.44,2.5 v -5 z"
         id="path4-7" />
    </marker>
  </defs>
  <g
     id="elem_JavaParametricClass">
    <rect
       codeLine="7"
       fill="#ffffcc"
       height="32"
       id="JavaParametricClass"
       rx="2.5"
       ry="2.5"
       style="stroke:#a9a9a9;stroke-width:0.5"
       width="168"
       x="12"
       y="547.55841" />
    <circle
       cx="27"
       cy="563.55841"
       fill="#ffffff"
       style="stroke:#181818;stroke-width:1"
       id="ellipse1"
       r="11" />
    <path
       d="m 29.9688,569.199 q -0.5782,0.2969 -1.2188,0.4375 -0.6406,0.1563 -1.3437,0.1563 -2.5,0 -3.8282,-1.6407 -1.3125,-1.6562 -1.3125,-4.7812 0,-3.125 1.3125,-4.7813 1.3282,-1.6562 3.8282,-1.6562 0.7031,0 1.3437,0.1562 0.6563,0.1563 1.2188,0.4532 v 2.7187 q -0.625,-0.5781 -1.2188,-0.8437 -0.5937,-0.2813 -1.2187,-0.2813 -1.3438,0 -2.0313,1.0781 -0.6875,1.0625 -0.6875,3.1563 0,2.0937 0.6875,3.1719 0.6875,1.0625 2.0313,1.0625 0.625,0 1.2187,-0.2657 0.5938,-0.2812 1.2188,-0.8593 z"
       fill="#000000"
       id="path1" />
    <text
       fill="#000000"
       font-family="sans-serif"
       font-size="14px"
       lengthAdjust="spacing"
       textLength="136"
       x="41"
       y="568.40509"
       id="text1">JavaParametricClass</text>
  </g>
  <g
     id="elem_JavaType"
     transform="translate(46.158818,-21.001494)">
    <rect
       codeLine="9"
       fill="#ffffcc"
       height="88.890602"
       id="JavaType"
       rx="2.5"
       ry="2.5"
       style="stroke:#a9a9a9;stroke-width:0.5"
       width="189"
       x="527.5"
       y="398.6684" />
    <circle
       cx="587.75"
       cy="414.6684"
       fill="#ffffff"
       style="stroke:#181818;stroke-width:1"
       id="ellipse2"
       r="11" />
    <path
       d="m 590.7188,420.309 q -0.5782,0.2969 -1.2188,0.4375 -0.6406,0.1563 -1.3437,0.1563 -2.5,0 -3.8282,-1.6407 -1.3125,-1.6562 -1.3125,-4.7812 0,-3.125 1.3125,-4.7813 1.3282,-1.6562 3.8282,-1.6562 0.7031,0 1.3437,0.1562 0.6563,0.1563 1.2188,0.4532 v 2.7187 q -0.625,-0.5781 -1.2188,-0.8437 -0.5937,-0.2813 -1.2187,-0.2813 -1.3438,0 -2.0313,1.0781 -0.6875,1.0625 -0.6875,3.1563 0,2.0937 0.6875,3.1719 0.6875,1.0625 2.0313,1.0625 0.625,0 1.2187,-0.2657 0.5938,-0.2812 1.2188,-0.8593 z"
       fill="#000000"
       id="path2" />
    <text
       fill="#000000"
       font-family="sans-serif"
       font-size="14px"
       lengthAdjust="spacing"
       textLength="60"
       x="608.25"
       y="419.51511"
       id="text2">JavaType</text>
    <line
       style="stroke:#a9a9a9;stroke-width:0.5"
       x1="528.5"
       x2="715.5"
       y1="430.6684"
       y2="430.6684"
       id="line2" />
    <text
       fill="#000000"
       font-family="sans-serif"
       font-size="14px"
       lengthAdjust="spacing"
       textLength="138"
       x="533.5"
       y="447.66351"
       id="text3">Boolean isTestCase</text>
    <text
       fill="#000000"
       font-family="sans-serif"
       font-size="14px"
       lengthAdjust="spacing"
       textLength="144"
       x="533.5"
       y="463.96039"
       id="text4">Boolean isInnerClass</text>
    <text
       fill="#000000"
       font-family="sans-serif"
       font-size="14px"
       lengthAdjust="spacing"
       textLength="177"
       x="533.5"
       y="480.2572"
       id="text5">Boolean isJUnit4TestCase</text>
  </g>
  <g
     id="g39">
    <rect
       codeLine="14"
       fill="#ffffcc"
       height="32"
       id="JavaConcretization"
       rx="2.5"
       ry="2.5"
       style="stroke:#a9a9a9;stroke-width:0.5"
       width="158"
       x="7"
       y="214.6684" />
    <circle
       cx="22"
       cy="230.6684"
       fill="#ffffff"
       style="stroke:#181818;stroke-width:1"
       id="ellipse5"
       r="11" />
    <path
       d="m 24.9688,236.309 q -0.5782,0.2969 -1.2188,0.4375 -0.6406,0.1563 -1.3437,0.1563 -2.5,0 -3.8282,-1.6407 -1.3125,-1.6562 -1.3125,-4.7812 0,-3.125 1.3125,-4.7813 1.3282,-1.6562 3.8282,-1.6562 0.7031,0 1.3437,0.1562 0.6563,0.1563 1.2188,0.4532 v 2.7187 q -0.625,-0.5781 -1.2188,-0.8437 -0.5937,-0.2813 -1.2187,-0.2813 -1.3438,0 -2.0313,1.0781 -0.6875,1.0625 -0.6875,3.1563 0,2.0937 0.6875,3.1719 0.6875,1.0625 2.0313,1.0625 0.625,0 1.2187,-0.2657 0.5938,-0.2812 1.2188,-0.8593 z"
       fill="#000000"
       id="path5" />
    <text
       fill="#000000"
       font-family="sans-serif"
       font-size="14px"
       lengthAdjust="spacing"
       textLength="126"
       x="36"
       y="235.51511"
       id="text6">JavaConcretization</text>
  </g>
  <g
     id="elem_TConcretization">
    <rect
       codeLine="16"
       fill="#ffffff"
       height="32"
       id="TConcretization"
       rx="2.5"
       ry="2.5"
       style="stroke:#a9a9a9;stroke-width:0.5"
       width="141"
       x="164.5"
       y="122.6684" />
    <circle
       cx="179.5"
       cy="138.6684"
       fill="#ffffff"
       style="stroke:#181818;stroke-width:1"
       id="ellipse6"
       r="11" />
    <path
       d="m 180.3438,145.4184 h -2.4532 v -10.25 H 174.75 v -2.1406 h 8.7344 v 2.1406 h -3.1406 z"
       fill="#000000"
       id="path6" />
    <text
       fill="#000000"
       font-family="sans-serif"
       font-size="14px"
       lengthAdjust="spacing"
       textLength="109"
       x="193.5"
       y="143.51511"
       id="text7">TConcretization</text>
  </g>
  <g
     id="elem_TParameterConcretization">
    <rect
       codeLine="18"
       fill="#ffffff"
       height="32"
       id="TParameterConcretization"
       rx="2.5"
       ry="2.5"
       style="stroke:#a9a9a9;stroke-width:0.5"
       width="212"
       x="305"
       y="214.6684" />
    <circle
       cx="320"
       cy="230.6684"
       fill="#ffffff"
       style="stroke:#181818;stroke-width:1"
       id="ellipse7"
       r="11" />
    <path
       d="m 320.8438,237.4184 h -2.4532 v -10.25 H 315.25 v -2.1406 h 8.7344 v 2.1406 h -3.1406 z"
       fill="#000000"
       id="path7" />
    <text
       fill="#000000"
       font-family="sans-serif"
       font-size="14px"
       lengthAdjust="spacing"
       textLength="180"
       x="334"
       y="235.51511"
       id="text8">TParameterConcretization</text>
  </g>
  <g
     id="elem_JavaParameterType"
     transform="translate(96.546814,-1.7466861)">
    <rect
       codeLine="20"
       fill="#ffffcc"
       height="32"
       id="JavaParameterType"
       rx="2.5"
       ry="2.5"
       style="stroke:#a9a9a9;stroke-width:0.5"
       width="163"
       x="488.5"
       y="547.55841" />
    <circle
       cx="503.5"
       cy="563.55841"
       fill="#ffffff"
       style="stroke:#181818;stroke-width:1"
       id="ellipse8"
       r="11" />
    <path
       d="m 506.4688,569.199 q -0.5782,0.2969 -1.2188,0.4375 -0.6406,0.1563 -1.3437,0.1563 -2.5,0 -3.8282,-1.6407 -1.3125,-1.6562 -1.3125,-4.7812 0,-3.125 1.3125,-4.7813 1.3282,-1.6562 3.8282,-1.6562 0.7031,0 1.3437,0.1562 0.6563,0.1563 1.2188,0.4532 v 2.7187 q -0.625,-0.5781 -1.2188,-0.8437 -0.5937,-0.2813 -1.2187,-0.2813 -1.3438,0 -2.0313,1.0781 -0.6875,1.0625 -0.6875,3.1563 0,2.0937 0.6875,3.1719 0.6875,1.0625 2.0313,1.0625 0.625,0 1.2187,-0.2657 0.5938,-0.2812 1.2188,-0.8593 z"
       fill="#000000"
       id="path8" />
    <text
       fill="#000000"
       font-family="sans-serif"
       font-size="14px"
       lengthAdjust="spacing"
       textLength="131"
       x="517.5"
       y="568.40509"
       id="text9">JavaParameterType</text>
  </g>
  <g
     id="elem_TConcreteParameterType">
    <rect
       codeLine="22"
       fill="#ffffff"
       height="32"
       id="TConcreteParameterType"
       rx="2.5"
       ry="2.5"
       style="stroke:#a9a9a9;stroke-width:0.5"
       width="210"
       x="540"
       y="306.6684" />
    <circle
       cx="555"
       cy="322.6684"
       fill="#ffffff"
       style="stroke:#181818;stroke-width:1"
       id="ellipse9"
       r="11" />
    <path
       d="m 555.8438,329.4184 h -2.4532 v -10.25 H 550.25 v -2.1406 h 8.7344 v 2.1406 h -3.1406 z"
       fill="#000000"
       id="path9" />
    <text
       fill="#000000"
       font-family="sans-serif"
       font-size="14px"
       lengthAdjust="spacing"
       textLength="178"
       x="569"
       y="327.51511"
       id="text10">TConcreteParameterType</text>
  </g>
  <g
     id="elem_JavaParameterConcretization">
    <rect
       codeLine="24"
       fill="#ffffcc"
       height="32"
       id="JavaParameterConcretization"
       rx="2.5"
       ry="2.5"
       style="stroke:#a9a9a9;stroke-width:0.5"
       width="229"
       x="785.5"
       y="306.6684" />
    <circle
       cx="800.5"
       cy="322.6684"
       fill="#ffffff"
       style="stroke:#181818;stroke-width:1"
       id="ellipse10"
       r="11" />
    <path
       d="m 803.4688,328.309 q -0.5782,0.2969 -1.2188,0.4375 -0.6406,0.1563 -1.3437,0.1563 -2.5,0 -3.8282,-1.6407 -1.3125,-1.6562 -1.3125,-4.7812 0,-3.125 1.3125,-4.7813 1.3282,-1.6562 3.8282,-1.6562 0.7031,0 1.3437,0.1562 0.6563,0.1563 1.2188,0.4532 v 2.7187 q -0.625,-0.5781 -1.2188,-0.8437 -0.5937,-0.2813 -1.2187,-0.2813 -1.3438,0 -2.0313,1.0781 -0.6875,1.0625 -0.6875,3.1563 0,2.0937 0.6875,3.1719 0.6875,1.0625 2.0313,1.0625 0.625,0 1.2187,-0.2657 0.5938,-0.2812 1.2188,-0.8593 z"
       fill="#000000"
       id="path10" />
    <text
       fill="#000000"
       font-family="sans-serif"
       font-size="14px"
       lengthAdjust="spacing"
       textLength="197"
       x="814.5"
       y="327.51511"
       id="text11">JavaParameterConcretization</text>
  </g>
  <g
     id="elem_TGenericParameterType">
    <rect
       codeLine="26"
       fill="#ffffff"
       height="32"
       id="TGenericParameterType"
       rx="2.5"
       ry="2.5"
       style="stroke:#a9a9a9;stroke-width:0.5"
       width="200"
       x="305"
       y="306.6684" />
    <circle
       cx="320"
       cy="322.6684"
       fill="#ffffff"
       style="stroke:#181818;stroke-width:1"
       id="ellipse11"
       r="11" />
    <path
       d="m 320.8438,329.4184 h -2.4532 v -10.25 H 315.25 v -2.1406 h 8.7344 v 2.1406 h -3.1406 z"
       fill="#000000"
       id="path11" />
    <text
       fill="#000000"
       font-family="sans-serif"
       font-size="14px"
       lengthAdjust="spacing"
       textLength="168"
       x="334"
       y="327.51511"
       id="text12">TGenericParameterType</text>
  </g>
  <g
     id="elem_TAssociation">
    <rect
       codeLine="28"
       fill="#ffffff"
       height="32"
       id="TAssociation"
       rx="2.5"
       ry="2.5"
       style="stroke:#a9a9a9;stroke-width:0.5"
       width="120"
       x="236"
       y="30.6684" />
    <circle
       cx="251"
       cy="46.6684"
       fill="#ffffff"
       style="stroke:#181818;stroke-width:1"
       id="ellipse12"
       r="11" />
    <path
       d="m 251.8438,53.4184 h -2.4532 v -10.25 H 246.25 v -2.1406 h 8.7344 v 2.1406 h -3.1406 z"
       fill="#000000"
       id="path12" />
    <text
       fill="#000000"
       font-family="sans-serif"
       font-size="14px"
       lengthAdjust="spacing"
       textLength="88"
       x="265"
       y="51.515099"
       id="text13">TAssociation</text>
  </g>
  <g
     id="elem_JavaParametricMethod"
     transform="translate(-28.208294,0.12836539)">
    <rect
       codeLine="30"
       fill="#ffffcc"
       height="32"
       id="JavaParametricMethod"
       rx="2.5"
       ry="2.5"
       style="stroke:#a9a9a9;stroke-width:0.5"
       width="184"
       x="215"
       y="547.55841" />
    <circle
       cx="230"
       cy="563.55841"
       fill="#ffffff"
       style="stroke:#181818;stroke-width:1"
       id="ellipse13"
       r="11" />
    <path
       d="m 232.9688,569.199 q -0.5782,0.2969 -1.2188,0.4375 -0.6406,0.1563 -1.3437,0.1563 -2.5,0 -3.8282,-1.6407 -1.3125,-1.6562 -1.3125,-4.7812 0,-3.125 1.3125,-4.7813 1.3282,-1.6562 3.8282,-1.6562 0.7031,0 1.3437,0.1562 0.6563,0.1563 1.2188,0.4532 v 2.7187 q -0.625,-0.5781 -1.2188,-0.8437 -0.5937,-0.2813 -1.2187,-0.2813 -1.3438,0 -2.0313,1.0781 -0.6875,1.0625 -0.6875,3.1563 0,2.0937 0.6875,3.1719 0.6875,1.0625 2.0313,1.0625 0.625,0 1.2187,-0.2657 0.5938,-0.2812 1.2188,-0.8593 z"
       fill="#000000"
       id="path13" />
    <text
       fill="#000000"
       font-family="sans-serif"
       font-size="14px"
       lengthAdjust="spacing"
       textLength="152"
       x="244"
       y="568.40509"
       id="text14">JavaParametricMethod</text>
  </g>
  <g
     id="elem_TParametricEntity">
    <rect
       codeLine="32"
       fill="#ffffff"
       height="32"
       id="TParametricEntity"
       rx="2.5"
       ry="2.5"
       style="stroke:#a9a9a9;stroke-width:0.5"
       width="152"
       x="179"
       y="427.1084" />
    <circle
       cx="194"
       cy="443.1084"
       fill="#ffffff"
       style="stroke:#181818;stroke-width:1"
       id="ellipse14"
       r="11" />
    <path
       d="m 194.8438,449.8584 h -2.4532 v -10.25 H 189.25 v -2.1406 h 8.7344 v 2.1406 h -3.1406 z"
       fill="#000000"
       id="path14" />
    <text
       fill="#000000"
       font-family="sans-serif"
       font-size="14px"
       lengthAdjust="spacing"
       textLength="120"
       x="208"
       y="447.95511"
       id="text15">TParametricEntity</text>
  </g>
  <g
     id="link_TConcretization_JavaConcretization">
    <path
       codeLine="36"
       d="m 193.9834,164.4463 c -27.46,16.59 -55.3734,33.4421 -82.7034,49.9521"
       fill="none"
       id="TConcretization-backto-JavaConcretization"
       style="stroke:#000000;stroke-width:1;stroke-dasharray:7, 7" />
    <polygon
       fill="none"
       points="197.0861,169.5818 209.39,155.1384 190.8808,159.3108 "
       style="stroke:#000000;stroke-width:1"
       id="polygon17" />
  </g>
  <g
     id="link_TAssociation_TConcretization">
    <path
       codeLine="37"
       d="m 275.5555,77.8415 c -11.21,16.55 -18.9155,27.9069 -30.1555,44.4869"
       fill="none"
       id="TAssociation-backto-TConcretization"
       style="stroke:#000000;stroke-width:1;stroke-dasharray:7, 7" />
    <polygon
       fill="none"
       points="280.5232,81.2063 285.65,62.9384 270.5878,74.4766 "
       style="stroke:#000000;stroke-width:1"
       id="polygon18" />
  </g>
  <g
     id="link_TAssociation_TParameterConcretization">
    <path
       codeLine="38"
       d="m 315.2225,78.0868 c 21.64,34.26 64.4175,101.9516 86.1175,136.2916"
       fill="none"
       id="TAssociation-backto-TParameterConcretization"
       style="stroke:#000000;stroke-width:1;stroke-dasharray:7, 7" />
    <polygon
       fill="none"
       points="320.2953,74.8826 305.61,62.8684 310.1497,81.2909 "
       style="stroke:#000000;stroke-width:1"
       id="polygon19" />
  </g>
  <g
     id="link_TParameterConcretization_JavaParameterConcretization">
    <path
       codeLine="40"
       d="m 512.7627,250.3963 c 89.71,16.51 213.2973,39.2621 303.0473,55.7721"
       fill="none"
       id="TParameterConcretization-backto-JavaParameterConcretization"
       style="stroke:#000000;stroke-width:1;stroke-dasharray:7, 7" />
    <polygon
       fill="none"
       points="513.8487,244.4954 495.06,247.1384 511.6767,256.2972 "
       style="stroke:#000000;stroke-width:1"
       id="polygon21" />
  </g>
  <g
     id="link_TParametricEntity_JavaParametricClass">
    <path
       codeLine="41"
       d="m 219.7754,470.3521 c -30.47,22.7 -72.5054,54.0163 -102.9854,76.7163"
       fill="none"
       id="TParametricEntity-backto-JavaParametricClass"
       style="stroke:#000000;stroke-width:1;stroke-dasharray:7, 7" />
    <polygon
       fill="none"
       points="223.36,475.1636 234.21,459.5984 216.1908,465.5405 "
       style="stroke:#000000;stroke-width:1"
       id="polygon22" />
  </g>
  <g
     id="link_TParametricEntity_JavaParametricMethod">
    <path
       codeLine="42"
       d="m 269.0323,476.0815 c 9.96,22.7 21.1977,48.2869 31.1677,70.9869"
       fill="none"
       id="TParametricEntity-backto-JavaParametricMethod"
       style="stroke:#000000;stroke-width:1;stroke-dasharray:7, 7" />
    <polygon
       fill="none"
       points="274.5266,473.6708 261.8,459.5984 263.5379,478.4923 "
       style="stroke:#000000;stroke-width:1"
       id="polygon23" />
  </g>
  <g
     id="elem_JavaParametricMethod-1"
     transform="translate(160.85291,0.64534677)">
    <rect
       codeLine="30"
       fill="#ffffcc"
       height="30.888264"
       id="JavaParametricMethod-0"
       rx="2.5"
       ry="2.5"
       style="stroke:#a9a9a9;stroke-width:0.5"
       width="195.57581"
       x="215"
       y="547.55841" />
    <circle
       cx="230"
       cy="563.55841"
       fill="#ffffff"
       style="stroke:#181818;stroke-width:1"
       id="ellipse13-6"
       r="11" />
    <path
       d="m 232.9688,569.199 q -0.5782,0.2969 -1.2188,0.4375 -0.6406,0.1563 -1.3437,0.1563 -2.5,0 -3.8282,-1.6407 -1.3125,-1.6562 -1.3125,-4.7812 0,-3.125 1.3125,-4.7813 1.3282,-1.6562 3.8282,-1.6562 0.7031,0 1.3437,0.1562 0.6563,0.1563 1.2188,0.4532 v 2.7187 q -0.625,-0.5781 -1.2188,-0.8437 -0.5937,-0.2813 -1.2187,-0.2813 -1.3438,0 -2.0313,1.0781 -0.6875,1.0625 -0.6875,3.1563 0,2.0937 0.6875,3.1719 0.6875,1.0625 2.0313,1.0625 0.625,0 1.2187,-0.2657 0.5938,-0.2812 1.2188,-0.8593 z"
       fill="#000000"
       id="path13-3" />
    <text
       fill="#000000"
       font-family="sans-serif"
       font-size="14px"
       lengthAdjust="spacing"
       textLength="152"
       x="244"
       y="568.40509"
       id="text14-2"
       style="font-style:normal;font-variant:normal;font-weight:normal;font-stretch:normal;font-size:14px;font-family:sans-serif;-inkscape-font-specification:'sans-serif, Normal';font-variant-ligatures:normal;font-variant-caps:normal;font-variant-numeric:normal;font-variant-east-asian:normal;fill:#000000"><tspan
         sodipodi:role="line"
         id="tspan1"
         x="244"
         y="568.40509">JavaParametricInterface</tspan></text>
  </g>
  <g
     id="link_TParameterConcretization_TGenericParameterType">
    <path
       codeLine="43"
       d="m 409.98,246.9384 c -1.1,16.55 -2.85,42.81 -3.96,59.39"
       fill="none"
       id="TParameterConcretization-TGenericParameterType"
       style="stroke:#000000;stroke-width:1" />
    <text
       fill="#000000"
       font-family="sans-serif"
       font-size="13px"
       lengthAdjust="spacing"
       textLength="104"
       x="289.0799"
       y="266.60309"
       id="text23"
       transform="translate(14.344341,-6.6608023)">concretizations*</text>
    <text
       fill="#000000"
       font-family="sans-serif"
       font-size="13px"
       lengthAdjust="spacing"
       textLength="115"
       x="272.311"
       y="295.52029"
       id="text24"
       transform="translate(18.029905,4.4926015)">genericParameter</text>
  </g>
  <g
     id="link_TParameterConcretization_TConcreteParameterType">
    <path
       codeLine="44"
       d="m 451.23,247.1384 c 42.99,16.54 110.74,42.59 153.68,59.11"
       fill="none"
       id="TParameterConcretization-TConcreteParameterType"
       style="stroke:#000000;stroke-width:1" />
    <text
       fill="#000000"
       font-family="sans-serif"
       font-size="13px"
       lengthAdjust="spacing"
       textLength="61"
       x="393.33139"
       y="266.86691"
       id="text25"
       transform="translate(40.768127,-5.0393005)">generics*</text>
    <text
       fill="#000000"
       font-family="sans-serif"
       font-size="13px"
       lengthAdjust="spacing"
       textLength="124"
       x="448.8627"
       y="295.56451"
       id="text26"
       transform="translate(116.644,6.5008836)">concreteParameter</text>
  </g>
  <g
     id="link_TGenericParameterType_TParametricEntity">
    <path
       codeLine="45"
       d="m 385.39,339.1484 c -28.75,22.7 -82.03,64.77 -110.78,87.48"
       fill="none"
       id="TGenericParameterType-TParametricEntity"
       style="stroke:#000000;stroke-width:1" />
    <text
       fill="#000000"
       font-family="sans-serif"
       font-size="13px"
       lengthAdjust="spacing"
       textLength="129"
       x="229.5799"
       y="358.8801"
       id="text27"
       transform="translate(52.546329,-9.0223933)">genericParameters*</text>
    <text
       fill="#000000"
       font-family="sans-serif"
       font-size="13px"
       lengthAdjust="spacing"
       textLength="101"
       x="296.95761"
       y="416.07281"
       id="text28"
       transform="rotate(-35.184715,311.50293,438.30528)">genericEntities*</text>
  </g>
  <g
     id="link_TConcretization_TParameterConcretization">
    <path
       codeLine="47"
       d="m 265.26,155.1384 c 32.33,16.54 83.29,42.59 115.59,59.11"
       fill="none"
       id="TConcretization-TParameterConcretization"
       style="stroke:#000000;stroke-width:1" />
    <text
       fill="#000000"
       font-family="sans-serif"
       font-size="13px"
       lengthAdjust="spacing"
       textLength="104"
       x="154.3304"
       y="174.8669"
       id="text31"
       transform="translate(123.90357,-9.993063)">concretizations*</text>
    <text
       fill="#000000"
       font-family="sans-serif"
       font-size="13px"
       lengthAdjust="spacing"
       textLength="174"
       x="169.50841"
       y="203.7119"
       id="text32"
       transform="translate(186.2161,6.627331)">parameterConcretizations*</text>
  </g>
  <g
     id="link_TConcreteParameterType_TParametricEntity">
    <path
       codeLine="48"
       d="m 594.01,339.1484 c -74.74,22.7 -213.26,64.77 -288.01,87.48"
       fill="none"
       id="TConcreteParameterType-TParametricEntity"
       style="stroke:#000000;stroke-width:1" />
    <text
       fill="#000000"
       font-family="sans-serif"
       font-size="13px"
       lengthAdjust="spacing"
       textLength="138"
       x="417.76321"
       y="358.8801"
       id="text33"
       transform="rotate(-15.828393,541.52568,167.39831)">concreteParameters*</text>
    <text
       fill="#000000"
       font-family="sans-serif"
       font-size="13px"
       lengthAdjust="spacing"
       textLength="110"
       x="338.46249"
       y="435.96552"
       id="text34"
       transform="rotate(-15.472504,325.28476,495.96724)">concreteEntities*</text>
  </g>
  <g
     id="link_TConcretization_TParametricEntity">
    <path
       codeLine="49"
       d="m 229.82,155.0784 c -5.81,51.89 5.3,219.82 17.97,271.65"
       fill="none"
       id="TConcretization-TParametricEntity"
       style="stroke:#000000;stroke-width:1" />
    <text
       fill="#000000"
       font-family="sans-serif"
       font-size="13px"
       lengthAdjust="spacing"
       textLength="104"
       x="244.7439"
       y="174.7878"
       id="text35"
       transform="rotate(-88.450992,277.19599,227.55823)">concretizations*</text>
    <text
       fill="#000000"
       font-family="sans-serif"
       font-size="13px"
       lengthAdjust="spacing"
       textLength="83"
       x="148.6548"
       y="415.90701"
       id="text36"
       transform="rotate(81.559299,226.73686,421.75676)">genericEntity</text>
  </g>
  <g
     id="g38">
    <path
       codeLine="50"
       d="m 242.22,155.0784 c 12.67,51.89 23.77,219.82 17.95,271.65"
       fill="none"
       id="TConcretization-TParametricEntity-1"
       style="stroke:#000000;stroke-width:1" />
    <text
       fill="#000000"
       font-family="sans-serif"
       font-size="13px"
       lengthAdjust="spacing"
       textLength="89"
       x="313.33499"
       y="164.48779"
       id="text37"
       transform="rotate(80.875929,284.29167,121.40849)">genericization</text>
    <text
       fill="#000000"
       font-family="sans-serif"
       font-size="13px"
       lengthAdjust="spacing"
       textLength="92"
       x="277.12009"
       y="415.90701"
       id="text38"
       transform="rotate(92.03149,312.16424,369.57777)">concreteEntity</text>
  </g>
  <path
     style="fill:#ffffff;fill-opacity:1;fill-rule:evenodd;stroke:#000000;stroke-width:1.00157;stroke-linecap:butt;stroke-linejoin:miter;stroke-dasharray:7.01099, 7.01099;stroke-dashoffset:0;stroke-opacity:1;marker-end:url(#ColoredTriangle)"
     d="M 649.0479,545.81172 422.49892,338.6684"
     id="path3"
     inkscape:connector-type="polyline"
     inkscape:connector-curvature="0"
     inkscape:connection-start="#elem_JavaParameterType"
     inkscape:connection-end="#elem_TGenericParameterType"
     sodipodi:nodetypes="cc" />
  <path
     style="display:inline;fill:#ffffff;fill-opacity:1;fill-rule:evenodd;stroke:#000000;stroke-width:1.00157;stroke-linecap:butt;stroke-linejoin:miter;stroke-dasharray:7.01099, 7.01099;stroke-dashoffset:0;stroke-opacity:1;marker-end:url(#ColoredTriangle-4)"
     d="M 445.62744,548.20376 284.02163,459.1084"
     id="path3-6"
     inkscape:connector-type="polyline"
     inkscape:connector-curvature="0"
     sodipodi:nodetypes="cc"
     inkscape:connection-start="#elem_JavaParametricMethod-1"
     inkscape:connection-end="#elem_TParametricEntity" />
  <path
     style="fill:#ffffff;fill-opacity:1;fill-rule:evenodd;stroke:#000000;stroke-width:1.00157;stroke-linecap:butt;stroke-linejoin:miter;stroke-dasharray:none;stroke-opacity:1;marker-end:url(#marker16)"
     d="m 666.73144,545.81172 0.91452,-79.25422"
     id="path15"
     inkscape:connector-type="polyline"
     inkscape:connector-curvature="0"
     inkscape:connection-start="#elem_JavaParameterType"
     inkscape:connection-end="#elem_JavaType" />
  <path
     style="fill:#ffffff;fill-opacity:1;fill-rule:evenodd;stroke:#000000;stroke-width:1.00157;stroke-linecap:butt;stroke-linejoin:miter;stroke-dasharray:none;stroke-opacity:1;marker-end:url(#marker18)"
     d="m 657.80824,377.6669 -9.0821,-38.9985"
     id="path17"
     inkscape:connector-type="polyline"
     inkscape:connector-curvature="0"
     inkscape:connection-start="#elem_JavaType"
     inkscape:connection-end="#elem_TConcreteParameterType" />
</svg>
