<?xml version="1.0" encoding="UTF-8" standalone="no"?>
<svg xmlns="http://www.w3.org/2000/svg" xmlns:xlink="http://www.w3.org/1999/xlink" contentScriptType="application/ecmascript" contentStyleType="text/css" height="53px" preserveAspectRatio="none" style="width:213px;height:53px;background:#FFFFFF;" version="1.1" viewBox="0 0 213 53" width="213px" zoomAndPan="magnify"><defs><filter height="300%" id="fl5bhs4sf9vqv" width="300%" x="-1" y="-1"><feGaussianBlur result="blurOut" stdDeviation="2.0"/><feColorMatrix in="blurOut" result="blurOut2" type="matrix" values="0 0 0 0 0 0 0 0 0 0 0 0 0 0 0 0 0 0 .4 0"/><feOffset dx="4.0" dy="4.0" in="blurOut2" result="blurOut3"/><feBlend in="SourceGraphic" in2="blurOut3" mode="normal"/></filter></defs><g><!--MD5=[213ccc2a6a3bbfcf3ba9f50270d5840a]
class CCEModel--><!--MD5=[ac13618b1a974308c1f12eb6c57723dc]
class Event--><rect codeLine="13" fill="#FFFFFF" filter="url(#fl5bhs4sf9vqv)" height="32" id="Event" style="stroke:#A9A9A9;stroke-width:1.5;" width="65" x="134.5" y="7"/><ellipse cx="149.5" cy="23" fill="#FFFFFF" rx="11" ry="11" style="stroke:#A9A9A9;stroke-width:1.0;"/><path d="M151.8438,18.6719 C150.9063,18.2344 150.3125,18.0938 149.4375,18.0938 C146.8125,18.0938 144.8125,20.1719 144.8125,22.8906 L144.8125,24.0156 C144.8125,26.5938 146.9219,28.4844 149.8125,28.4844 C151.0313,28.4844 152.1875,28.1875 152.9375,27.6406 C153.5156,27.2344 153.8438,26.7813 153.8438,26.3906 C153.8438,25.9375 153.4531,25.5469 152.9844,25.5469 C152.7656,25.5469 152.5625,25.625 152.375,25.8125 C151.9219,26.2969 151.9219,26.2969 151.7344,26.3906 C151.3125,26.6563 150.625,26.7813 149.8594,26.7813 C147.8125,26.7813 146.5156,25.6875 146.5156,23.9844 L146.5156,22.8906 C146.5156,21.1094 147.7656,19.7969 149.5,19.7969 C150.0781,19.7969 150.6875,19.9531 151.1563,20.2031 C151.6406,20.4844 151.8125,20.7031 151.9063,21.1094 C151.9688,21.5156 152,21.6406 152.1406,21.7656 C152.2813,21.9063 152.5156,22.0156 152.7344,22.0156 C153,22.0156 153.2656,21.875 153.4375,21.6563 C153.5469,21.5 153.5781,21.3125 153.5781,20.8906 L153.5781,19.4688 C153.5781,19.0313 153.5625,18.9063 153.4688,18.75 C153.3125,18.4844 153.0313,18.3438 152.7344,18.3438 C152.4375,18.3438 152.2344,18.4375 152.0156,18.75 L151.8438,18.6719 Z " fill="#000000"/><text fill="#000000" font-family="sans-serif" font-size="12" lengthAdjust="spacing" textLength="33" x="163.5" y="27.1543">Event</text><!--MD5=[64900836f68068857b61d6e0faf59da6]
@startuml
hide empty members

skinparam class {
  BackgroundColor white
  ArrowColor black
  BorderColor darkGray
  BackgroundColor<<External>> LightYellow
  BorderColor<<External>> LightGray
}

class CCEModel << (C,white) >> {
}
class Event << (C,white) >> {
}




hide CCEModel
@enduml

PlantUML version 1.2021.7(Sun May 23 12:40:07 UTC 2021)
(GPL source distribution)
Java Runtime: Java(TM) SE Runtime Environment
JVM: Java HotSpot(TM) 64-Bit Server VM
Default Encoding: UTF-8
Language: en
Country: US
--></g></svg>