<?xml version="1.0" encoding="UTF-8" standalone="no"?>
<svg xmlns="http://www.w3.org/2000/svg" xmlns:xlink="http://www.w3.org/1999/xlink" contentScriptType="application/ecmascript" contentStyleType="text/css" height="770px" preserveAspectRatio="none" style="width:1326px;height:770px;background:#FFFFFF;" version="1.1" viewBox="0 0 1326 770" width="1326px" zoomAndPan="magnify"><defs><filter height="300%" id="fpfu62oadn2lb" width="300%" x="-1" y="-1"><feGaussianBlur result="blurOut" stdDeviation="2.0"/><feColorMatrix in="blurOut" result="blurOut2" type="matrix" values="0 0 0 0 0 0 0 0 0 0 0 0 0 0 0 0 0 0 .4 0"/><feOffset dx="4.0" dy="4.0" in="blurOut2" result="blurOut3"/><feBlend in="SourceGraphic" in2="blurOut3" mode="normal"/></filter></defs><g><!--MD5=[ee5364c331acc9e6e86004e0e3e6eb68]
class StringLiteral--><rect codeLine="11" fill="#FFFFFF" filter="url(#fpfu62oadn2lb)" height="32" id="StringLiteral" style="stroke:#A9A9A9;stroke-width:1.5;" width="103" x="7" y="724"/><ellipse cx="22" cy="740" fill="#FFFFFF" rx="11" ry="11" style="stroke:#A9A9A9;stroke-width:1.0;"/><path d="M24.3438,735.6719 C23.4063,735.2344 22.8125,735.0938 21.9375,735.0938 C19.3125,735.0938 17.3125,737.1719 17.3125,739.8906 L17.3125,741.0156 C17.3125,743.5938 19.4219,745.4844 22.3125,745.4844 C23.5313,745.4844 24.6875,745.1875 25.4375,744.6406 C26.0156,744.2344 26.3438,743.7813 26.3438,743.3906 C26.3438,742.9375 25.9531,742.5469 25.4844,742.5469 C25.2656,742.5469 25.0625,742.625 24.875,742.8125 C24.4219,743.2969 24.4219,743.2969 24.2344,743.3906 C23.8125,743.6563 23.125,743.7813 22.3594,743.7813 C20.3125,743.7813 19.0156,742.6875 19.0156,740.9844 L19.0156,739.8906 C19.0156,738.1094 20.2656,736.7969 22,736.7969 C22.5781,736.7969 23.1875,736.9531 23.6563,737.2031 C24.1406,737.4844 24.3125,737.7031 24.4063,738.1094 C24.4688,738.5156 24.5,738.6406 24.6406,738.7656 C24.7813,738.9063 25.0156,739.0156 25.2344,739.0156 C25.5,739.0156 25.7656,738.875 25.9375,738.6563 C26.0469,738.5 26.0781,738.3125 26.0781,737.8906 L26.0781,736.4688 C26.0781,736.0313 26.0625,735.9063 25.9688,735.75 C25.8125,735.4844 25.5313,735.3438 25.2344,735.3438 C24.9375,735.3438 24.7344,735.4375 24.5156,735.75 L24.3438,735.6719 Z " fill="#000000"/><text fill="#000000" font-family="sans-serif" font-size="12" lengthAdjust="spacing" textLength="71" x="36" y="744.1543">StringLiteral</text><!--MD5=[c73f40aab2e3ffaae55380063365c075]
class ExpressionStatement--><rect codeLine="13" fill="#FFFFFF" filter="url(#fpfu62oadn2lb)" height="32" id="ExpressionStatement" style="stroke:#A9A9A9;stroke-width:1.5;" width="160" x="297.5" y="421"/><ellipse cx="312.5" cy="437" fill="#FFFFFF" rx="11" ry="11" style="stroke:#A9A9A9;stroke-width:1.0;"/><path d="M314.8438,432.6719 C313.9063,432.2344 313.3125,432.0938 312.4375,432.0938 C309.8125,432.0938 307.8125,434.1719 307.8125,436.8906 L307.8125,438.0156 C307.8125,440.5938 309.9219,442.4844 312.8125,442.4844 C314.0313,442.4844 315.1875,442.1875 315.9375,441.6406 C316.5156,441.2344 316.8438,440.7813 316.8438,440.3906 C316.8438,439.9375 316.4531,439.5469 315.9844,439.5469 C315.7656,439.5469 315.5625,439.625 315.375,439.8125 C314.9219,440.2969 314.9219,440.2969 314.7344,440.3906 C314.3125,440.6563 313.625,440.7813 312.8594,440.7813 C310.8125,440.7813 309.5156,439.6875 309.5156,437.9844 L309.5156,436.8906 C309.5156,435.1094 310.7656,433.7969 312.5,433.7969 C313.0781,433.7969 313.6875,433.9531 314.1563,434.2031 C314.6406,434.4844 314.8125,434.7031 314.9063,435.1094 C314.9688,435.5156 315,435.6406 315.1406,435.7656 C315.2813,435.9063 315.5156,436.0156 315.7344,436.0156 C316,436.0156 316.2656,435.875 316.4375,435.6563 C316.5469,435.5 316.5781,435.3125 316.5781,434.8906 L316.5781,433.4688 C316.5781,433.0313 316.5625,432.9063 316.4688,432.75 C316.3125,432.4844 316.0313,432.3438 315.7344,432.3438 C315.4375,432.3438 315.2344,432.4375 315.0156,432.75 L314.8438,432.6719 Z " fill="#000000"/><text fill="#000000" font-family="sans-serif" font-size="12" lengthAdjust="spacing" textLength="128" x="326.5" y="441.1543">ExpressionStatement</text><!--MD5=[0c4261079a22b6a12f3886ba4f6c9001]
class ReturnStatement--><rect codeLine="15" fill="#FFFFFF" filter="url(#fpfu62oadn2lb)" height="32" id="ReturnStatement" style="stroke:#A9A9A9;stroke-width:1.5;" width="131" x="131" y="421"/><ellipse cx="146" cy="437" fill="#FFFFFF" rx="11" ry="11" style="stroke:#A9A9A9;stroke-width:1.0;"/><path d="M148.3438,432.6719 C147.4063,432.2344 146.8125,432.0938 145.9375,432.0938 C143.3125,432.0938 141.3125,434.1719 141.3125,436.8906 L141.3125,438.0156 C141.3125,440.5938 143.4219,442.4844 146.3125,442.4844 C147.5313,442.4844 148.6875,442.1875 149.4375,441.6406 C150.0156,441.2344 150.3438,440.7813 150.3438,440.3906 C150.3438,439.9375 149.9531,439.5469 149.4844,439.5469 C149.2656,439.5469 149.0625,439.625 148.875,439.8125 C148.4219,440.2969 148.4219,440.2969 148.2344,440.3906 C147.8125,440.6563 147.125,440.7813 146.3594,440.7813 C144.3125,440.7813 143.0156,439.6875 143.0156,437.9844 L143.0156,436.8906 C143.0156,435.1094 144.2656,433.7969 146,433.7969 C146.5781,433.7969 147.1875,433.9531 147.6563,434.2031 C148.1406,434.4844 148.3125,434.7031 148.4063,435.1094 C148.4688,435.5156 148.5,435.6406 148.6406,435.7656 C148.7813,435.9063 149.0156,436.0156 149.2344,436.0156 C149.5,436.0156 149.7656,435.875 149.9375,435.6563 C150.0469,435.5 150.0781,435.3125 150.0781,434.8906 L150.0781,433.4688 C150.0781,433.0313 150.0625,432.9063 149.9688,432.75 C149.8125,432.4844 149.5313,432.3438 149.2344,432.3438 C148.9375,432.3438 148.7344,432.4375 148.5156,432.75 L148.3438,432.6719 Z " fill="#000000"/><text fill="#000000" font-family="sans-serif" font-size="12" lengthAdjust="spacing" textLength="99" x="160" y="441.1543">ReturnStatement</text><!--MD5=[73ef187932967aa63dd4a169d5713a69]
class TWithParameters--><rect codeLine="17" fill="#FFFFFF" filter="url(#fpfu62oadn2lb)" height="32" id="TWithParameters" style="stroke:#A9A9A9;stroke-width:1.5;" width="133" x="822" y="237"/><ellipse cx="837" cy="253" fill="#D3D3D3" rx="11" ry="11" style="stroke:#A9A9A9;stroke-width:1.0;"/><path d="M837.4375,250.5313 L839.2813,250.5313 L839.2813,252.125 C839.2813,252.5156 839.3125,252.6875 839.4063,252.8281 C839.5625,253.0781 839.8438,253.2344 840.1406,253.2344 C840.4063,253.2344 840.6563,253.1094 840.8281,252.8906 C840.9688,252.7188 840.9844,252.5938 840.9844,252.125 L840.9844,248.8438 L832.2188,248.8438 L832.2188,252.125 C832.2188,252.5156 832.25,252.6875 832.3281,252.8281 C832.4844,253.0938 832.7813,253.2344 833.0625,253.2344 C833.3438,253.2344 833.5938,253.1094 833.7656,252.8906 C833.875,252.7188 833.9063,252.5781 833.9063,252.125 L833.9063,250.5313 L835.7344,250.5313 L835.7344,257.0469 L834.625,257.0469 C834.1875,257.0469 834.0625,257.0625 833.9063,257.1719 C833.6563,257.3281 833.5,257.6094 833.5,257.9063 C833.5,258.1563 833.6406,258.4219 833.8594,258.5781 C834.0156,258.7031 834.2344,258.75 834.625,258.75 L838.5625,258.75 C838.8906,258.75 839.1563,258.7031 839.2656,258.625 C839.5313,258.4844 839.6719,258.1875 839.6719,257.9063 C839.6719,257.625 839.5469,257.375 839.3125,257.2031 C839.1563,257.0781 839.0156,257.0469 838.5625,257.0469 L837.4375,257.0469 L837.4375,250.5313 Z " fill="#000000"/><text fill="#000000" font-family="sans-serif" font-size="12" lengthAdjust="spacing" textLength="101" x="851" y="257.1543">TWithParameters</text><!--MD5=[52d60201ff07f09880e85c9b1e723bdb]
class VariableExpression--><rect codeLine="19" fill="#FFFFFF" filter="url(#fpfu62oadn2lb)" height="32" id="VariableExpression" style="stroke:#A9A9A9;stroke-width:1.5;" width="148" x="759.5" y="621.5"/><ellipse cx="774.5" cy="637.5" fill="#FFFFFF" rx="11" ry="11" style="stroke:#A9A9A9;stroke-width:1.0;"/><path d="M776.8438,633.1719 C775.9063,632.7344 775.3125,632.5938 774.4375,632.5938 C771.8125,632.5938 769.8125,634.6719 769.8125,637.3906 L769.8125,638.5156 C769.8125,641.0938 771.9219,642.9844 774.8125,642.9844 C776.0313,642.9844 777.1875,642.6875 777.9375,642.1406 C778.5156,641.7344 778.8438,641.2813 778.8438,640.8906 C778.8438,640.4375 778.4531,640.0469 777.9844,640.0469 C777.7656,640.0469 777.5625,640.125 777.375,640.3125 C776.9219,640.7969 776.9219,640.7969 776.7344,640.8906 C776.3125,641.1563 775.625,641.2813 774.8594,641.2813 C772.8125,641.2813 771.5156,640.1875 771.5156,638.4844 L771.5156,637.3906 C771.5156,635.6094 772.7656,634.2969 774.5,634.2969 C775.0781,634.2969 775.6875,634.4531 776.1563,634.7031 C776.6406,634.9844 776.8125,635.2031 776.9063,635.6094 C776.9688,636.0156 777,636.1406 777.1406,636.2656 C777.2813,636.4063 777.5156,636.5156 777.7344,636.5156 C778,636.5156 778.2656,636.375 778.4375,636.1563 C778.5469,636 778.5781,635.8125 778.5781,635.3906 L778.5781,633.9688 C778.5781,633.5313 778.5625,633.4063 778.4688,633.25 C778.3125,632.9844 778.0313,632.8438 777.7344,632.8438 C777.4375,632.8438 777.2344,632.9375 777.0156,633.25 L776.8438,633.1719 Z " fill="#000000"/><text fill="#000000" font-family="sans-serif" font-size="12" lengthAdjust="spacing" textLength="116" x="788.5" y="641.6543">VariableExpression</text><!--MD5=[4dd683cd8fb8dc056a44b999a3cf5480]
class FASTModel--><!--MD5=[783da01c964f5d77e03b7db4b79d5bd8]
class TWithArguments--><rect codeLine="23" fill="#FFFFFF" filter="url(#fpfu62oadn2lb)" height="32" id="TWithArguments" style="stroke:#A9A9A9;stroke-width:1.5;" width="130" x="740.5" y="516"/><ellipse cx="755.5" cy="532" fill="#D3D3D3" rx="11" ry="11" style="stroke:#A9A9A9;stroke-width:1.0;"/><path d="M755.9375,529.5313 L757.7813,529.5313 L757.7813,531.125 C757.7813,531.5156 757.8125,531.6875 757.9063,531.8281 C758.0625,532.0781 758.3438,532.2344 758.6406,532.2344 C758.9063,532.2344 759.1563,532.1094 759.3281,531.8906 C759.4688,531.7188 759.4844,531.5938 759.4844,531.125 L759.4844,527.8438 L750.7188,527.8438 L750.7188,531.125 C750.7188,531.5156 750.75,531.6875 750.8281,531.8281 C750.9844,532.0938 751.2813,532.2344 751.5625,532.2344 C751.8438,532.2344 752.0938,532.1094 752.2656,531.8906 C752.375,531.7188 752.4063,531.5781 752.4063,531.125 L752.4063,529.5313 L754.2344,529.5313 L754.2344,536.0469 L753.125,536.0469 C752.6875,536.0469 752.5625,536.0625 752.4063,536.1719 C752.1563,536.3281 752,536.6094 752,536.9063 C752,537.1563 752.1406,537.4219 752.3594,537.5781 C752.5156,537.7031 752.7344,537.75 753.125,537.75 L757.0625,537.75 C757.3906,537.75 757.6563,537.7031 757.7656,537.625 C758.0313,537.4844 758.1719,537.1875 758.1719,536.9063 C758.1719,536.625 758.0469,536.375 757.8125,536.2031 C757.6563,536.0781 757.5156,536.0469 757.0625,536.0469 L755.9375,536.0469 L755.9375,529.5313 Z " fill="#000000"/><text fill="#000000" font-family="sans-serif" font-size="12" lengthAdjust="spacing" textLength="98" x="769.5" y="536.1543">TWithArguments</text><!--MD5=[27bfdb9e128171e0e365013b6b91e809]
class Literal--><rect codeLine="25" fill="#FFFFFF" filter="url(#fpfu62oadn2lb)" height="52.8047" id="Literal" style="stroke:#A9A9A9;stroke-width:1.5;" width="81" x="246" y="611"/><ellipse cx="266.85" cy="627" fill="#FFFFFF" rx="11" ry="11" style="stroke:#A9A9A9;stroke-width:1.0;"/><path d="M269.1938,622.6719 C268.2563,622.2344 267.6625,622.0938 266.7875,622.0938 C264.1625,622.0938 262.1625,624.1719 262.1625,626.8906 L262.1625,628.0156 C262.1625,630.5938 264.2719,632.4844 267.1625,632.4844 C268.3813,632.4844 269.5375,632.1875 270.2875,631.6406 C270.8656,631.2344 271.1938,630.7813 271.1938,630.3906 C271.1938,629.9375 270.8031,629.5469 270.3344,629.5469 C270.1156,629.5469 269.9125,629.625 269.725,629.8125 C269.2719,630.2969 269.2719,630.2969 269.0844,630.3906 C268.6625,630.6563 267.975,630.7813 267.2094,630.7813 C265.1625,630.7813 263.8656,629.6875 263.8656,627.9844 L263.8656,626.8906 C263.8656,625.1094 265.1156,623.7969 266.85,623.7969 C267.4281,623.7969 268.0375,623.9531 268.5063,624.2031 C268.9906,624.4844 269.1625,624.7031 269.2563,625.1094 C269.3188,625.5156 269.35,625.6406 269.4906,625.7656 C269.6313,625.9063 269.8656,626.0156 270.0844,626.0156 C270.35,626.0156 270.6156,625.875 270.7875,625.6563 C270.8969,625.5 270.9281,625.3125 270.9281,624.8906 L270.9281,623.4688 C270.9281,623.0313 270.9125,622.9063 270.8188,622.75 C270.6625,622.4844 270.3813,622.3438 270.0844,622.3438 C269.7875,622.3438 269.5844,622.4375 269.3656,622.75 L269.1938,622.6719 Z " fill="#000000"/><text fill="#000000" font-family="sans-serif" font-size="12" lengthAdjust="spacing" textLength="36" x="282.15" y="631.1543">Literal</text><line style="stroke:#A9A9A9;stroke-width:1.5;" x1="247" x2="326" y1="643" y2="643"/><text fill="#000000" font-family="sans-serif" font-size="11" lengthAdjust="spacing" textLength="69" x="252" y="657.2104">String value</text><!--MD5=[9737828509a2353b46345f8f0318fa3d]
class CharacterLiteral--><rect codeLine="28" fill="#FFFFFF" filter="url(#fpfu62oadn2lb)" height="32" id="CharacterLiteral" style="stroke:#A9A9A9;stroke-width:1.5;" width="126" x="145.5" y="724"/><ellipse cx="160.5" cy="740" fill="#FFFFFF" rx="11" ry="11" style="stroke:#A9A9A9;stroke-width:1.0;"/><path d="M162.8438,735.6719 C161.9063,735.2344 161.3125,735.0938 160.4375,735.0938 C157.8125,735.0938 155.8125,737.1719 155.8125,739.8906 L155.8125,741.0156 C155.8125,743.5938 157.9219,745.4844 160.8125,745.4844 C162.0313,745.4844 163.1875,745.1875 163.9375,744.6406 C164.5156,744.2344 164.8438,743.7813 164.8438,743.3906 C164.8438,742.9375 164.4531,742.5469 163.9844,742.5469 C163.7656,742.5469 163.5625,742.625 163.375,742.8125 C162.9219,743.2969 162.9219,743.2969 162.7344,743.3906 C162.3125,743.6563 161.625,743.7813 160.8594,743.7813 C158.8125,743.7813 157.5156,742.6875 157.5156,740.9844 L157.5156,739.8906 C157.5156,738.1094 158.7656,736.7969 160.5,736.7969 C161.0781,736.7969 161.6875,736.9531 162.1563,737.2031 C162.6406,737.4844 162.8125,737.7031 162.9063,738.1094 C162.9688,738.5156 163,738.6406 163.1406,738.7656 C163.2813,738.9063 163.5156,739.0156 163.7344,739.0156 C164,739.0156 164.2656,738.875 164.4375,738.6563 C164.5469,738.5 164.5781,738.3125 164.5781,737.8906 L164.5781,736.4688 C164.5781,736.0313 164.5625,735.9063 164.4688,735.75 C164.3125,735.4844 164.0313,735.3438 163.7344,735.3438 C163.4375,735.3438 163.2344,735.4375 163.0156,735.75 L162.8438,735.6719 Z " fill="#000000"/><text fill="#000000" font-family="sans-serif" font-size="12" lengthAdjust="spacing" textLength="94" x="174.5" y="744.1543">CharacterLiteral</text><!--MD5=[3637e2e3ff64f8c7ec072f5df5e3a1dc]
class Expression--><rect codeLine="30" fill="#FFFFFF" filter="url(#fpfu62oadn2lb)" height="32" id="Expression" style="stroke:#A9A9A9;stroke-width:1.5;" width="99" x="237" y="516"/><ellipse cx="252" cy="532" fill="#FFFFFF" rx="11" ry="11" style="stroke:#A9A9A9;stroke-width:1.0;"/><path d="M254.3438,527.6719 C253.4063,527.2344 252.8125,527.0938 251.9375,527.0938 C249.3125,527.0938 247.3125,529.1719 247.3125,531.8906 L247.3125,533.0156 C247.3125,535.5938 249.4219,537.4844 252.3125,537.4844 C253.5313,537.4844 254.6875,537.1875 255.4375,536.6406 C256.0156,536.2344 256.3438,535.7813 256.3438,535.3906 C256.3438,534.9375 255.9531,534.5469 255.4844,534.5469 C255.2656,534.5469 255.0625,534.625 254.875,534.8125 C254.4219,535.2969 254.4219,535.2969 254.2344,535.3906 C253.8125,535.6563 253.125,535.7813 252.3594,535.7813 C250.3125,535.7813 249.0156,534.6875 249.0156,532.9844 L249.0156,531.8906 C249.0156,530.1094 250.2656,528.7969 252,528.7969 C252.5781,528.7969 253.1875,528.9531 253.6563,529.2031 C254.1406,529.4844 254.3125,529.7031 254.4063,530.1094 C254.4688,530.5156 254.5,530.6406 254.6406,530.7656 C254.7813,530.9063 255.0156,531.0156 255.2344,531.0156 C255.5,531.0156 255.7656,530.875 255.9375,530.6563 C256.0469,530.5 256.0781,530.3125 256.0781,529.8906 L256.0781,528.4688 C256.0781,528.0313 256.0625,527.9063 255.9688,527.75 C255.8125,527.4844 255.5313,527.3438 255.2344,527.3438 C254.9375,527.3438 254.7344,527.4375 254.5156,527.75 L254.3438,527.6719 Z " fill="#000000"/><text fill="#000000" font-family="sans-serif" font-size="12" lengthAdjust="spacing" textLength="67" x="266" y="536.1543">Expression</text><!--MD5=[12723b8e38baf162be6b391595683935]
class NamedBehaviouralEntity--><rect codeLine="32" fill="#FFFFFF" filter="url(#fpfu62oadn2lb)" height="32" id="NamedBehaviouralEntity" style="stroke:#A9A9A9;stroke-width:1.5;" width="176" x="411.5" y="621.5"/><ellipse cx="426.5" cy="637.5" fill="#FFFFFF" rx="11" ry="11" style="stroke:#A9A9A9;stroke-width:1.0;"/><path d="M428.8438,633.1719 C427.9063,632.7344 427.3125,632.5938 426.4375,632.5938 C423.8125,632.5938 421.8125,634.6719 421.8125,637.3906 L421.8125,638.5156 C421.8125,641.0938 423.9219,642.9844 426.8125,642.9844 C428.0313,642.9844 429.1875,642.6875 429.9375,642.1406 C430.5156,641.7344 430.8438,641.2813 430.8438,640.8906 C430.8438,640.4375 430.4531,640.0469 429.9844,640.0469 C429.7656,640.0469 429.5625,640.125 429.375,640.3125 C428.9219,640.7969 428.9219,640.7969 428.7344,640.8906 C428.3125,641.1563 427.625,641.2813 426.8594,641.2813 C424.8125,641.2813 423.5156,640.1875 423.5156,638.4844 L423.5156,637.3906 C423.5156,635.6094 424.7656,634.2969 426.5,634.2969 C427.0781,634.2969 427.6875,634.4531 428.1563,634.7031 C428.6406,634.9844 428.8125,635.2031 428.9063,635.6094 C428.9688,636.0156 429,636.1406 429.1406,636.2656 C429.2813,636.4063 429.5156,636.5156 429.7344,636.5156 C430,636.5156 430.2656,636.375 430.4375,636.1563 C430.5469,636 430.5781,635.8125 430.5781,635.3906 L430.5781,633.9688 C430.5781,633.5313 430.5625,633.4063 430.4688,633.25 C430.3125,632.9844 430.0313,632.8438 429.7344,632.8438 C429.4375,632.8438 429.2344,632.9375 429.0156,633.25 L428.8438,633.1719 Z " fill="#000000"/><text fill="#000000" font-family="sans-serif" font-size="12" lengthAdjust="spacing" textLength="144" x="440.5" y="641.6543">NamedBehaviouralEntity</text><!--MD5=[9342578375d27f7d6f0fb6a24ebe566c]
class TArgument--><rect codeLine="34" fill="#FFFFFF" filter="url(#fpfu62oadn2lb)" height="32" id="TArgument" style="stroke:#A9A9A9;stroke-width:1.5;" width="97" x="654" y="421"/><ellipse cx="669" cy="437" fill="#D3D3D3" rx="11" ry="11" style="stroke:#A9A9A9;stroke-width:1.0;"/><path d="M669.4375,434.5313 L671.2813,434.5313 L671.2813,436.125 C671.2813,436.5156 671.3125,436.6875 671.4063,436.8281 C671.5625,437.0781 671.8438,437.2344 672.1406,437.2344 C672.4063,437.2344 672.6563,437.1094 672.8281,436.8906 C672.9688,436.7188 672.9844,436.5938 672.9844,436.125 L672.9844,432.8438 L664.2188,432.8438 L664.2188,436.125 C664.2188,436.5156 664.25,436.6875 664.3281,436.8281 C664.4844,437.0938 664.7813,437.2344 665.0625,437.2344 C665.3438,437.2344 665.5938,437.1094 665.7656,436.8906 C665.875,436.7188 665.9063,436.5781 665.9063,436.125 L665.9063,434.5313 L667.7344,434.5313 L667.7344,441.0469 L666.625,441.0469 C666.1875,441.0469 666.0625,441.0625 665.9063,441.1719 C665.6563,441.3281 665.5,441.6094 665.5,441.9063 C665.5,442.1563 665.6406,442.4219 665.8594,442.5781 C666.0156,442.7031 666.2344,442.75 666.625,442.75 L670.5625,442.75 C670.8906,442.75 671.1563,442.7031 671.2656,442.625 C671.5313,442.4844 671.6719,442.1875 671.6719,441.9063 C671.6719,441.625 671.5469,441.375 671.3125,441.2031 C671.1563,441.0781 671.0156,441.0469 670.5625,441.0469 L669.4375,441.0469 L669.4375,434.5313 Z " fill="#000000"/><text fill="#000000" font-family="sans-serif" font-size="12" lengthAdjust="spacing" textLength="65" x="683" y="441.1543">TArgument</text><!--MD5=[346d99b39270fc9da6b587baaa1d0e86]
class BooleanLiteral--><rect codeLine="36" fill="#FFFFFF" filter="url(#fpfu62oadn2lb)" height="32" id="BooleanLiteral" style="stroke:#A9A9A9;stroke-width:1.5;" width="117" x="307" y="724"/><ellipse cx="322" cy="740" fill="#FFFFFF" rx="11" ry="11" style="stroke:#A9A9A9;stroke-width:1.0;"/><path d="M324.3438,735.6719 C323.4063,735.2344 322.8125,735.0938 321.9375,735.0938 C319.3125,735.0938 317.3125,737.1719 317.3125,739.8906 L317.3125,741.0156 C317.3125,743.5938 319.4219,745.4844 322.3125,745.4844 C323.5313,745.4844 324.6875,745.1875 325.4375,744.6406 C326.0156,744.2344 326.3438,743.7813 326.3438,743.3906 C326.3438,742.9375 325.9531,742.5469 325.4844,742.5469 C325.2656,742.5469 325.0625,742.625 324.875,742.8125 C324.4219,743.2969 324.4219,743.2969 324.2344,743.3906 C323.8125,743.6563 323.125,743.7813 322.3594,743.7813 C320.3125,743.7813 319.0156,742.6875 319.0156,740.9844 L319.0156,739.8906 C319.0156,738.1094 320.2656,736.7969 322,736.7969 C322.5781,736.7969 323.1875,736.9531 323.6563,737.2031 C324.1406,737.4844 324.3125,737.7031 324.4063,738.1094 C324.4688,738.5156 324.5,738.6406 324.6406,738.7656 C324.7813,738.9063 325.0156,739.0156 325.2344,739.0156 C325.5,739.0156 325.7656,738.875 325.9375,738.6563 C326.0469,738.5 326.0781,738.3125 326.0781,737.8906 L326.0781,736.4688 C326.0781,736.0313 326.0625,735.9063 325.9688,735.75 C325.8125,735.4844 325.5313,735.3438 325.2344,735.3438 C324.9375,735.3438 324.7344,735.4375 324.5156,735.75 L324.3438,735.6719 Z " fill="#000000"/><text fill="#000000" font-family="sans-serif" font-size="12" lengthAdjust="spacing" textLength="85" x="336" y="744.1543">BooleanLiteral</text><!--MD5=[a61a298976b7d1d94498f45c2ebfa10b]
class Statement--><rect codeLine="38" fill="#FFFFFF" filter="url(#fpfu62oadn2lb)" height="32" id="Statement" style="stroke:#A9A9A9;stroke-width:1.5;" width="93" x="420" y="329"/><ellipse cx="435" cy="345" fill="#FFFFFF" rx="11" ry="11" style="stroke:#A9A9A9;stroke-width:1.0;"/><path d="M437.3438,340.6719 C436.4063,340.2344 435.8125,340.0938 434.9375,340.0938 C432.3125,340.0938 430.3125,342.1719 430.3125,344.8906 L430.3125,346.0156 C430.3125,348.5938 432.4219,350.4844 435.3125,350.4844 C436.5313,350.4844 437.6875,350.1875 438.4375,349.6406 C439.0156,349.2344 439.3438,348.7813 439.3438,348.3906 C439.3438,347.9375 438.9531,347.5469 438.4844,347.5469 C438.2656,347.5469 438.0625,347.625 437.875,347.8125 C437.4219,348.2969 437.4219,348.2969 437.2344,348.3906 C436.8125,348.6563 436.125,348.7813 435.3594,348.7813 C433.3125,348.7813 432.0156,347.6875 432.0156,345.9844 L432.0156,344.8906 C432.0156,343.1094 433.2656,341.7969 435,341.7969 C435.5781,341.7969 436.1875,341.9531 436.6563,342.2031 C437.1406,342.4844 437.3125,342.7031 437.4063,343.1094 C437.4688,343.5156 437.5,343.6406 437.6406,343.7656 C437.7813,343.9063 438.0156,344.0156 438.2344,344.0156 C438.5,344.0156 438.7656,343.875 438.9375,343.6563 C439.0469,343.5 439.0781,343.3125 439.0781,342.8906 L439.0781,341.4688 C439.0781,341.0313 439.0625,340.9063 438.9688,340.75 C438.8125,340.4844 438.5313,340.3438 438.2344,340.3438 C437.9375,340.3438 437.7344,340.4375 437.5156,340.75 L437.3438,340.6719 Z " fill="#000000"/><text fill="#000000" font-family="sans-serif" font-size="12" lengthAdjust="spacing" textLength="61" x="449" y="349.1543">Statement</text><!--MD5=[8ce6b0c5b40a9f9d4371fa996248b52a]
class ScopableEntity--><rect codeLine="40" fill="#FFFFFF" filter="url(#fpfu62oadn2lb)" height="32" id="ScopableEntity" style="stroke:#A9A9A9;stroke-width:1.5;" width="121" x="406" y="237"/><ellipse cx="421" cy="253" fill="#FFFFFF" rx="11" ry="11" style="stroke:#A9A9A9;stroke-width:1.0;"/><path d="M423.3438,248.6719 C422.4063,248.2344 421.8125,248.0938 420.9375,248.0938 C418.3125,248.0938 416.3125,250.1719 416.3125,252.8906 L416.3125,254.0156 C416.3125,256.5938 418.4219,258.4844 421.3125,258.4844 C422.5313,258.4844 423.6875,258.1875 424.4375,257.6406 C425.0156,257.2344 425.3438,256.7813 425.3438,256.3906 C425.3438,255.9375 424.9531,255.5469 424.4844,255.5469 C424.2656,255.5469 424.0625,255.625 423.875,255.8125 C423.4219,256.2969 423.4219,256.2969 423.2344,256.3906 C422.8125,256.6563 422.125,256.7813 421.3594,256.7813 C419.3125,256.7813 418.0156,255.6875 418.0156,253.9844 L418.0156,252.8906 C418.0156,251.1094 419.2656,249.7969 421,249.7969 C421.5781,249.7969 422.1875,249.9531 422.6563,250.2031 C423.1406,250.4844 423.3125,250.7031 423.4063,251.1094 C423.4688,251.5156 423.5,251.6406 423.6406,251.7656 C423.7813,251.9063 424.0156,252.0156 424.2344,252.0156 C424.5,252.0156 424.7656,251.875 424.9375,251.6563 C425.0469,251.5 425.0781,251.3125 425.0781,250.8906 L425.0781,249.4688 C425.0781,249.0313 425.0625,248.9063 424.9688,248.75 C424.8125,248.4844 424.5313,248.3438 424.2344,248.3438 C423.9375,248.3438 423.7344,248.4375 423.5156,248.75 L423.3438,248.6719 Z " fill="#000000"/><text fill="#000000" font-family="sans-serif" font-size="12" lengthAdjust="spacing" textLength="89" x="435" y="257.1543">ScopableEntity</text><!--MD5=[9bd223fe1f846b38940bb758d632d4f3]
class TParameter--><rect codeLine="42" fill="#FFFFFF" filter="url(#fpfu62oadn2lb)" height="32" id="TParameter" style="stroke:#A9A9A9;stroke-width:1.5;" width="100" x="882.5" y="125"/><ellipse cx="897.5" cy="141" fill="#D3D3D3" rx="11" ry="11" style="stroke:#A9A9A9;stroke-width:1.0;"/><path d="M897.9375,138.5313 L899.7813,138.5313 L899.7813,140.125 C899.7813,140.5156 899.8125,140.6875 899.9063,140.8281 C900.0625,141.0781 900.3438,141.2344 900.6406,141.2344 C900.9063,141.2344 901.1563,141.1094 901.3281,140.8906 C901.4688,140.7188 901.4844,140.5938 901.4844,140.125 L901.4844,136.8438 L892.7188,136.8438 L892.7188,140.125 C892.7188,140.5156 892.75,140.6875 892.8281,140.8281 C892.9844,141.0938 893.2813,141.2344 893.5625,141.2344 C893.8438,141.2344 894.0938,141.1094 894.2656,140.8906 C894.375,140.7188 894.4063,140.5781 894.4063,140.125 L894.4063,138.5313 L896.2344,138.5313 L896.2344,145.0469 L895.125,145.0469 C894.6875,145.0469 894.5625,145.0625 894.4063,145.1719 C894.1563,145.3281 894,145.6094 894,145.9063 C894,146.1563 894.1406,146.4219 894.3594,146.5781 C894.5156,146.7031 894.7344,146.75 895.125,146.75 L899.0625,146.75 C899.3906,146.75 899.6563,146.7031 899.7656,146.625 C900.0313,146.4844 900.1719,146.1875 900.1719,145.9063 C900.1719,145.625 900.0469,145.375 899.8125,145.2031 C899.6563,145.0781 899.5156,145.0469 899.0625,145.0469 L897.9375,145.0469 L897.9375,138.5313 Z " fill="#000000"/><text fill="#000000" font-family="sans-serif" font-size="12" lengthAdjust="spacing" textLength="68" x="911.5" y="145.1543">TParameter</text><!--MD5=[4d649ec7d4fb449bee97066e00dd2927]
class StatementBlock--><rect codeLine="44" fill="#FFFFFF" filter="url(#fpfu62oadn2lb)" height="32" id="StatementBlock" style="stroke:#A9A9A9;stroke-width:1.5;" width="126" x="492.5" y="421"/><ellipse cx="507.5" cy="437" fill="#FFFFFF" rx="11" ry="11" style="stroke:#A9A9A9;stroke-width:1.0;"/><path d="M509.8438,432.6719 C508.9063,432.2344 508.3125,432.0938 507.4375,432.0938 C504.8125,432.0938 502.8125,434.1719 502.8125,436.8906 L502.8125,438.0156 C502.8125,440.5938 504.9219,442.4844 507.8125,442.4844 C509.0313,442.4844 510.1875,442.1875 510.9375,441.6406 C511.5156,441.2344 511.8438,440.7813 511.8438,440.3906 C511.8438,439.9375 511.4531,439.5469 510.9844,439.5469 C510.7656,439.5469 510.5625,439.625 510.375,439.8125 C509.9219,440.2969 509.9219,440.2969 509.7344,440.3906 C509.3125,440.6563 508.625,440.7813 507.8594,440.7813 C505.8125,440.7813 504.5156,439.6875 504.5156,437.9844 L504.5156,436.8906 C504.5156,435.1094 505.7656,433.7969 507.5,433.7969 C508.0781,433.7969 508.6875,433.9531 509.1563,434.2031 C509.6406,434.4844 509.8125,434.7031 509.9063,435.1094 C509.9688,435.5156 510,435.6406 510.1406,435.7656 C510.2813,435.9063 510.5156,436.0156 510.7344,436.0156 C511,436.0156 511.2656,435.875 511.4375,435.6563 C511.5469,435.5 511.5781,435.3125 511.5781,434.8906 L511.5781,433.4688 C511.5781,433.0313 511.5625,432.9063 511.4688,432.75 C511.3125,432.4844 511.0313,432.3438 510.7344,432.3438 C510.4375,432.3438 510.2344,432.4375 510.0156,432.75 L509.8438,432.6719 Z " fill="#000000"/><text fill="#000000" font-family="sans-serif" font-size="12" lengthAdjust="spacing" textLength="94" x="521.5" y="441.1543">StatementBlock</text><!--MD5=[d03938f78b7f980b5cdf108b9da1baa7]
class BehaviouralEntity--><rect codeLine="46" fill="#FFFFFF" filter="url(#fpfu62oadn2lb)" height="32" id="BehaviouralEntity" style="stroke:#A9A9A9;stroke-width:1.5;" width="134" x="595.5" y="329"/><ellipse cx="610.5" cy="345" fill="#FFFFFF" rx="11" ry="11" style="stroke:#A9A9A9;stroke-width:1.0;"/><path d="M612.8438,340.6719 C611.9063,340.2344 611.3125,340.0938 610.4375,340.0938 C607.8125,340.0938 605.8125,342.1719 605.8125,344.8906 L605.8125,346.0156 C605.8125,348.5938 607.9219,350.4844 610.8125,350.4844 C612.0313,350.4844 613.1875,350.1875 613.9375,349.6406 C614.5156,349.2344 614.8438,348.7813 614.8438,348.3906 C614.8438,347.9375 614.4531,347.5469 613.9844,347.5469 C613.7656,347.5469 613.5625,347.625 613.375,347.8125 C612.9219,348.2969 612.9219,348.2969 612.7344,348.3906 C612.3125,348.6563 611.625,348.7813 610.8594,348.7813 C608.8125,348.7813 607.5156,347.6875 607.5156,345.9844 L607.5156,344.8906 C607.5156,343.1094 608.7656,341.7969 610.5,341.7969 C611.0781,341.7969 611.6875,341.9531 612.1563,342.2031 C612.6406,342.4844 612.8125,342.7031 612.9063,343.1094 C612.9688,343.5156 613,343.6406 613.1406,343.7656 C613.2813,343.9063 613.5156,344.0156 613.7344,344.0156 C614,344.0156 614.2656,343.875 614.4375,343.6563 C614.5469,343.5 614.5781,343.3125 614.5781,342.8906 L614.5781,341.4688 C614.5781,341.0313 614.5625,340.9063 614.4688,340.75 C614.3125,340.4844 614.0313,340.3438 613.7344,340.3438 C613.4375,340.3438 613.2344,340.4375 613.0156,340.75 L612.8438,340.6719 Z " fill="#000000"/><text fill="#000000" font-family="sans-serif" font-size="12" lengthAdjust="spacing" textLength="102" x="624.5" y="349.1543">BehaviouralEntity</text><!--MD5=[3a895033af9ff856730c4855678b96d4]
class NullPointerLiteral--><rect codeLine="48" fill="#FFFFFF" filter="url(#fpfu62oadn2lb)" height="32" id="NullPointerLiteral" style="stroke:#A9A9A9;stroke-width:1.5;" width="130" x="459.5" y="724"/><ellipse cx="474.5" cy="740" fill="#FFFFFF" rx="11" ry="11" style="stroke:#A9A9A9;stroke-width:1.0;"/><path d="M476.8438,735.6719 C475.9063,735.2344 475.3125,735.0938 474.4375,735.0938 C471.8125,735.0938 469.8125,737.1719 469.8125,739.8906 L469.8125,741.0156 C469.8125,743.5938 471.9219,745.4844 474.8125,745.4844 C476.0313,745.4844 477.1875,745.1875 477.9375,744.6406 C478.5156,744.2344 478.8438,743.7813 478.8438,743.3906 C478.8438,742.9375 478.4531,742.5469 477.9844,742.5469 C477.7656,742.5469 477.5625,742.625 477.375,742.8125 C476.9219,743.2969 476.9219,743.2969 476.7344,743.3906 C476.3125,743.6563 475.625,743.7813 474.8594,743.7813 C472.8125,743.7813 471.5156,742.6875 471.5156,740.9844 L471.5156,739.8906 C471.5156,738.1094 472.7656,736.7969 474.5,736.7969 C475.0781,736.7969 475.6875,736.9531 476.1563,737.2031 C476.6406,737.4844 476.8125,737.7031 476.9063,738.1094 C476.9688,738.5156 477,738.6406 477.1406,738.7656 C477.2813,738.9063 477.5156,739.0156 477.7344,739.0156 C478,739.0156 478.2656,738.875 478.4375,738.6563 C478.5469,738.5 478.5781,738.3125 478.5781,737.8906 L478.5781,736.4688 C478.5781,736.0313 478.5625,735.9063 478.4688,735.75 C478.3125,735.4844 478.0313,735.3438 477.7344,735.3438 C477.4375,735.3438 477.2344,735.4375 477.0156,735.75 L476.8438,735.6719 Z " fill="#000000"/><text fill="#000000" font-family="sans-serif" font-size="12" lengthAdjust="spacing" textLength="98" x="488.5" y="744.1543">NullPointerLiteral</text><!--MD5=[be996cdb8e6bf2fc7cb89c555f2cd144]
class Entity--><rect codeLine="91" fill="#FFFFE0" filter="url(#fpfu62oadn2lb)" height="71.5469" id="Entity" style="stroke:#D3D3D3;stroke-width:1.5;" width="105" x="193" y="105"/><ellipse cx="213.85" cy="123.9688" fill="#FFFFE0" rx="11" ry="11" style="stroke:#D3D3D3;stroke-width:1.0;"/><path d="M216.1938,119.6406 C215.2563,119.2031 214.6625,119.0625 213.7875,119.0625 C211.1625,119.0625 209.1625,121.1406 209.1625,123.8594 L209.1625,124.9844 C209.1625,127.5625 211.2719,129.4531 214.1625,129.4531 C215.3813,129.4531 216.5375,129.1563 217.2875,128.6094 C217.8656,128.2031 218.1938,127.75 218.1938,127.3594 C218.1938,126.9063 217.8031,126.5156 217.3344,126.5156 C217.1156,126.5156 216.9125,126.5938 216.725,126.7813 C216.2719,127.2656 216.2719,127.2656 216.0844,127.3594 C215.6625,127.625 214.975,127.75 214.2094,127.75 C212.1625,127.75 210.8656,126.6563 210.8656,124.9531 L210.8656,123.8594 C210.8656,122.0781 212.1156,120.7656 213.85,120.7656 C214.4281,120.7656 215.0375,120.9219 215.5063,121.1719 C215.9906,121.4531 216.1625,121.6719 216.2563,122.0781 C216.3188,122.4844 216.35,122.6094 216.4906,122.7344 C216.6313,122.875 216.8656,122.9844 217.0844,122.9844 C217.35,122.9844 217.6156,122.8438 217.7875,122.625 C217.8969,122.4688 217.9281,122.2813 217.9281,121.8594 L217.9281,120.4375 C217.9281,120 217.9125,119.875 217.8188,119.7188 C217.6625,119.4531 217.3813,119.3125 217.0844,119.3125 C216.7875,119.3125 216.5844,119.4063 216.3656,119.7188 L216.1938,119.6406 Z " fill="#000000"/><text fill="#000000" font-family="sans-serif" font-size="12" font-style="italic" lengthAdjust="spacing" textLength="64" x="227.15" y="121.1387">«External»</text><text fill="#000000" font-family="sans-serif" font-size="12" lengthAdjust="spacing" textLength="32" x="243.15" y="135.1074">Entity</text><line style="stroke:#D3D3D3;stroke-width:1.5;" x1="194" x2="297" y1="142.9375" y2="142.9375"/><text fill="#000000" font-family="sans-serif" font-size="11" lengthAdjust="spacing" textLength="93" x="199" y="157.1479">Number startPos</text><text fill="#000000" font-family="sans-serif" font-size="11" lengthAdjust="spacing" textLength="90" x="199" y="169.9526">Number endPos</text><!--MD5=[e981667f5e808050f68287d0ddcdd288]
class TEntityMetaLevelDependency--><rect codeLine="92" fill="#FFFFE0" filter="url(#fpfu62oadn2lb)" height="37.9375" id="TEntityMetaLevelDependency" style="stroke:#D3D3D3;stroke-width:1.5;" width="209" x="141" y="7"/><ellipse cx="156" cy="25.9688" fill="#FFFFE0" rx="11" ry="11" style="stroke:#D3D3D3;stroke-width:1.0;"/><path d="M156.4375,23.5 L158.2813,23.5 L158.2813,25.0938 C158.2813,25.4844 158.3125,25.6563 158.4063,25.7969 C158.5625,26.0469 158.8438,26.2031 159.1406,26.2031 C159.4063,26.2031 159.6563,26.0781 159.8281,25.8594 C159.9688,25.6875 159.9844,25.5625 159.9844,25.0938 L159.9844,21.8125 L151.2188,21.8125 L151.2188,25.0938 C151.2188,25.4844 151.25,25.6563 151.3281,25.7969 C151.4844,26.0625 151.7813,26.2031 152.0625,26.2031 C152.3438,26.2031 152.5938,26.0781 152.7656,25.8594 C152.875,25.6875 152.9063,25.5469 152.9063,25.0938 L152.9063,23.5 L154.7344,23.5 L154.7344,30.0156 L153.625,30.0156 C153.1875,30.0156 153.0625,30.0313 152.9063,30.1406 C152.6563,30.2969 152.5,30.5781 152.5,30.875 C152.5,31.125 152.6406,31.3906 152.8594,31.5469 C153.0156,31.6719 153.2344,31.7188 153.625,31.7188 L157.5625,31.7188 C157.8906,31.7188 158.1563,31.6719 158.2656,31.5938 C158.5313,31.4531 158.6719,31.1563 158.6719,30.875 C158.6719,30.5938 158.5469,30.3438 158.3125,30.1719 C158.1563,30.0469 158.0156,30.0156 157.5625,30.0156 L156.4375,30.0156 L156.4375,23.5 Z " fill="#000000"/><text fill="#000000" font-family="sans-serif" font-size="12" font-style="italic" lengthAdjust="spacing" textLength="64" x="226.5" y="23.1387">«External»</text><text fill="#000000" font-family="sans-serif" font-size="12" lengthAdjust="spacing" textLength="177" x="170" y="37.1074">TEntityMetaLevelDependency</text><!--MD5=[a955ed7e12368632d99bf05e627febcc]
class TSourceEntity--><rect codeLine="93" fill="#FFFFE0" filter="url(#fpfu62oadn2lb)" height="37.9375" id="TSourceEntity" style="stroke:#D3D3D3;stroke-width:1.5;" width="114" x="591.5" y="513"/><ellipse cx="606.5" cy="531.9688" fill="#FFFFE0" rx="11" ry="11" style="stroke:#D3D3D3;stroke-width:1.0;"/><path d="M606.9375,529.5 L608.7813,529.5 L608.7813,531.0938 C608.7813,531.4844 608.8125,531.6563 608.9063,531.7969 C609.0625,532.0469 609.3438,532.2031 609.6406,532.2031 C609.9063,532.2031 610.1563,532.0781 610.3281,531.8594 C610.4688,531.6875 610.4844,531.5625 610.4844,531.0938 L610.4844,527.8125 L601.7188,527.8125 L601.7188,531.0938 C601.7188,531.4844 601.75,531.6563 601.8281,531.7969 C601.9844,532.0625 602.2813,532.2031 602.5625,532.2031 C602.8438,532.2031 603.0938,532.0781 603.2656,531.8594 C603.375,531.6875 603.4063,531.5469 603.4063,531.0938 L603.4063,529.5 L605.2344,529.5 L605.2344,536.0156 L604.125,536.0156 C603.6875,536.0156 603.5625,536.0313 603.4063,536.1406 C603.1563,536.2969 603,536.5781 603,536.875 C603,537.125 603.1406,537.3906 603.3594,537.5469 C603.5156,537.6719 603.7344,537.7188 604.125,537.7188 L608.0625,537.7188 C608.3906,537.7188 608.6563,537.6719 608.7656,537.5938 C609.0313,537.4531 609.1719,537.1563 609.1719,536.875 C609.1719,536.5938 609.0469,536.3438 608.8125,536.1719 C608.6563,536.0469 608.5156,536.0156 608.0625,536.0156 L606.9375,536.0156 L606.9375,529.5 Z " fill="#000000"/><text fill="#000000" font-family="sans-serif" font-size="12" font-style="italic" lengthAdjust="spacing" textLength="64" x="629.5" y="529.1387">«External»</text><text fill="#000000" font-family="sans-serif" font-size="12" lengthAdjust="spacing" textLength="82" x="620.5" y="543.1074">TSourceEntity</text><!--MD5=[b62a3d14250b450b31337c5d96914ef3]
class TWithComments--><rect codeLine="94" fill="#FFFFE0" filter="url(#fpfu62oadn2lb)" height="37.9375" id="TWithComments" style="stroke:#D3D3D3;stroke-width:1.5;" width="129" x="906" y="513"/><ellipse cx="921" cy="531.9688" fill="#FFFFE0" rx="11" ry="11" style="stroke:#D3D3D3;stroke-width:1.0;"/><path d="M921.4375,529.5 L923.2813,529.5 L923.2813,531.0938 C923.2813,531.4844 923.3125,531.6563 923.4063,531.7969 C923.5625,532.0469 923.8438,532.2031 924.1406,532.2031 C924.4063,532.2031 924.6563,532.0781 924.8281,531.8594 C924.9688,531.6875 924.9844,531.5625 924.9844,531.0938 L924.9844,527.8125 L916.2188,527.8125 L916.2188,531.0938 C916.2188,531.4844 916.25,531.6563 916.3281,531.7969 C916.4844,532.0625 916.7813,532.2031 917.0625,532.2031 C917.3438,532.2031 917.5938,532.0781 917.7656,531.8594 C917.875,531.6875 917.9063,531.5469 917.9063,531.0938 L917.9063,529.5 L919.7344,529.5 L919.7344,536.0156 L918.625,536.0156 C918.1875,536.0156 918.0625,536.0313 917.9063,536.1406 C917.6563,536.2969 917.5,536.5781 917.5,536.875 C917.5,537.125 917.6406,537.3906 917.8594,537.5469 C918.0156,537.6719 918.2344,537.7188 918.625,537.7188 L922.5625,537.7188 C922.8906,537.7188 923.1563,537.6719 923.2656,537.5938 C923.5313,537.4531 923.6719,537.1563 923.6719,536.875 C923.6719,536.5938 923.5469,536.3438 923.3125,536.1719 C923.1563,536.0469 923.0156,536.0156 922.5625,536.0156 L921.4375,536.0156 L921.4375,529.5 Z " fill="#000000"/><text fill="#000000" font-family="sans-serif" font-size="12" font-style="italic" lengthAdjust="spacing" textLength="64" x="951.5" y="529.1387">«External»</text><text fill="#000000" font-family="sans-serif" font-size="12" lengthAdjust="spacing" textLength="97" x="935" y="543.1074">TWithComments</text><!--MD5=[5dfbfa02edd09e25b5878b34167ebe67]
class TNamedEntity--><rect codeLine="95" fill="#FFFFE0" filter="url(#fpfu62oadn2lb)" height="37.9375" id="TNamedEntity" style="stroke:#D3D3D3;stroke-width:1.5;" width="113" x="443" y="513"/><ellipse cx="458" cy="531.9688" fill="#FFFFE0" rx="11" ry="11" style="stroke:#D3D3D3;stroke-width:1.0;"/><path d="M458.4375,529.5 L460.2813,529.5 L460.2813,531.0938 C460.2813,531.4844 460.3125,531.6563 460.4063,531.7969 C460.5625,532.0469 460.8438,532.2031 461.1406,532.2031 C461.4063,532.2031 461.6563,532.0781 461.8281,531.8594 C461.9688,531.6875 461.9844,531.5625 461.9844,531.0938 L461.9844,527.8125 L453.2188,527.8125 L453.2188,531.0938 C453.2188,531.4844 453.25,531.6563 453.3281,531.7969 C453.4844,532.0625 453.7813,532.2031 454.0625,532.2031 C454.3438,532.2031 454.5938,532.0781 454.7656,531.8594 C454.875,531.6875 454.9063,531.5469 454.9063,531.0938 L454.9063,529.5 L456.7344,529.5 L456.7344,536.0156 L455.625,536.0156 C455.1875,536.0156 455.0625,536.0313 454.9063,536.1406 C454.6563,536.2969 454.5,536.5781 454.5,536.875 C454.5,537.125 454.6406,537.3906 454.8594,537.5469 C455.0156,537.6719 455.2344,537.7188 455.625,537.7188 L459.5625,537.7188 C459.8906,537.7188 460.1563,537.6719 460.2656,537.5938 C460.5313,537.4531 460.6719,537.1563 460.6719,536.875 C460.6719,536.5938 460.5469,536.3438 460.3125,536.1719 C460.1563,536.0469 460.0156,536.0156 459.5625,536.0156 L458.4375,536.0156 L458.4375,529.5 Z " fill="#000000"/><text fill="#000000" font-family="sans-serif" font-size="12" font-style="italic" lengthAdjust="spacing" textLength="64" x="480.5" y="529.1387">«External»</text><text fill="#000000" font-family="sans-serif" font-size="12" lengthAdjust="spacing" textLength="81" x="472" y="543.1074">TNamedEntity</text><!--MD5=[7e20e022571e30ec1001cf6eabd7f3e2]
class Model--><!--MD5=[aacfff4ed32c286466fddb9b020fa6b0]
reverse link Literal to StringLiteral--><path codeLine="55" d="M227.431,664.537 C184.592,683.4199 128.154,708.2974 92.5896,723.9737 " fill="none" id="Literal-backto-StringLiteral" style="stroke:#000000;stroke-width:1.0;"/><polygon fill="none" points="224.614,658.129,245.738,656.4674,230.261,670.9397,224.614,658.129" style="stroke:#000000;stroke-width:1.0;"/><!--MD5=[4b374345ea4e71c0eeb059ce073bc6fc]
reverse link Statement to ExpressionStatement--><path codeLine="56" d="M437.064,375.767 C422.087,390.912 404.529,408.667 392.375,420.958 " fill="none" id="Statement-backto-ExpressionStatement" style="stroke:#000000;stroke-width:1.0;"/><polygon fill="none" points="432.362,370.566,451.402,361.267,442.317,380.41,432.362,370.566" style="stroke:#000000;stroke-width:1.0;"/><!--MD5=[618bfcff518362e637c0d4a59c61f9f1]
reverse link Statement to ReturnStatement--><path codeLine="57" d="M402.322,367.393 C352.893,383.869 285.794,406.235 241.839,420.887 " fill="none" id="Statement-backto-ReturnStatement" style="stroke:#000000;stroke-width:1.0;"/><polygon fill="none" points="400.121,360.748,421.308,361.064,404.548,374.029,400.121,360.748" style="stroke:#000000;stroke-width:1.0;"/><!--MD5=[d0bf6018c8c71bb6f8e7f8bfa9cd0ce8]
reverse link Expression to VariableExpression--><path codeLine="58" d="M355.72,546.097 C459.07,565.653 652.905,602.329 759.157,622.433 " fill="none" id="Expression-backto-VariableExpression" style="stroke:#000000;stroke-width:1.0;"/><polygon fill="none" points="354.357,552.964,336.007,542.367,356.96,539.208,354.357,552.964" style="stroke:#000000;stroke-width:1.0;"/><!--MD5=[6fac83369a990ef6257ffbc87cf5a0dc]
reverse link TParameter to VariableExpression--><path codeLine="59" d="M972.563,168.877 C1018.78,203.452 1088.5,268.169 1088.5,344 C1088.5,344 1088.5,344 1088.5,438 C1088.5,490.709 1088.56,512.559 1052.5,551 C1014.52,591.483 955.087,613.083 907.713,624.438 " fill="none" id="TParameter-backto-VariableExpression" style="stroke:#000000;stroke-width:1.0;stroke-dasharray:7.0,7.0;"/><polygon fill="none" points="968.369,174.484,956.193,157.142,976.526,163.106,968.369,174.484" style="stroke:#000000;stroke-width:1.0;"/><!--MD5=[07dd6ad0b101a0678c45e791d084203c]
reverse link TEntityMetaLevelDependency to VariableExpression--><path codeLine="60" d="M370.191,30.44 C554.645,37.116 890.199,55.785 999.5,105 C1087.55,144.648 1159.5,155.433 1159.5,252 C1159.5,252 1159.5,252 1159.5,438 C1159.5,555.121 1004.098,605.138 907.882,624.881 " fill="none" id="TEntityMetaLevelDependency-backto-VariableExpression" style="stroke:#000000;stroke-width:1.0;stroke-dasharray:7.0,7.0;"/><polygon fill="none" points="369.847,37.433,350.104,29.739,370.336,23.441,369.847,37.433" style="stroke:#000000;stroke-width:1.0;"/><!--MD5=[123afe18b3981ec504c9c8422c6a611c]
reverse link TSourceEntity to VariableExpression--><path codeLine="61" d="M698.313,560.868 C733.078,580.318 778.147,605.532 806.451,621.367 " fill="none" id="TSourceEntity-backto-VariableExpression" style="stroke:#000000;stroke-width:1.0;stroke-dasharray:7.0,7.0;"/><polygon fill="none" points="694.761,566.902,680.725,551.028,701.596,554.684,694.761,566.902" style="stroke:#000000;stroke-width:1.0;"/><!--MD5=[f2ab68a57211227b15cf42fa9a3db14d]
reverse link TWithComments to VariableExpression--><path codeLine="62" d="M930.37,563.317 C905.12,582.393 873.622,606.189 853.531,621.367 " fill="none" id="TWithComments-backto-VariableExpression" style="stroke:#000000;stroke-width:1.0;stroke-dasharray:7.0,7.0;"/><polygon fill="none" points="926.459,557.499,946.636,551.028,934.898,568.669,926.459,557.499" style="stroke:#000000;stroke-width:1.0;"/><!--MD5=[dc193692d47a6132a3dc8a899a873455]
reverse link TNamedEntity to VariableExpression--><path codeLine="63" d="M575.634,556.592 C639.937,576.519 730.082,604.453 784.988,621.467 " fill="none" id="TNamedEntity-backto-VariableExpression" style="stroke:#000000;stroke-width:1.0;stroke-dasharray:7.0,7.0;"/><polygon fill="none" points="573.19,563.164,556.159,550.557,577.334,549.791,573.19,563.164" style="stroke:#000000;stroke-width:1.0;"/><!--MD5=[d2faeef4f309a641166661f99aae66a4]
reverse link Model to FASTModel--><!--MD5=[962b9c712b538c28d4d6aa1fb77e906f]
reverse link Expression to Literal--><path codeLine="65" d="M286.5,568.309 C286.5,582.224 286.5,597.909 286.5,610.725 " fill="none" id="Expression-backto-Literal" style="stroke:#000000;stroke-width:1.0;"/><polygon fill="none" points="279.5,568.272,286.5,548.272,293.5,568.272,279.5,568.272" style="stroke:#000000;stroke-width:1.0;"/><!--MD5=[8daf9c49332ab5231d4a649f5feaba69]
reverse link Literal to CharacterLiteral--><path codeLine="66" d="M254.176,680.1477 C242.194,695.5864 229.345,712.1416 220.337,723.7482 " fill="none" id="Literal-backto-CharacterLiteral" style="stroke:#000000;stroke-width:1.0;"/><polygon fill="none" points="248.823,675.6283,266.615,664.1204,259.883,684.2121,248.823,675.6283" style="stroke:#000000;stroke-width:1.0;"/><!--MD5=[5abd3c627c6d4e2a6542a76f8c0d54be]
reverse link Entity to Expression--><path codeLine="67" d="M195.722,191.758 C138.275,255.422 58.3643,367.66 113.5,453 C140.497,494.786 195.836,514.415 236.689,523.488 " fill="none" id="Entity-backto-Expression" style="stroke:#000000;stroke-width:1.0;"/><polygon fill="none" points="190.647,186.936,209.386,177.043,200.906,196.462,190.647,186.936" style="stroke:#000000;stroke-width:1.0;"/><!--MD5=[fba8b9523cba9e3bdc1c313f8eb17729]
reverse link TArgument to Expression--><path codeLine="68" d="M634.201,453.272 C511.466,480.467 478.325,486.915 363.5,513 C354.664,515.007 345.267,517.176 336.184,519.289 " fill="none" id="TArgument-backto-Expression" style="stroke:#000000;stroke-width:1.0;stroke-dasharray:7.0,7.0;"/><polygon fill="none" points="632.792,446.414,653.834,448.914,635.826,460.081,632.792,446.414" style="stroke:#000000;stroke-width:1.0;"/><!--MD5=[2b5df68bc91adf7a22e654a78af59dd7]
reverse link BehaviouralEntity to NamedBehaviouralEntity--><path codeLine="69" d="M714.719,370.271 C752.839,391.269 793.783,422.91 768.5,453 C668.942,571.485 525.058,394.515 425.5,513 C395.753,548.403 447.645,597.133 478.717,621.44 " fill="none" id="BehaviouralEntity-backto-NamedBehaviouralEntity" style="stroke:#000000;stroke-width:1.0;"/><polygon fill="none" points="711.361,376.415,696.815,361.007,717.795,363.981,711.361,376.415" style="stroke:#000000;stroke-width:1.0;"/><!--MD5=[e4bc668e0ed12205c7f518a333d3855f]
reverse link TWithComments to NamedBehaviouralEntity--><path codeLine="70" d="M886.297,551.503 C795.308,571.498 652.063,602.975 567.799,621.492 " fill="none" id="TWithComments-backto-NamedBehaviouralEntity" style="stroke:#000000;stroke-width:1.0;stroke-dasharray:7.0,7.0;"/><polygon fill="none" points="884.961,544.63,905.997,547.174,887.966,558.304,884.961,544.63" style="stroke:#000000;stroke-width:1.0;"/><!--MD5=[bb948ba0d70104c7c7d50d212ffaa5bb]
reverse link TEntityMetaLevelDependency to NamedBehaviouralEntity--><path codeLine="71" d="M181.746,53.783 C110.946,88.298 6.5,155.558 6.5,252 C6.5,252 6.5,252 6.5,438 C6.5,525.943 279.855,592.979 419.469,621.482 " fill="none" id="TEntityMetaLevelDependency-backto-NamedBehaviouralEntity" style="stroke:#000000;stroke-width:1.0;stroke-dasharray:7.0,7.0;"/><polygon fill="none" points="179.183,47.254,200.265,45.119,185.116,59.935,179.183,47.254" style="stroke:#000000;stroke-width:1.0;"/><!--MD5=[509a3d79f043b987aabb4c27d838f494]
reverse link TNamedEntity to NamedBehaviouralEntity--><path codeLine="72" d="M499.5,571.245 C499.5,588.644 499.5,608.232 499.5,621.367 " fill="none" id="TNamedEntity-backto-NamedBehaviouralEntity" style="stroke:#000000;stroke-width:1.0;stroke-dasharray:7.0,7.0;"/><polygon fill="none" points="492.5,571.028,499.5,551.028,506.5,571.028,492.5,571.028" style="stroke:#000000;stroke-width:1.0;"/><!--MD5=[5e16999f40a0d7f038906dea8be8b07e]
reverse link TSourceEntity to NamedBehaviouralEntity--><path codeLine="73" d="M606.039,562.495 C578.384,581.705 543.451,605.97 521.286,621.367 " fill="none" id="TSourceEntity-backto-NamedBehaviouralEntity" style="stroke:#000000;stroke-width:1.0;stroke-dasharray:7.0,7.0;"/><polygon fill="none" points="602.127,556.689,622.546,551.028,610.114,568.187,602.127,556.689" style="stroke:#000000;stroke-width:1.0;"/><!--MD5=[0bb58e2e663bd8f52cbb3a64f7f519e2]
reverse link Literal to BooleanLiteral--><path codeLine="74" d="M319.238,680.1477 C331.374,695.5864 344.387,712.1416 353.511,723.7482 " fill="none" id="Literal-backto-BooleanLiteral" style="stroke:#000000;stroke-width:1.0;"/><polygon fill="none" points="313.496,684.1701,306.639,664.1204,324.503,675.5181,313.496,684.1701" style="stroke:#000000;stroke-width:1.0;"/><!--MD5=[637843bd482861e7e78f29a556729817]
reverse link ScopableEntity to Statement--><path codeLine="75" d="M466.5,289.615 C466.5,303.31 466.5,318.22 466.5,328.958 " fill="none" id="ScopableEntity-backto-Statement" style="stroke:#000000;stroke-width:1.0;"/><polygon fill="none" points="459.5,289.267,466.5,269.267,473.5,289.267,459.5,289.267" style="stroke:#000000;stroke-width:1.0;"/><!--MD5=[2eea7b38a6746a43dd747f50ebba5361]
reverse link Entity to ScopableEntity--><path codeLine="76" d="M316.12,177.15 C356.699,197.348 405.564,221.67 436.338,236.987 " fill="none" id="Entity-backto-ScopableEntity" style="stroke:#000000;stroke-width:1.0;"/><polygon fill="none" points="312.94,183.387,298.154,168.208,319.178,170.853,312.94,183.387" style="stroke:#000000;stroke-width:1.0;"/><!--MD5=[c1b130a44cb2896fccd675b935fd9657]
reverse link Statement to StatementBlock--><path codeLine="77" d="M484.723,376.727 C498.218,391.657 516.082,408.926 530.824,420.958 " fill="none" id="Statement-backto-StatementBlock" style="stroke:#000000;stroke-width:1.0;"/><polygon fill="none" points="479.243,381.085,471.743,361.267,489.965,372.083,479.243,381.085" style="stroke:#000000;stroke-width:1.0;"/><!--MD5=[d48cd686c6f78e0f1b641c76cca0eddb]
link Statement to StatementBlock--><path codeLine="87" d="M491.78,361.064 C508.501,374.562 528.989,394.638 542.684,410.613 " fill="none" id="Statement-to-StatementBlock" style="stroke:#000000;stroke-width:1.0;"/><polygon fill="#FFFFFF" points="550.951,420.887,550.306,413.7048,543.4282,411.5378,544.0732,418.72,550.951,420.887" style="stroke:#000000;stroke-width:1.0;"/><text fill="#000000" font-family="sans-serif" font-size="13" lengthAdjust="spacing" textLength="81" x="405.0759" y="380.9585">*statements</text><text fill="#000000" font-family="sans-serif" font-size="13" lengthAdjust="spacing" textLength="129" x="459.4029" y="409.8598">statementContainer</text><!--MD5=[8c63cad399efb7b90c466e041f74dd65]
reverse link ScopableEntity to BehaviouralEntity--><path codeLine="78" d="M517.689,277.505 C553.044,293.74 599.024,314.853 629.587,328.887 " fill="none" id="ScopableEntity-backto-BehaviouralEntity" style="stroke:#000000;stroke-width:1.0;"/><polygon fill="none" points="514.56,283.771,499.306,269.064,520.403,271.048,514.56,283.771" style="stroke:#000000;stroke-width:1.0;"/><!--MD5=[6cf32f0474f3ee3a544d8cefdd32e636]
reverse link TWithParameters to BehaviouralEntity--><path codeLine="79" d="M832.007,276.497 C790.926,292.857 736.426,314.56 700.451,328.887 " fill="none" id="TWithParameters-backto-BehaviouralEntity" style="stroke:#000000;stroke-width:1.0;stroke-dasharray:7.0,7.0;"/><polygon fill="none" points="829.502,269.96,850.673,269.064,834.682,282.967,829.502,269.96" style="stroke:#000000;stroke-width:1.0;"/><!--MD5=[eb7e849ed50d643354699c00b7c94cc6]
reverse link Literal to NullPointerLiteral--><path codeLine="80" d="M345.645,663.475 C390.559,682.441 450.855,707.9019 488.693,723.8798 " fill="none" id="Literal-backto-NullPointerLiteral" style="stroke:#000000;stroke-width:1.0;"/><polygon fill="none" points="342.845,669.8912,327.143,655.662,348.291,656.994,342.845,669.8912" style="stroke:#000000;stroke-width:1.0;"/><!--MD5=[35575750c80c8907855725a064603ab0]
reverse link Entity to Entity--><path codeLine="81" d="M317.892,122.702 C327.002,125.923 333,132.022 333,141 C333,155.547 317.255,162.536 298.035,161.968 " fill="none" id="Entity-backto-Entity" style="stroke:#000000;stroke-width:1.0;"/><polygon fill="none" points="316.924,129.635,298.035,120.032,318.79,115.76,316.924,129.635" style="stroke:#000000;stroke-width:1.0;"/><!--MD5=[7593613c6572d5fc3da6bdf15d5c79b5]
reverse link TEntityMetaLevelDependency to Entity--><path codeLine="82" d="M245.5,65.299 C245.5,78.001 245.5,92.078 245.5,104.556 " fill="none" id="TEntityMetaLevelDependency-backto-Entity" style="stroke:#000000;stroke-width:1.0;stroke-dasharray:7.0,7.0;"/><polygon fill="none" points="238.5,65.155,245.5,45.155,252.5,65.155,238.5,65.155" style="stroke:#000000;stroke-width:1.0;"/><!--MD5=[cb8df788b7b34131c85f7f9187538208]
reverse link ExpressionStatement to Expression--><path codeLine="84" d="M353.373,462.657 C336.799,479.595 315.329,501.537 301.247,515.929 " fill="none" id="ExpressionStatement-backto-Expression" style="stroke:#000000;stroke-width:1.0;"/><polygon fill="#FFFFFF" points="362.473,453.357,355.4177,454.8481,354.0805,461.9341,361.1358,460.443,362.473,453.357" style="stroke:#000000;stroke-width:1.0;"/><text fill="#000000" font-family="sans-serif" font-size="13" lengthAdjust="spacing" textLength="180" x="149.062" y="473.0988">expressionStatementOwner</text><text fill="#000000" font-family="sans-serif" font-size="13" lengthAdjust="spacing" textLength="70" x="224.285" y="504.9162">expression</text><!--MD5=[aac366a2462370f7c495fef5b4650854]
reverse link ReturnStatement to Expression--><path codeLine="85" d="M220.822,463.133 C237.15,480.005 258.118,501.672 271.915,515.929 " fill="none" id="ReturnStatement-backto-Expression" style="stroke:#000000;stroke-width:1.0;"/><polygon fill="#FFFFFF" points="211.362,453.357,212.6601,460.4503,219.707,461.9803,218.4089,454.887,211.362,453.357" style="stroke:#000000;stroke-width:1.0;"/><text fill="#000000" font-family="sans-serif" font-size="13" lengthAdjust="spacing" textLength="81" x="122.1899" y="473.0495">returnOwner</text><text fill="#000000" font-family="sans-serif" font-size="13" lengthAdjust="spacing" textLength="70" x="278.9327" y="504.9162">expression</text><!--MD5=[06d1e7a4b8289d6e794f271b8bf15ac9]
link TArgument to TWithArguments--><path codeLine="86" d="M719.508,453.357 C735.707,467.983 760.332,490.217 779.085,507.149 " fill="none" id="TArgument-to-TWithArguments" style="stroke:#000000;stroke-width:1.0;"/><polygon fill="#FFFFFF" points="788.808,515.929,787.0352,508.9392,779.9012,507.8873,781.674,514.8771,788.808,515.929" style="stroke:#000000;stroke-width:1.0;"/><text fill="#000000" font-family="sans-serif" font-size="13" lengthAdjust="spacing" textLength="77" x="635.0199" y="473.0495">*arguments</text><text fill="#000000" font-family="sans-serif" font-size="13" lengthAdjust="spacing" textLength="105" x="792.8987" y="502.6976">argumentOwner</text><!--MD5=[d1881b62c24eb21ca81021830d1d9318]
link TParameter to TWithParameters--><path codeLine="88" d="M926.382,157.295 C919.421,174.699 907.916,203.46 899.409,224.729 " fill="none" id="TParameter-to-TWithParameters" style="stroke:#000000;stroke-width:1.0;"/><polygon fill="#FFFFFF" points="894.566,236.835,900.5084,232.7499,899.0231,225.6935,893.0807,229.7785,894.566,236.835" style="stroke:#000000;stroke-width:1.0;"/><text fill="#000000" font-family="sans-serif" font-size="13" lengthAdjust="spacing" textLength="82" x="828.7256" y="176.9677">*parameters</text><text fill="#000000" font-family="sans-serif" font-size="13" lengthAdjust="spacing" textLength="110" x="767.7449" y="225.7899">parameterOwner</text><!--MD5=[817e2a4e6d586f18814f93d19cf2c518]
reverse link BehaviouralEntity to StatementBlock--><path codeLine="89" d="M634.304,369.717 C615.004,385.95 589.996,406.985 573.383,420.958 " fill="none" id="BehaviouralEntity-backto-StatementBlock" style="stroke:#000000;stroke-width:1.0;"/><polygon fill="#FFFFFF" points="644.349,361.267,637.1826,362.0683,635.1659,368.9917,642.3323,368.1904,644.349,361.267" style="stroke:#000000;stroke-width:1.0;"/><text fill="#000000" font-family="sans-serif" font-size="13" lengthAdjust="spacing" textLength="142" x="511.6442" y="381.0088">fastBehaviouralParent</text><text fill="#000000" font-family="sans-serif" font-size="13" lengthAdjust="spacing" textLength="100" x="546.2501" y="409.9059">statementBlock</text><!--MD5=[698507e7a775b98fa208002993b71599]
@startuml
hide empty members

skinparam class {
  BackgroundColor white
  ArrowColor black
  BorderColor darkGray
  BackgroundColor<<External>> LightYellow
  BorderColor<<External>> LightGray
}

class StringLiteral << (C,white) >> {
}
class ExpressionStatement << (C,white) >> {
}
class ReturnStatement << (C,white) >> {
}
class TWithParameters << (T,lightGrey) >> {
}
class VariableExpression << (C,white) >> {
}
class FASTModel << (C,white) >> {
}
class TWithArguments << (T,lightGrey) >> {
}
class Literal << (C,white) >> {
  String value
}
class CharacterLiteral << (C,white) >> {
}
class Expression << (C,white) >> {
}
class NamedBehaviouralEntity << (C,white) >> {
}
class TArgument << (T,lightGrey) >> {
}
class BooleanLiteral << (C,white) >> {
}
class Statement << (C,white) >> {
}
class ScopableEntity << (C,white) >> {
}
class TParameter << (T,lightGrey) >> {
}
class StatementBlock << (C,white) >> {
}
class BehaviouralEntity << (C,white) >> {
}
class NullPointerLiteral << (C,white) >> {
}
class Entity << (C,white) >> {
  Number startPos
  Number endPos
}

Literal <|- - StringLiteral
Statement <|- - ExpressionStatement
Statement <|- - ReturnStatement
Expression <|- - VariableExpression
TParameter <|.. VariableExpression
TEntityMetaLevelDependency <|.. VariableExpression
TSourceEntity <|.. VariableExpression
TWithComments <|.. VariableExpression
TNamedEntity <|.. VariableExpression
Model <|- - FASTModel
Expression <|- - Literal
Literal <|- - CharacterLiteral
Entity <|- - Expression
TArgument <|.. Expression
BehaviouralEntity <|- - NamedBehaviouralEntity
TWithComments <|.. NamedBehaviouralEntity
TEntityMetaLevelDependency <|.. NamedBehaviouralEntity
TNamedEntity <|.. NamedBehaviouralEntity
TSourceEntity <|.. NamedBehaviouralEntity
Literal <|- - BooleanLiteral
ScopableEntity <|- - Statement
Entity <|- - ScopableEntity
Statement <|- - StatementBlock
ScopableEntity <|- - BehaviouralEntity
TWithParameters <|.. BehaviouralEntity
Literal <|- - NullPointerLiteral
Entity <|- - Entity
TEntityMetaLevelDependency <|.. Entity

ExpressionStatement "expressionStatementOwner" o- - "expression" Expression
ReturnStatement "returnOwner" o- - "expression" Expression
TArgument " *arguments" - -o "argumentOwner" TWithArguments
Statement " *statements" - -o "statementContainer" StatementBlock
TParameter " *parameters" - -o "parameterOwner" TWithParameters
BehaviouralEntity "fastBehaviouralParent" o- - "statementBlock" StatementBlock

class Entity <<(C,LightYellow)External>>
class TEntityMetaLevelDependency <<(T,LightYellow)External>>
class TSourceEntity <<(T,LightYellow)External>>
class TWithComments <<(T,LightYellow)External>>
class TNamedEntity <<(T,LightYellow)External>>
class Model <<(C,LightYellow)External>>

hide FASTModel
hide Model
@enduml

PlantUML version 1.2021.7(Sun May 23 12:40:07 UTC 2021)
(GPL source distribution)
Java Runtime: Java(TM) SE Runtime Environment
JVM: Java HotSpot(TM) 64-Bit Server VM
Default Encoding: UTF-8
Language: en
Country: US
--></g></svg>