<?xml version="1.0" encoding="UTF-8" standalone="no"?>
<svg
   version="1.1"
   viewBox="0 0 547.2782 120.49999"
   fill="none"
   stroke="none"
   stroke-linecap="square"
   stroke-miterlimit="10"
   id="svg69"
   sodipodi:docname="general-flow.svg"
   width="547.2782"
   height="120.49999"
   inkscape:version="1.4.2 (2aeb623e1d, 2025-05-12)"
   inkscape:export-filename="../f0efa72a/general-flow.png"
   inkscape:export-xdpi="96"
   inkscape:export-ydpi="96"
   xmlns:inkscape="http://www.inkscape.org/namespaces/inkscape"
   xmlns:sodipodi="http://sodipodi.sourceforge.net/DTD/sodipodi-0.dtd"
   xmlns="http://www.w3.org/2000/svg"
   xmlns:svg="http://www.w3.org/2000/svg"
   xmlns:rdf="http://www.w3.org/1999/02/22-rdf-syntax-ns#"
   xmlns:cc="http://creativecommons.org/ns#"
   xmlns:dc="http://purl.org/dc/elements/1.1/">
  <metadata
     id="metadata75">
    <rdf:RDF>
      <cc:Work
         rdf:about="">
        <dc:format>image/svg+xml</dc:format>
        <dc:type
           rdf:resource="http://purl.org/dc/dcmitype/StillImage" />
        <dc:title />
      </cc:Work>
    </rdf:RDF>
  </metadata>
  <defs
     id="defs73" />
  <sodipodi:namedview
     pagecolor="#ffffff"
     bordercolor="#666666"
     borderopacity="1"
     objecttolerance="10"
     gridtolerance="10"
     guidetolerance="10"
     inkscape:pageopacity="0"
     inkscape:pageshadow="2"
     inkscape:window-width="1920"
     inkscape:window-height="1011"
     id="namedview71"
     showgrid="false"
     fit-margin-top="0"
     fit-margin-left="0"
     fit-margin-right="0"
     fit-margin-bottom="0"
     inkscape:zoom="1.5260417"
     inkscape:cx="274.06324"
     inkscape:cy="241.63039"
     inkscape:window-x="0"
     inkscape:window-y="0"
     inkscape:window-maximized="1"
     inkscape:current-layer="svg69"
     inkscape:showpageshadow="2"
     inkscape:pagecheckerboard="0"
     inkscape:deskcolor="#d1d1d1"
     inkscape:export-bgcolor="#ffffffff" />
  <clipPath
     id="p.0">
    <path
       d="M 0,0 H 960 V 540 H 0 Z"
       clip-rule="nonzero"
       id="path2" />
  </clipPath>
  <path
     fill="#000000"
     fill-opacity="0"
     d="m 13.637796,48.268 v 0 c 0,-7.923485 6.423256,-14.346741 14.346741,-14.346741 H 132.01545 c 3.80499,0 7.45415,1.511528 10.14468,4.202064 2.69054,2.690537 4.20206,6.339688 4.20206,10.144677 v 57.38525 c 0,7.92349 -6.42325,14.34674 -14.34674,14.34674 H 27.984537 c -7.923485,0 -14.346741,-6.42325 -14.346741,-14.34674 z"
     fill-rule="evenodd"
     id="path7" />
  <path
     stroke="#595959"
     stroke-width="1"
     stroke-linejoin="round"
     stroke-linecap="butt"
     d="m 23.637796,44.268 v 0 c 0,-7.923485 6.423256,-14.346741 14.346741,-14.346741 H 142.01545 c 3.80499,0 7.45415,1.511528 10.14468,4.202064 2.69054,2.690537 4.20206,6.339688 4.20206,10.144677 v 57.38525 c 0,7.92349 -6.42325,14.34674 -14.34674,14.34674 H 37.984537 c -7.923485,0 -14.346741,-6.42325 -14.346741,-14.34674 z"
     fill-rule="evenodd"
     id="path9" />
  <path
     fill="#eeeeee"
     d="m 42.425196,39.619421 h 23.653538 v 21.82677 H 42.425196 Z"
     fill-rule="evenodd"
     id="path11" />
  <path
     stroke="#595959"
     stroke-width="1"
     stroke-linejoin="round"
     stroke-linecap="butt"
     d="m 42.425196,39.619421 h 23.653538 v 21.82677 H 42.425196 Z"
     fill-rule="evenodd"
     id="path13" />
  <path
     fill="#eeeeee"
     d="M 42.425196,82.892383 H 66.078734 V 104.71915 H 42.425196 Z"
     fill-rule="evenodd"
     id="path15" />
  <path
     stroke="#595959"
     stroke-width="1"
     stroke-linejoin="round"
     stroke-linecap="butt"
     d="M 42.425196,82.892383 H 66.078734 V 104.71915 H 42.425196 Z"
     fill-rule="evenodd"
     id="path17" />
  <path
     fill="#eeeeee"
     d="M 116.24147,82.892383 H 139.895 v 21.826767 h -23.65353 z"
     fill-rule="evenodd"
     id="path19" />
  <path
     stroke="#595959"
     stroke-width="1"
     stroke-linejoin="round"
     stroke-linecap="butt"
     d="M 116.24147,82.892383 H 139.895 v 21.826767 h -23.65353 z"
     fill-rule="evenodd"
     id="path21" />
  <path
     fill="#000000"
     fill-opacity="0"
     d="M 54.251971,61.446194 V 82.895013"
     fill-rule="evenodd"
     id="path23" />
  <path
     stroke="#595959"
     stroke-width="1"
     stroke-linejoin="round"
     stroke-linecap="butt"
     d="M 54.251971,61.446194 V 82.895013"
     fill-rule="evenodd"
     id="path25" />
  <path
     fill="#000000"
     fill-opacity="0"
     d="M 66.078734,93.805773 H 116.25196"
     fill-rule="evenodd"
     id="path27" />
  <path
     stroke="#595959"
     stroke-width="1"
     stroke-linejoin="round"
     stroke-linecap="butt"
     d="M 66.078734,93.805773 H 116.25196"
     fill-rule="evenodd"
     id="path29" />
  <path
     fill="#000000"
     fill-opacity="0"
     d="M 0,0 H 159.99999 V 33.921257 H 0 Z"
     fill-rule="evenodd"
     id="path31" />
  <path
     fill="#000000"
     d="m 16.296873,19.394998 q -0.4375,0.625 -1.21875,0.9375 -0.78125,0.3125 -1.8125,0.3125 -1.03125,0 -1.84375,-0.484375 -0.8125,-0.5 -1.25,-1.40625 -0.4375,-0.90625 -0.453125,-2.09375 v -0.734375 q 0,-1.937498 0.890625,-2.999998 0.90625,-1.0625 2.53125,-1.0625 1.34375,0 2.15625,0.6875 0.8125,0.6875 1,1.937498 h -1.125 q -0.328125,-1.687498 -2.015625,-1.687498 -1.140625,0 -1.71875,0.796875 -0.578125,0.78125 -0.59375,2.296873 v 0.6875 q 0,1.4375 0.65625,2.296875 0.65625,0.84375 1.78125,0.84375 0.625,0 1.09375,-0.140625 0.484375,-0.140625 0.796875,-0.484375 v -1.90625 h -1.96875 v -0.921875 h 3.09375 z m 4.767578,-4.25 q -0.25,-0.03125 -0.53125,-0.03125 -1.078125,0 -1.453125,0.90625 v 4.5 H 18.001951 V 14.17625 h 1.046875 l 0.01563,0.734373 q 0.53125,-0.843748 1.515625,-0.843748 0.3125,0 0.484375,0.07813 z m 4.669922,5.375 q -0.09375,-0.1875 -0.15625,-0.671875 -0.75,0.796875 -1.796875,0.796875 -0.9375,0 -1.546875,-0.53125 -0.59375,-0.53125 -0.59375,-1.359375 0,-0.984375 0.75,-1.53125 0.75,-0.546875 2.125,-0.546875 h 1.046875 v -0.5 q 0,-0.5625 -0.34375,-0.890625 -0.328125,-0.34375 -1,-0.34375 -0.578125,0 -0.96875,0.296875 -0.390625,0.28125 -0.390625,0.703125 h -1.09375 q 0,-0.484375 0.328125,-0.921875 0.34375,-0.4375 0.921875,-0.687498 0.578125,-0.265625 1.265625,-0.265625 1.109375,0 1.71875,0.546873 0.625,0.546875 0.65625,1.5 v 2.921875 q 0,0.875 0.21875,1.390625 v 0.09375 z m -1.796875,-0.828125 q 0.515625,0 0.96875,-0.265625 0.453125,-0.265625 0.65625,-0.6875 v -1.296875 h -0.84375 q -2,0 -2,1.171875 0,0.5 0.34375,0.796875 0.34375,0.28125 0.875,0.28125 z m 9.761723,-2.265625 q 0,1.4375 -0.65625,2.328125 -0.656254,0.890625 -1.796879,0.890625 -1.15625,0 -1.8125,-0.734375 v 3.046875 H 28.355467 V 14.17625 h 0.984375 l 0.04687,0.703123 q 0.671875,-0.812498 1.84375,-0.812498 1.140625,0 1.796879,0.859373 0.671875,0.859375 0.671875,2.390625 z m -1.078129,-0.125 q 0,-1.078125 -0.46875,-1.6875 -0.453125,-0.625 -1.25,-0.625 -0.984375,0 -1.46875,0.859375 v 3.03125 q 0.484375,0.875 1.484375,0.875 0.78125,0 1.234375,-0.609375 0.46875,-0.625 0.46875,-1.84375 z m 3.544926,-2.359375 q 0.71875,-0.874998 1.875,-0.874998 2.015625,0 2.03125,2.265623 v 4.1875 h -1.09375 v -4.203125 q 0,-0.671875 -0.3125,-1 -0.296875,-0.328125 -0.953125,-0.328125 -0.53125,0 -0.9375,0.28125 -0.390625,0.28125 -0.609375,0.734375 v 4.515625 H 35.087893 V 11.52 h 1.078125 z m 6.703125,5.578125 H 41.791018 V 14.17625 h 1.078125 z m -1.171875,-8.015623 q 0,-0.265625 0.15625,-0.453125 0.171875,-0.1875 0.484375,-0.1875 0.3125,0 0.46875,0.1875 0.171875,0.1875 0.171875,0.453125 0,0.25 -0.171875,0.4375 -0.15625,0.171875 -0.46875,0.171875 -0.3125,0 -0.484375,-0.171875 -0.15625,-0.1875 -0.15625,-0.4375 z m 5.443359,7.249998 q 0.578125,0 1.015625,-0.34375 0.4375,-0.359375 0.484375,-0.890625 h 1.03125 q -0.03125,0.546875 -0.390625,1.046875 -0.34375,0.484375 -0.921875,0.78125 -0.5625,0.296875 -1.21875,0.296875 -1.296875,0 -2.0625,-0.859375 -0.75,-0.875 -0.75,-2.375 v -0.1875 q 0,-0.921875 0.328125,-1.640625 0.34375,-0.71875 0.96875,-1.109375 0.640625,-0.406248 1.515625,-0.406248 1.0625,0 1.765625,0.640623 0.71875,0.625 0.765625,1.65625 h -1.03125 q -0.04687,-0.625 -0.46875,-1.015625 -0.421875,-0.390625 -1.03125,-0.390625 -0.828125,0 -1.28125,0.59375 -0.453125,0.59375 -0.453125,1.71875 v 0.203125 q 0,1.09375 0.453125,1.6875 0.453125,0.59375 1.28125,0.59375 z m 7.656247,0.765625 q -0.0937,-0.1875 -0.15625,-0.671875 -0.749997,0.796875 -1.796872,0.796875 -0.9375,0 -1.546875,-0.53125 -0.59375,-0.53125 -0.59375,-1.359375 0,-0.984375 0.75,-1.53125 0.75,-0.546875 2.125,-0.546875 h 1.046877 v -0.5 q 0,-0.5625 -0.343752,-0.890625 -0.328125,-0.34375 -1,-0.34375 -0.578125,0 -0.96875,0.296875 -0.390625,0.28125 -0.390625,0.703125 h -1.09375 q 0,-0.484375 0.328125,-0.921875 0.34375,-0.4375 0.921875,-0.687498 0.578125,-0.265625 1.265625,-0.265625 1.109372,0 1.718752,0.546873 0.625,0.546875 0.65625,1.5 v 2.921875 q 0,0.875 0.21875,1.390625 v 0.09375 z m -1.796872,-0.828125 q 0.515625,0 0.96875,-0.265625 0.453122,-0.265625 0.656252,-0.6875 v -1.296875 h -0.843752 q -2,0 -2,1.171875 0,0.5 0.34375,0.796875 0.34375,0.28125 0.875,0.28125 z m 5.589842,0.828125 h -1.07812 V 11.52 h 1.07812 z m 6.32031,-8.531248 2.79688,6.953123 2.78125,-6.953123 h 1.46875 v 8.531248 h -1.125 v -3.328125 l 0.10937,-3.578123 -2.8125,6.906248 h -0.85937 l -2.79688,-6.890623 0.10938,3.562498 v 3.328125 h -1.125 V 11.98875 Z m 8.57032,5.296873 q 0,-0.921875 0.35937,-1.671875 0.375,-0.75 1.03125,-1.140625 0.65625,-0.406248 1.48438,-0.406248 1.29687,0 2.09375,0.890623 0.8125,0.890625 0.8125,2.390625 v 0.07813 q 0,0.921875 -0.35938,1.65625 -0.35937,0.734375 -1.01562,1.15625 -0.65625,0.40625 -1.51563,0.40625 -1.28125,0 -2.09375,-0.890625 -0.79687,-0.90625 -0.79687,-2.390625 z m 1.09375,0.140625 q 0,1.046875 0.48437,1.6875 0.5,0.640625 1.3125,0.640625 0.82813,0 1.3125,-0.640625 0.48438,-0.65625 0.48438,-1.828125 0,-1.03125 -0.5,-1.671875 -0.48438,-0.65625 -1.3125,-0.65625 -0.79688,0 -1.29688,0.640625 -0.48437,0.625 -0.48437,1.828125 z m 5.78125,-0.125 q 0,-1.46875 0.6875,-2.34375 0.6875,-0.890623 1.8125,-0.890623 1.10937,0 1.76562,0.749998 V 11.52 h 1.07813 v 8.999998 h -1 l -0.0469,-0.6875 q -0.65625,0.8125 -1.8125,0.8125 -1.09375,0 -1.79687,-0.90625 -0.6875,-0.90625 -0.6875,-2.359375 z m 1.07812,0.125 q 0,1.078125 0.4375,1.6875 0.45313,0.609375 1.23438,0.609375 1.03125,0 1.51562,-0.9375 v -2.90625 q -0.48437,-0.890625 -1.5,-0.890625 -0.79687,0 -1.25,0.609375 -0.4375,0.609375 -0.4375,1.828125 z m 8.58008,3.21875 q -1.29688,0 -2.10938,-0.84375 -0.79687,-0.859375 -0.79687,-2.28125 v -0.1875 q 0,-0.953125 0.35937,-1.6875 0.35938,-0.75 1,-1.15625 0.65625,-0.421873 1.40625,-0.421873 1.23438,0 1.92188,0.812498 0.6875,0.8125 0.6875,2.328125 v 0.453125 h -4.29688 q 0.0312,0.9375 0.54688,1.515625 0.53125,0.578125 1.34375,0.578125 0.5625,0 0.95312,-0.234375 0.40625,-0.234375 0.71875,-0.625 l 0.65625,0.515625 q -0.79687,1.234375 -2.39062,1.234375 z m -0.14063,-5.6875 q -0.65625,0 -1.10937,0.484375 -0.4375,0.46875 -0.53125,1.328125 h 3.17187 v -0.07813 q -0.0469,-0.828125 -0.45312,-1.28125 -0.39063,-0.453125 -1.07813,-0.453125 z m 5.04493,5.5625 h -1.07813 V 11.52 h 1.07813 z m 2.9121,0 h -1.07812 V 14.17625 h 1.07812 z m -1.17187,-8.015623 q 0,-0.265625 0.15625,-0.453125 0.17187,-0.1875 0.48437,-0.1875 0.3125,0 0.46875,0.1875 0.17188,0.1875 0.17188,0.453125 0,0.25 -0.17188,0.4375 -0.15625,0.171875 -0.46875,0.171875 -0.3125,0 -0.48437,-0.171875 -0.15625,-0.1875 -0.15625,-0.4375 z m 3.927726,1.671875 0.0312,0.796873 q 0.73438,-0.906248 1.90625,-0.906248 2.01563,0 2.03125,2.265623 v 4.1875 h -1.09375 v -4.203125 q 0,-0.671875 -0.3125,-1 -0.29687,-0.328125 -0.95312,-0.328125 -0.53125,0 -0.9375,0.28125 -0.39063,0.28125 -0.60938,0.734375 v 4.515625 H 99.570264 V 14.17625 Z m 5.33985,3.124998 q 0,-1.484375 0.6875,-2.359375 0.6875,-0.874998 1.8125,-0.874998 1.15625,0 1.8125,0.812498 l 0.0469,-0.703123 h 1 v 6.187498 q 0,1.234375 -0.73437,1.9375 -0.73438,0.71875 -1.95313,0.71875 -0.6875,0 -1.34375,-0.296875 -0.65625,-0.296875 -1,-0.796875 l 0.5625,-0.65625 q 0.6875,0.859375 1.70313,0.859375 0.78125,0 1.21875,-0.453125 0.45312,-0.4375 0.45312,-1.25 v -0.546875 q -0.65625,0.765625 -1.78125,0.765625 -1.10937,0 -1.79687,-0.890625 -0.6875,-0.90625 -0.6875,-2.453125 z m 1.09375,0.125 q 0,1.0625 0.4375,1.6875 0.4375,0.609375 1.23437,0.609375 1.01563,0 1.5,-0.9375 v -2.890625 q -0.5,-0.90625 -1.5,-0.90625 -0.78125,0 -1.23437,0.609375 -0.4375,0.609375 -0.4375,1.828125 z m 13.85937,-0.84375 h -3.70312 v 3.015625 h 4.29687 v 0.921875 h -5.42187 V 11.98875 h 5.375 v 0.921875 h -4.25 v 2.749998 h 3.70312 z m 1.45899,0.71875 q 0,-1.46875 0.6875,-2.34375 0.6875,-0.890623 1.8125,-0.890623 1.10937,0 1.76562,0.749998 V 11.52 h 1.07813 v 8.999998 h -1 l -0.0469,-0.6875 q -0.65625,0.8125 -1.8125,0.8125 -1.09375,0 -1.79687,-0.90625 -0.6875,-0.90625 -0.6875,-2.359375 z m 1.07812,0.125 q 0,1.078125 0.4375,1.6875 0.45313,0.609375 1.23438,0.609375 1.03125,0 1.51562,-0.9375 v -2.90625 q -0.48437,-0.890625 -1.5,-0.890625 -0.79687,0 -1.25,0.609375 -0.4375,0.609375 -0.4375,1.828125 z m 7.12696,3.09375 h -1.07813 V 14.17625 h 1.07813 z m -1.17188,-8.015623 q 0,-0.265625 0.15625,-0.453125 0.17188,-0.1875 0.48438,-0.1875 0.3125,0 0.46875,0.1875 0.17187,0.1875 0.17187,0.453125 0,0.25 -0.17187,0.4375 -0.15625,0.171875 -0.46875,0.171875 -0.3125,0 -0.48438,-0.171875 -0.15625,-0.1875 -0.15625,-0.4375 z m 4.38086,0.140625 v 1.53125 h 1.17187 v 0.843748 h -1.17187 v 3.921875 q 0,0.390625 0.15625,0.578125 0.15625,0.1875 0.53125,0.1875 0.1875,0 0.51562,-0.0625 v 0.875 q -0.42187,0.125 -0.82812,0.125 -0.71875,0 -1.09375,-0.4375 -0.375,-0.453125 -0.375,-1.265625 v -3.921875 h -1.15625 V 14.17625 h 1.15625 V 12.645 Z m 2.03711,4.640623 q 0,-0.921875 0.35937,-1.671875 0.375,-0.75 1.03125,-1.140625 0.65625,-0.406248 1.48438,-0.406248 1.29687,0 2.09375,0.890623 0.8125,0.890625 0.8125,2.390625 v 0.07813 q 0,0.921875 -0.35938,1.65625 -0.35937,0.734375 -1.01562,1.15625 -0.65625,0.40625 -1.51563,0.40625 -1.28125,0 -2.09375,-0.890625 -0.79687,-0.90625 -0.79687,-2.390625 z m 1.09375,0.140625 q 0,1.046875 0.48437,1.6875 0.5,0.640625 1.3125,0.640625 0.82813,0 1.3125,-0.640625 0.48438,-0.65625 0.48438,-1.828125 0,-1.03125 -0.5,-1.671875 -0.48438,-0.65625 -1.3125,-0.65625 -0.79688,0 -1.29688,0.640625 -0.48437,0.625 -0.48437,1.828125 z m 9.10937,-2.28125 q -0.25,-0.03125 -0.53125,-0.03125 -1.07812,0 -1.45312,0.90625 v 4.5 h -1.07813 V 14.17625 h 1.04688 l 0.0156,0.734373 q 0.53125,-0.843748 1.51563,-0.843748 0.3125,0 0.48437,0.07813 z"
     fill-rule="nonzero"
     id="path33" />
  <path
     fill="#eeeeee"
     d="m 177.57742,63.858274 h 21.2126 V 51.740163 l 21.2126,24.23622 -21.2126,24.236207 V 88.094493 h -21.2126 z"
     fill-rule="evenodd"
     id="path35" />
  <path
     stroke="#595959"
     stroke-width="2"
     stroke-linejoin="round"
     stroke-linecap="butt"
     d="m 177.57742,63.858274 h 21.2126 V 51.740163 l 21.2126,24.23622 -21.2126,24.236207 V 88.094493 h -21.2126 z"
     fill-rule="evenodd"
     id="path37" />
  <path
     fill="#000000"
     fill-opacity="0"
     d="M 245.45668,53.181104 H 409.07875 V 90.346463 H 245.45668 Z"
     fill-rule="evenodd"
     id="path39" />
  <path
     fill="#000000"
     d="m 263.33168,72.948603 q -0.1875,1.65625 -1.21875,2.5625 -1.03125,0.89063 -2.73438,0.89063 -1.84375,0 -2.95312,-1.3125 -1.10938,-1.32813 -1.10938,-3.54688 v -1 q 0,-1.45312 0.51563,-2.54687 0.51562,-1.109379 1.46875,-1.703129 0.95312,-0.59375 2.20312,-0.59375 1.65625,0 2.65625,0.9375 1,0.921875 1.17188,2.546879 h -1.375 q -0.1875,-1.23438 -0.78125,-1.796879 -0.59375,-0.5625 -1.67188,-0.5625 -1.3125,0 -2.0625,0.984379 -0.75,0.96875 -0.75,2.76562 v 1 q 0,1.70313 0.70313,2.70313 0.71875,1 1.98437,1 1.14063,0 1.75,-0.51563 0.625,-0.51562 0.82813,-1.8125 z m 1.32071,-0.625 q 0,-1.14062 0.4375,-2.04687 0.45312,-0.92188 1.25,-1.40625 0.79687,-0.5 1.82812,-0.5 1.57813,0 2.54688,1.09375 0.98437,1.09375 0.98437,2.92187 v 0.0937 q 0,1.125 -0.4375,2.03125 -0.4375,0.89063 -1.25,1.39063 -0.79687,0.5 -1.84375,0.5 -1.5625,0 -2.54687,-1.09375 -0.96875,-1.09375 -0.96875,-2.89063 z m 1.32812,0.15625 q 0,1.28125 0.59375,2.0625 0.59375,0.78125 1.59375,0.78125 1.01563,0 1.60938,-0.78125 0.59375,-0.79687 0.59375,-2.21875 0,-1.28125 -0.60938,-2.0625 -0.59375,-0.79687 -1.59375,-0.79687 -0.98437,0 -1.59375,0.78125 -0.59375,0.78125 -0.59375,2.23437 z m 7.06177,-0.15625 q 0,-1.78125 0.84375,-2.85937 0.84375,-1.09375 2.20313,-1.09375 1.35937,0 2.15625,0.9375 v -4.046879 h 1.32812 v 10.999999 h -1.21875 l -0.0625,-0.82812 q -0.79687,0.96875 -2.21875,0.96875 -1.34375,0 -2.1875,-1.09375 -0.84375,-1.10938 -0.84375,-2.875 z m 1.3125,0.15625 q 0,1.3125 0.54688,2.0625 0.54687,0.73438 1.5,0.73438 1.26562,0 1.84375,-1.125 v -3.5625 q -0.59375,-1.09375 -1.82813,-1.09375 -0.96875,0 -1.51562,0.75 -0.54688,0.75 -0.54688,2.23437 z m 10.48435,3.92188 q -1.57813,0 -2.5625,-1.03125 -0.98438,-1.03125 -0.98438,-2.76563 v -0.25 q 0,-1.14062 0.4375,-2.04687 0.4375,-0.90625 1.21875,-1.42188 0.79688,-0.51562 1.71875,-0.51562 1.51563,0 2.34375,1 0.84375,1 0.84375,2.84375 v 0.54687 h -5.25 q 0.0312,1.15625 0.67188,1.85938 0.64062,0.70312 1.625,0.70312 0.70312,0 1.1875,-0.28125 0.5,-0.29687 0.85937,-0.76562 l 0.8125,0.625 q -0.98437,1.5 -2.92187,1.5 z m -0.17188,-6.9375 q -0.79687,0 -1.34375,0.59375 -0.54687,0.57812 -0.67187,1.625 h 3.875 v -0.10938 q -0.0469,-1 -0.54688,-1.54687 -0.48437,-0.5625 -1.3125,-0.5625 z m 16.25232,5.4375 q -0.53125,0.75 -1.48437,1.125 -0.95313,0.375 -2.20313,0.375 -1.28125,0 -2.26562,-0.59375 -0.98438,-0.59375 -1.53125,-1.6875 -0.53125,-1.10938 -0.54688,-2.5625 v -0.92188 q 0,-2.34375 1.09375,-3.640624 1.09375,-1.296875 3.09375,-1.296875 1.625,0 2.625,0.84375 1,0.828125 1.21875,2.359379 h -1.375 q -0.39062,-2.078129 -2.46875,-2.078129 -1.375,0 -2.09375,0.968749 -0.70312,0.96875 -0.71875,2.8125 v 0.85938 q 0,1.75 0.79688,2.78125 0.8125,1.03125 2.17187,1.03125 0.78125,0 1.35938,-0.17188 0.57812,-0.17187 0.95312,-0.57812 v -2.34375 h -2.40625 v -1.10938 h 3.78125 z m 5.29566,1.5 q -1.57813,0 -2.5625,-1.03125 -0.98438,-1.03125 -0.98438,-2.76563 v -0.25 q 0,-1.14062 0.4375,-2.04687 0.4375,-0.90625 1.21875,-1.42188 0.79688,-0.51562 1.71875,-0.51562 1.51563,0 2.34375,1 0.84375,1 0.84375,2.84375 v 0.54687 h -5.25 q 0.0312,1.15625 0.67188,1.85938 0.64062,0.70312 1.625,0.70312 0.70312,0 1.1875,-0.28125 0.5,-0.29687 0.85937,-0.76562 l 0.8125,0.625 q -0.98437,1.5 -2.92187,1.5 z m -0.17188,-6.9375 q -0.79687,0 -1.34375,0.59375 -0.54687,0.57812 -0.67187,1.625 h 3.875 v -0.10938 q -0.0469,-1 -0.54688,-1.54687 -0.48437,-0.5625 -1.3125,-0.5625 z m 5.96777,-0.95313 0.0469,0.98438 q 0.89062,-1.125 2.3125,-1.125 2.46875,0 2.48437,2.78125 v 5.10937 h -1.32812 v -5.125 q 0,-0.84375 -0.375,-1.23437 -0.375,-0.40625 -1.17188,-0.40625 -0.64062,0 -1.14062,0.34375 -0.48438,0.34375 -0.75,0.90625 v 5.51562 h -1.32813 v -7.75 z m 10.05545,7.89063 q -1.57812,0 -2.5625,-1.03125 -0.98437,-1.03125 -0.98437,-2.76563 v -0.25 q 0,-1.14062 0.4375,-2.04687 0.4375,-0.90625 1.21875,-1.42188 0.79687,-0.51562 1.71875,-0.51562 1.51562,0 2.34375,1 0.84375,1 0.84375,2.84375 v 0.54687 h -5.25 q 0.0312,1.15625 0.67187,1.85938 0.64063,0.70312 1.625,0.70312 0.70313,0 1.1875,-0.28125 0.5,-0.29687 0.85938,-0.76562 l 0.8125,0.625 q -0.98438,1.5 -2.92188,1.5 z m -0.17187,-6.9375 q -0.79688,0 -1.34375,0.59375 -0.54688,0.57812 -0.67188,1.625 h 3.875 v -0.10938 q -0.0469,-1 -0.54687,-1.54687 -0.48438,-0.5625 -1.3125,-0.5625 z m 8.4678,0.23437 q -0.3125,-0.0469 -0.65625,-0.0469 -1.29687,0 -1.76562,1.10938 v 5.5 h -1.32813 v -7.75 h 1.29688 l 0.0156,0.90625 q 0.65625,-1.04688 1.84375,-1.04688 0.39063,0 0.59375,0.10938 z m 5.70417,6.5625 q -0.10938,-0.23437 -0.1875,-0.8125 -0.92188,0.95313 -2.20313,0.95313 -1.14062,0 -1.875,-0.64063 -0.73437,-0.65625 -0.73437,-1.64062 0,-1.21875 0.92187,-1.875 0.92188,-0.67188 2.57813,-0.67188 h 1.29687 v -0.60937 q 0,-0.70313 -0.42187,-1.10938 -0.40625,-0.40625 -1.21875,-0.40625 -0.70313,0 -1.1875,0.35938 -0.48438,0.34375 -0.48438,0.85937 h -1.32812 q 0,-0.57812 0.40625,-1.10937 0.42187,-0.54688 1.125,-0.85938 0.70312,-0.32812 1.54687,-0.32812 1.34375,0 2.09375,0.67187 0.76563,0.67188 0.79688,1.84375 v 3.5625 q 0,1.0625 0.26562,1.70313 v 0.10937 z m -2.20313,-1.01562 q 0.625,0 1.1875,-0.3125 0.5625,-0.32813 0.8125,-0.84375 v -1.57813 h -1.04687 q -2.42188,0 -2.42188,1.42188 0,0.625 0.40625,0.96875 0.42188,0.34375 1.0625,0.34375 z m 7.19095,-8.609379 v 1.874999 h 1.45312 v 1.03125 h -1.45312 v 4.79688 q 0,0.46875 0.1875,0.70312 0.20312,0.23438 0.67187,0.23438 0.21875,0 0.625,-0.0937 v 1.07812 q -0.53125,0.14063 -1.01562,0.14063 -0.89063,0 -1.34375,-0.53125 -0.45313,-0.54688 -0.45313,-1.53125 v -4.79688 h -1.40625 v -1.03125 h 1.40625 v -1.874999 z m 2.50375,5.687499 q 0,-1.14062 0.4375,-2.04687 0.45313,-0.92188 1.25,-1.40625 0.79688,-0.5 1.82813,-0.5 1.57812,0 2.54687,1.09375 0.98438,1.09375 0.98438,2.92187 v 0.0937 q 0,1.125 -0.4375,2.03125 -0.4375,0.89063 -1.25,1.39063 -0.79688,0.5 -1.84375,0.5 -1.5625,0 -2.54688,-1.09375 -0.96875,-1.09375 -0.96875,-2.89063 z m 1.32813,0.15625 q 0,1.28125 0.59375,2.0625 0.59375,0.78125 1.59375,0.78125 1.01562,0 1.60937,-0.78125 0.59375,-0.79687 0.59375,-2.21875 0,-1.28125 -0.60937,-2.0625 -0.59375,-0.79687 -1.59375,-0.79687 -0.98438,0 -1.59375,0.78125 -0.59375,0.78125 -0.59375,2.23437 z m 11.12427,-2.78125 q -0.3125,-0.0469 -0.65625,-0.0469 -1.29688,0 -1.76563,1.10938 v 5.5 h -1.32812 v -7.75 h 1.29687 l 0.0156,0.90625 q 0.65625,-1.04688 1.84375,-1.04688 0.39062,0 0.59375,0.10938 z"
     fill-rule="nonzero"
     id="path41" />
  <path
     fill="#000000"
     fill-opacity="0"
     d="m 245.05265,48.724414 h 124.64551 c 2.7e-4,0 5.8e-4,1.14e-4 7.6e-4,3.2e-4 2.2e-4,2.06e-4 3.4e-4,4.89e-4 3.4e-4,7.86e-4 l -10e-4,40.392433 c 0,4.46185 -3.61707,8.078897 -8.07892,8.078897 H 236.97373 v 0 c -6.1e-4,0 -10e-4,-5e-4 -10e-4,-0.001 l 10e-4,-40.39243 v 0 c 0,-4.461853 3.61707,-8.078896 8.07892,-8.078896 z"
     fill-rule="evenodd"
     id="path43" />
  <path
     stroke="#595959"
     stroke-width="1"
     stroke-linejoin="round"
     stroke-linecap="butt"
     d="m 245.05265,48.724414 h 124.64551 c 2.7e-4,0 5.8e-4,1.14e-4 7.6e-4,3.2e-4 2.2e-4,2.06e-4 3.4e-4,4.89e-4 3.4e-4,7.86e-4 l -10e-4,40.392433 c 0,4.46185 -3.61707,8.078897 -8.07892,8.078897 H 236.97373 v 0 c -6.1e-4,0 -10e-4,-5e-4 -10e-4,-0.001 l 10e-4,-40.39243 v 0 c 0,-4.461853 3.61707,-8.078896 8.07892,-8.078896 z"
     fill-rule="evenodd"
     id="path45" />
  <path
     fill="#eeeeee"
     d="m 386.30445,60.842514 h 21.21258 V 48.724411 L 428.72965,72.960623 407.51703,97.19684 V 85.078733 h -21.21258 z"
     fill-rule="evenodd"
     id="path47" />
  <path
     stroke="#595959"
     stroke-width="2"
     stroke-linejoin="round"
     stroke-linecap="butt"
     d="m 386.30445,60.842514 h 21.21258 V 48.724411 L 428.72965,72.960623 407.51703,97.19684 V 85.078733 h -21.21258 z"
     fill-rule="evenodd"
     id="path49" />
  <path
     fill="#ffffff"
     d="m 439.09449,116.63779 h 56.37796 V 52.711471 L 486.0759,43.31496 h -46.98141 z"
     fill-rule="evenodd"
     id="path51" />
  <path
     fill="#cbcbcb"
     d="m 496.07592,39.314964 1.87933,7.517208 7.51722,1.879303 z"
     fill-rule="evenodd"
     id="path53" />
  <path
     fill="#000000"
     fill-opacity="0"
     d="m 486.07592,43.314964 1.87933,7.517208 7.51722,1.879303 -9.39655,-9.396511 h -46.98141 v 73.322826 h 56.37796 V 52.711471"
     fill-rule="evenodd"
     id="path55" />
  <path
     stroke="#595959"
     stroke-width="1"
     stroke-linejoin="round"
     stroke-linecap="butt"
     d="m 496.07592,39.314964 1.87933,7.517208 7.51722,1.879303 -9.39655,-9.396511 h -46.98141 v 73.322826 h 56.37796 V 48.711471"
     fill-rule="evenodd"
     id="path57" />
  <path
     fill="#000000"
     fill-opacity="0"
     d="m 439.084,61.485564 h 56.37796 V 103.50131 H 439.084 Z"
     fill-rule="evenodd"
     id="path59" />
  <path
     fill="#000000"
     d="m 471.62617,78.499313 q -2.25,-0.65625 -3.28125,-1.59375 -1.03125,-0.9375 -1.03125,-2.32812 0,-1.5625 1.25,-2.59375 1.26562,-1.03125 3.26562,-1.03125 1.35938,0 2.4375,0.53125 1.07813,0.53125 1.65625,1.46875 0.59375,0.92187 0.59375,2.03125 h -1.76562 q 0,-1.20313 -0.76563,-1.89063 -0.76562,-0.6875 -2.15625,-0.6875 -1.29687,0 -2.01562,0.5625 -0.71875,0.5625 -0.71875,1.57813 0,0.8125 0.6875,1.375 0.6875,0.5625 2.32812,1.03125 1.65625,0.45312 2.59375,1.01562 0.9375,0.5625 1.375,1.3125 0.45313,0.75 0.45313,1.75 0,1.60937 -1.25,2.59375 -1.25,0.96875 -3.35938,0.96875 -1.375,0 -2.5625,-0.51563 -1.17187,-0.53125 -1.8125,-1.4375 -0.64062,-0.92187 -0.64062,-2.07812 h 1.75 q 0,1.20312 0.89062,1.90625 0.89063,0.6875 2.375,0.6875 1.375,0 2.10938,-0.5625 0.75,-0.5625 0.75,-1.53125 0,-0.98438 -0.6875,-1.51563 -0.6875,-0.53125 -2.46875,-1.04687 z m 16.31802,-5.92187 h -4.26562 v 11.82812 h -1.73438 v -11.82812 h -4.25 v -1.4375 h 10.25 z"
     fill-rule="nonzero"
     id="path61" />
  <path
     fill="#000000"
     fill-opacity="0"
     d="m 387.27822,9.393701 h 159.99997 v 33.92126 H 387.27822 Z"
     fill-rule="evenodd"
     id="path63" />
  <path
     fill="#000000"
     d="m 411.65126,26.148077 h -3.59375 v 3.765625 h -1.125 v -8.53125 h 5.29687 v 0.921875 h -4.17187 v 2.921875 h 3.59375 z m 5.46484,3.765625 q -0.0937,-0.1875 -0.15625,-0.671875 -0.75,0.796875 -1.79687,0.796875 -0.9375,0 -1.54688,-0.53125 -0.59375,-0.53125 -0.59375,-1.359375 0,-0.984375 0.75,-1.53125 0.75,-0.546875 2.125,-0.546875 h 1.04688 v -0.5 q 0,-0.5625 -0.34375,-0.890625 -0.32813,-0.34375 -1,-0.34375 -0.57813,0 -0.96875,0.296875 -0.39063,0.28125 -0.39063,0.703125 h -1.09375 q 0,-0.484375 0.32813,-0.921875 0.34375,-0.4375 0.92187,-0.6875 0.57813,-0.265625 1.26563,-0.265625 1.10937,0 1.71875,0.546875 0.625,0.546875 0.65625,1.5 v 2.921875 q 0,0.875 0.21875,1.390625 v 0.09375 z m -1.79687,-0.828125 q 0.51562,0 0.96875,-0.265625 0.45312,-0.265625 0.65625,-0.6875 v -1.296875 h -0.84375 q -2,0 -2,1.171875 0,0.5 0.34375,0.796875 0.34375,0.28125 0.875,0.28125 z m 5.43359,-5.515625 0.0312,0.703125 q 0.6875,-0.8125 1.875,-0.8125 1.32813,0 1.8125,1.015625 0.3125,-0.453125 0.8125,-0.734375 0.51563,-0.28125 1.20313,-0.28125 2.09375,0 2.125,2.203125 v 4.25 h -1.07813 v -4.1875 q 0,-0.671875 -0.3125,-1 -0.3125,-0.34375 -1.04687,-0.34375 -0.60938,0 -1.01563,0.359375 -0.39062,0.359375 -0.45312,0.96875 v 4.203125 h -1.07813 v -4.15625 q 0,-1.375 -1.35937,-1.375 -1.0625,0 -1.45313,0.90625 v 4.625 h -1.09375 v -6.34375 z m 12.12696,6.46875 q -1.29688,0 -2.10938,-0.84375 -0.79687,-0.859375 -0.79687,-2.28125 v -0.1875 q 0,-0.953125 0.35937,-1.6875 0.35938,-0.75 1,-1.15625 0.65625,-0.421875 1.40625,-0.421875 1.23438,0 1.92188,0.8125 0.6875,0.8125 0.6875,2.328125 v 0.453125 h -4.29688 q 0.0312,0.9375 0.54688,1.515625 0.53125,0.578125 1.34375,0.578125 0.5625,0 0.95312,-0.234375 0.40625,-0.234375 0.71875,-0.625 l 0.65625,0.515625 q -0.79687,1.234375 -2.39062,1.234375 z m -0.14063,-5.6875 q -0.65625,0 -1.10937,0.484375 -0.4375,0.46875 -0.53125,1.328125 h 3.17187 v -0.07813 q -0.0469,-0.828125 -0.45312,-1.28125 -0.39063,-0.453125 -1.07813,-0.453125 z m 4.07617,6.296875 h -0.92187 l 3.5625,-9.265625 h 0.92187 z m 9.61719,-4.5 h -3.59375 v 3.765625 h -1.125 v -8.53125 h 5.29688 v 0.921875 h -4.17188 v 2.921875 h 3.59375 z m 5.46484,3.765625 q -0.0937,-0.1875 -0.15625,-0.671875 -0.75,0.796875 -1.79687,0.796875 -0.9375,0 -1.54688,-0.53125 -0.59375,-0.53125 -0.59375,-1.359375 0,-0.984375 0.75,-1.53125 0.75,-0.546875 2.125,-0.546875 h 1.04688 v -0.5 q 0,-0.5625 -0.34375,-0.890625 -0.32813,-0.34375 -1,-0.34375 -0.57813,0 -0.96875,0.296875 -0.39063,0.28125 -0.39063,0.703125 h -1.09375 q 0,-0.484375 0.32813,-0.921875 0.34375,-0.4375 0.92187,-0.6875 0.57813,-0.265625 1.26563,-0.265625 1.10937,0 1.71875,0.546875 0.625,0.546875 0.65625,1.5 v 2.921875 q 0,0.875 0.21875,1.390625 v 0.09375 z m -1.79687,-0.828125 q 0.51562,0 0.96875,-0.265625 0.45312,-0.265625 0.65625,-0.6875 v -1.296875 h -0.84375 q -2,0 -2,1.171875 0,0.5 0.34375,0.796875 0.34375,0.28125 0.875,0.28125 z m 5.43359,-5.515625 0.0312,0.703125 q 0.6875,-0.8125 1.875,-0.8125 1.32813,0 1.8125,1.015625 0.3125,-0.453125 0.8125,-0.734375 0.51563,-0.28125 1.20313,-0.28125 2.09375,0 2.125,2.203125 v 4.25 h -1.07813 v -4.1875 q 0,-0.671875 -0.3125,-1 -0.3125,-0.34375 -1.04687,-0.34375 -0.60938,0 -1.01563,0.359375 -0.39062,0.359375 -0.45312,0.96875 v 4.203125 h -1.07813 v -4.15625 q 0,-1.375 -1.35937,-1.375 -1.0625,0 -1.45313,0.90625 v 4.625 h -1.09375 v -6.34375 z m 10.67383,6.34375 h -1.07812 v -6.34375 h 1.07812 z m -1.17187,-8.015625 q 0,-0.265625 0.15625,-0.453125 0.17187,-0.1875 0.48437,-0.1875 0.3125,0 0.46875,0.1875 0.17188,0.1875 0.17188,0.453125 0,0.25 -0.17188,0.4375 -0.15625,0.171875 -0.46875,0.171875 -0.3125,0 -0.48437,-0.171875 -0.15625,-0.1875 -0.15625,-0.4375 z m 5.03711,3.984375 1.40625,-2.3125 h 1.26562 l -2.07812,3.140625 2.14062,3.203125 h -1.25 l -1.46875,-2.375 -1.46875,2.375 h -1.26562 l 2.14062,-3.203125 -2.0625,-3.140625 h 1.25 z m 13.26168,2.90625 q -0.4375,0.625 -1.21875,0.9375 -0.78125,0.3125 -1.81247,0.3125 -1.03125,0 -1.84375,-0.484375 -0.8125,-0.5 -1.25,-1.40625 -0.4375,-0.90625 -0.45312,-2.09375 v -0.734375 q 0,-1.9375 0.89062,-3 0.90625,-1.0625 2.53125,-1.0625 1.34372,0 2.15622,0.6875 0.8125,0.6875 1,1.9375 h -1.125 q -0.32812,-1.6875 -2.01559,-1.6875 -1.14063,0 -1.71875,0.796875 -0.57813,0.78125 -0.59375,2.296875 v 0.6875 q 0,1.4375 0.65625,2.296875 0.65625,0.84375 1.78125,0.84375 0.62497,0 1.09372,-0.140625 0.48437,-0.140625 0.79687,-0.484375 v -1.90625 h -1.96872 v -0.921875 h 3.09372 z m 4.33008,1.25 q -1.29687,0 -2.10937,-0.84375 -0.79688,-0.859375 -0.79688,-2.28125 v -0.1875 q 0,-0.953125 0.35938,-1.6875 0.35937,-0.75 1,-1.15625 0.65625,-0.421875 1.40625,-0.421875 1.23437,0 1.92187,0.8125 0.6875,0.8125 0.6875,2.328125 v 0.453125 h -4.29687 q 0.0312,0.9375 0.54687,1.515625 0.53125,0.578125 1.34375,0.578125 0.5625,0 0.95313,-0.234375 0.40625,-0.234375 0.71875,-0.625 l 0.65625,0.515625 q -0.79688,1.234375 -2.39063,1.234375 z m -0.14062,-5.6875 q -0.65625,0 -1.10938,0.484375 -0.4375,0.46875 -0.53125,1.328125 h 3.17188 v -0.07813 q -0.0469,-0.828125 -0.45313,-1.28125 -0.39062,-0.453125 -1.07812,-0.453125 z m 4.88867,-0.78125 0.0312,0.796875 q 0.73437,-0.90625 1.90625,-0.90625 2.01562,0 2.03125,2.265625 v 4.1875 h -1.09375 v -4.203125 q 0,-0.671875 -0.3125,-1 -0.29688,-0.328125 -0.95313,-0.328125 -0.53125,0 -0.9375,0.28125 -0.39062,0.28125 -0.60937,0.734375 v 4.515625 h -1.07813 v -6.34375 z m 8.23047,6.46875 q -1.29688,0 -2.10938,-0.84375 -0.79687,-0.859375 -0.79687,-2.28125 v -0.1875 q 0,-0.953125 0.35937,-1.6875 0.35938,-0.75 1,-1.15625 0.65625,-0.421875 1.40625,-0.421875 1.23438,0 1.92188,0.8125 0.6875,0.8125 0.6875,2.328125 v 0.453125 h -4.29688 q 0.0312,0.9375 0.54688,1.515625 0.53125,0.578125 1.34375,0.578125 0.5625,0 0.95312,-0.234375 0.40625,-0.234375 0.71875,-0.625 l 0.65625,0.515625 q -0.79687,1.234375 -2.39062,1.234375 z m -0.14063,-5.6875 q -0.65625,0 -1.10937,0.484375 -0.4375,0.46875 -0.53125,1.328125 h 3.17187 v -0.07813 q -0.0469,-0.828125 -0.45312,-1.28125 -0.39063,-0.453125 -1.07813,-0.453125 z m 6.93555,0.1875 q -0.25,-0.03125 -0.53125,-0.03125 -1.07813,0 -1.45313,0.90625 v 4.5 h -1.07812 v -6.34375 h 1.04687 l 0.0156,0.734375 q 0.53125,-0.84375 1.51562,-0.84375 0.3125,0 0.48438,0.07813 z m 4.66992,5.375 q -0.0937,-0.1875 -0.15625,-0.671875 -0.75,0.796875 -1.79687,0.796875 -0.9375,0 -1.54688,-0.53125 -0.59375,-0.53125 -0.59375,-1.359375 0,-0.984375 0.75,-1.53125 0.75,-0.546875 2.125,-0.546875 h 1.04688 v -0.5 q 0,-0.5625 -0.34375,-0.890625 -0.32813,-0.34375 -1,-0.34375 -0.57813,0 -0.96875,0.296875 -0.39063,0.28125 -0.39063,0.703125 h -1.09375 q 0,-0.484375 0.32813,-0.921875 0.34375,-0.4375 0.92187,-0.6875 0.57813,-0.265625 1.26563,-0.265625 1.10937,0 1.71875,0.546875 0.625,0.546875 0.65625,1.5 v 2.921875 q 0,0.875 0.21875,1.390625 v 0.09375 z m -1.79687,-0.828125 q 0.51562,0 0.96875,-0.265625 0.45312,-0.265625 0.65625,-0.6875 v -1.296875 h -0.84375 q -2,0 -2,1.171875 0,0.5 0.34375,0.796875 0.34375,0.28125 0.875,0.28125 z m 5.88671,-7.046875 v 1.53125 h 1.17188 v 0.84375 h -1.17188 v 3.921875 q 0,0.390625 0.15625,0.578125 0.15625,0.1875 0.53125,0.1875 0.1875,0 0.51563,-0.0625 v 0.875 q -0.42188,0.125 -0.82813,0.125 -0.71875,0 -1.09375,-0.4375 -0.375,-0.453125 -0.375,-1.265625 v -3.921875 h -1.15625 v -0.84375 h 1.15625 v -1.53125 z m 2.03711,4.640625 q 0,-0.921875 0.35938,-1.671875 0.375,-0.75 1.03125,-1.140625 0.65625,-0.40625 1.48437,-0.40625 1.29688,0 2.09375,0.890625 0.8125,0.890625 0.8125,2.390625 v 0.07813 q 0,0.921875 -0.35937,1.65625 -0.35938,0.734375 -1.01563,1.15625 -0.65625,0.40625 -1.51562,0.40625 -1.28125,0 -2.09375,-0.890625 -0.79688,-0.90625 -0.79688,-2.390625 z m 1.09375,0.140625 q 0,1.046875 0.48438,1.6875 0.5,0.640625 1.3125,0.640625 0.82812,0 1.3125,-0.640625 0.48437,-0.65625 0.48437,-1.828125 0,-1.03125 -0.5,-1.671875 -0.48437,-0.65625 -1.3125,-0.65625 -0.79687,0 -1.29687,0.640625 -0.48438,0.625 -0.48438,1.828125 z m 9.10938,-2.28125 q -0.25,-0.03125 -0.53125,-0.03125 -1.07813,0 -1.45313,0.90625 v 4.5 h -1.07812 v -6.34375 h 1.04687 l 0.0156,0.734375 q 0.53125,-0.84375 1.51562,-0.84375 0.3125,0 0.48438,0.07813 z"
     fill-rule="nonzero"
     id="path65" />
</svg>
