<?xml version="1.0" encoding="UTF-8" standalone="no"?><svg xmlns="http://www.w3.org/2000/svg" xmlns:xlink="http://www.w3.org/1999/xlink" contentScriptType="application/ecmascript" contentStyleType="text/css" height="190px" preserveAspectRatio="none" style="width:214px;height:190px;background:#FFFFFF;" version="1.1" viewBox="0 0 214 190" width="214px" zoomAndPan="magnify"><defs><filter height="300%" id="f1q27fp2othde9" width="300%" x="-1" y="-1"><feGaussianBlur result="blurOut" stdDeviation="2.0"/><feColorMatrix in="blurOut" result="blurOut2" type="matrix" values="0 0 0 0 0 0 0 0 0 0 0 0 0 0 0 0 0 0 .4 0"/><feOffset dx="4.0" dy="4.0" in="blurOut2" result="blurOut3"/><feBlend in="SourceGraphic" in2="blurOut3" mode="normal"/></filter></defs><g><!--MD5=[bce115c8c36cde6979a4e7d09549f5f0]
class TraitA--><rect fill="#FEFECE" filter="url(#f1q27fp2othde9)" height="60.8047" id="TraitA" style="stroke:#A80036;stroke-width:1.5;" width="79" x="7" y="7"/><ellipse cx="27.85" cy="23" fill="#ADD1B2" rx="11" ry="11" style="stroke:#A80036;stroke-width:1.0;"/><path d="M30.1938,18.6719 C29.2563,18.2344 28.6625,18.0938 27.7875,18.0938 C25.1625,18.0938 23.1625,20.1719 23.1625,22.8906 L23.1625,24.0156 C23.1625,26.5938 25.2719,28.4844 28.1625,28.4844 C29.3813,28.4844 30.5375,28.1875 31.2875,27.6406 C31.8656,27.2344 32.1938,26.7813 32.1938,26.3906 C32.1938,25.9375 31.8031,25.5469 31.3344,25.5469 C31.1156,25.5469 30.9125,25.625 30.725,25.8125 C30.2719,26.2969 30.2719,26.2969 30.0844,26.3906 C29.6625,26.6563 28.975,26.7813 28.2094,26.7813 C26.1625,26.7813 24.8656,25.6875 24.8656,23.9844 L24.8656,22.8906 C24.8656,21.1094 26.1156,19.7969 27.85,19.7969 C28.4281,19.7969 29.0375,19.9531 29.5063,20.2031 C29.9906,20.4844 30.1625,20.7031 30.2563,21.1094 C30.3188,21.5156 30.35,21.6406 30.4906,21.7656 C30.6313,21.9063 30.8656,22.0156 31.0844,22.0156 C31.35,22.0156 31.6156,21.875 31.7875,21.6563 C31.8969,21.5 31.9281,21.3125 31.9281,20.8906 L31.9281,19.4688 C31.9281,19.0313 31.9125,18.9063 31.8188,18.75 C31.6625,18.4844 31.3813,18.3438 31.0844,18.3438 C30.7875,18.3438 30.5844,18.4375 30.3656,18.75 L30.1938,18.6719 Z " fill="#000000"/><text fill="#000000" font-family="sans-serif" font-size="12" lengthAdjust="spacing" textLength="34" x="43.15" y="27.1543">TraitA</text><line style="stroke:#A80036;stroke-width:1.5;" x1="8" x2="85" y1="39" y2="39"/><line style="stroke:#A80036;stroke-width:1.5;" x1="8" x2="85" y1="47" y2="47"/><text fill="#000000" font-family="sans-serif" font-size="11" lengthAdjust="spacing" textLength="67" x="13" y="61.2104">methodXY()</text><!--MD5=[1ca7c43f6dcebda93c2fc8bba50dc0f3]
class MyClass--><rect fill="#FEFECE" filter="url(#f1q27fp2othde9)" height="48" id="MyClass" style="stroke:#A80036;stroke-width:1.5;" width="81" x="63" y="128"/><ellipse cx="78" cy="144" fill="#ADD1B2" rx="11" ry="11" style="stroke:#A80036;stroke-width:1.0;"/><path d="M80.3438,139.6719 C79.4063,139.2344 78.8125,139.0938 77.9375,139.0938 C75.3125,139.0938 73.3125,141.1719 73.3125,143.8906 L73.3125,145.0156 C73.3125,147.5938 75.4219,149.4844 78.3125,149.4844 C79.5313,149.4844 80.6875,149.1875 81.4375,148.6406 C82.0156,148.2344 82.3438,147.7813 82.3438,147.3906 C82.3438,146.9375 81.9531,146.5469 81.4844,146.5469 C81.2656,146.5469 81.0625,146.625 80.875,146.8125 C80.4219,147.2969 80.4219,147.2969 80.2344,147.3906 C79.8125,147.6563 79.125,147.7813 78.3594,147.7813 C76.3125,147.7813 75.0156,146.6875 75.0156,144.9844 L75.0156,143.8906 C75.0156,142.1094 76.2656,140.7969 78,140.7969 C78.5781,140.7969 79.1875,140.9531 79.6563,141.2031 C80.1406,141.4844 80.3125,141.7031 80.4063,142.1094 C80.4688,142.5156 80.5,142.6406 80.6406,142.7656 C80.7813,142.9063 81.0156,143.0156 81.2344,143.0156 C81.5,143.0156 81.7656,142.875 81.9375,142.6563 C82.0469,142.5 82.0781,142.3125 82.0781,141.8906 L82.0781,140.4688 C82.0781,140.0313 82.0625,139.9063 81.9688,139.75 C81.8125,139.4844 81.5313,139.3438 81.2344,139.3438 C80.9375,139.3438 80.7344,139.4375 80.5156,139.75 L80.3438,139.6719 Z " fill="#000000"/><text fill="#000000" font-family="sans-serif" font-size="12" lengthAdjust="spacing" textLength="49" x="92" y="148.1543">MyClass</text><line style="stroke:#A80036;stroke-width:1.5;" x1="64" x2="143" y1="160" y2="160"/><line style="stroke:#A80036;stroke-width:1.5;" x1="64" x2="143" y1="168" y2="168"/><!--MD5=[f7af96aa41b7af269dbf159f3b93b401]
class TraitB--><rect fill="#FEFECE" filter="url(#f1q27fp2othde9)" height="60.8047" id="TraitB" style="stroke:#A80036;stroke-width:1.5;" width="79" x="121" y="7"/><ellipse cx="141.85" cy="23" fill="#ADD1B2" rx="11" ry="11" style="stroke:#A80036;stroke-width:1.0;"/><path d="M144.1938,18.6719 C143.2563,18.2344 142.6625,18.0938 141.7875,18.0938 C139.1625,18.0938 137.1625,20.1719 137.1625,22.8906 L137.1625,24.0156 C137.1625,26.5938 139.2719,28.4844 142.1625,28.4844 C143.3813,28.4844 144.5375,28.1875 145.2875,27.6406 C145.8656,27.2344 146.1938,26.7813 146.1938,26.3906 C146.1938,25.9375 145.8031,25.5469 145.3344,25.5469 C145.1156,25.5469 144.9125,25.625 144.725,25.8125 C144.2719,26.2969 144.2719,26.2969 144.0844,26.3906 C143.6625,26.6563 142.975,26.7813 142.2094,26.7813 C140.1625,26.7813 138.8656,25.6875 138.8656,23.9844 L138.8656,22.8906 C138.8656,21.1094 140.1156,19.7969 141.85,19.7969 C142.4281,19.7969 143.0375,19.9531 143.5063,20.2031 C143.9906,20.4844 144.1625,20.7031 144.2563,21.1094 C144.3188,21.5156 144.35,21.6406 144.4906,21.7656 C144.6313,21.9063 144.8656,22.0156 145.0844,22.0156 C145.35,22.0156 145.6156,21.875 145.7875,21.6563 C145.8969,21.5 145.9281,21.3125 145.9281,20.8906 L145.9281,19.4688 C145.9281,19.0313 145.9125,18.9063 145.8188,18.75 C145.6625,18.4844 145.3813,18.3438 145.0844,18.3438 C144.7875,18.3438 144.5844,18.4375 144.3656,18.75 L144.1938,18.6719 Z " fill="#000000"/><text fill="#000000" font-family="sans-serif" font-size="12" lengthAdjust="spacing" textLength="34" x="157.15" y="27.1543">TraitB</text><line style="stroke:#A80036;stroke-width:1.5;" x1="122" x2="199" y1="39" y2="39"/><line style="stroke:#A80036;stroke-width:1.5;" x1="122" x2="199" y1="47" y2="47"/><text fill="#000000" font-family="sans-serif" font-size="11" lengthAdjust="spacing" textLength="67" x="127" y="61.2104">methodXY()</text><!--MD5=[0d520676e2da8744abbbbfb7038ba075]
reverse link TraitA to MyClass--><path codeLine="1" d="M70.6511,86.1667 C77.9252,100.5235 85.5864,115.6443 91.6788,127.6686 " fill="none" id="TraitA-backto-MyClass" style="stroke:#A80036;stroke-width:1.0;stroke-dasharray:7.0,7.0;"/><polygon fill="none" points="64.2712,89.0625,61.4761,68.058,76.7597,82.735,64.2712,89.0625" style="stroke:#A80036;stroke-width:1.0;"/><!--MD5=[51acc24426cedc3624e44aa7bd16c481]
reverse link TraitB to MyClass--><path codeLine="2" d="M136.349,86.1667 C129.075,100.5235 121.414,115.6443 115.321,127.6686 " fill="none" id="TraitB-backto-MyClass" style="stroke:#A80036;stroke-width:1.0;stroke-dasharray:7.0,7.0;"/><polygon fill="none" points="130.24,82.735,145.524,68.058,142.729,89.0625,130.24,82.735" style="stroke:#A80036;stroke-width:1.0;"/><!--MD5=[e441ca3b07c55988ba7e01b96cffc9f1]
@startuml
TraitA <|.. MyClass
TraitB <|.. MyClass

TraitA : methodXY()
TraitB : methodXY()
@enduml

PlantUML version 1.2021.10beta1(Unknown compile time)
(GPL source distribution)
Java Runtime: Java(TM) SE Runtime Environment
JVM: Java HotSpot(TM) 64-Bit Server VM
Default Encoding: UTF-8
Language: en
Country: US
--></g></svg>