<?xml version="1.0" encoding="UTF-8" standalone="no"?>
<svg xmlns="http://www.w3.org/2000/svg" xmlns:xlink="http://www.w3.org/1999/xlink" contentScriptType="application/ecmascript" contentStyleType="text/css" height="292px" preserveAspectRatio="none" style="width:142px;height:292px;background:#FFFFFF;" version="1.1" viewBox="0 0 142 292" width="142px" zoomAndPan="magnify"><defs><filter height="300%" id="f5tl98xfmcjbn" width="300%" x="-1" y="-1"><feGaussianBlur result="blurOut" stdDeviation="2.0"/><feColorMatrix in="blurOut" result="blurOut2" type="matrix" values="0 0 0 0 0 0 0 0 0 0 0 0 0 0 0 0 0 0 .4 0"/><feOffset dx="4.0" dy="4.0" in="blurOut2" result="blurOut3"/><feBlend in="SourceGraphic" in2="blurOut3" mode="normal"/></filter></defs><g><!--MD5=[b2002fc29e5d1d6a3fbbde9814c3690d]
class Coaster--><rect codeLine="11" fill="#FFFFFF" filter="url(#f5tl98xfmcjbn)" height="65.6094" id="Coaster" style="stroke:#A9A9A9;stroke-width:1.5;" width="101" x="27.5844" y="7"/><ellipse cx="52.4844" cy="23" fill="#FFFFFF" rx="11" ry="11" style="stroke:#A9A9A9;stroke-width:1.0;"/><path d="M54.8281,18.6719 C53.8906,18.2344 53.2969,18.0938 52.4219,18.0938 C49.7969,18.0938 47.7969,20.1719 47.7969,22.8906 L47.7969,24.0156 C47.7969,26.5938 49.9063,28.4844 52.7969,28.4844 C54.0156,28.4844 55.1719,28.1875 55.9219,27.6406 C56.5,27.2344 56.8281,26.7813 56.8281,26.3906 C56.8281,25.9375 56.4375,25.5469 55.9688,25.5469 C55.75,25.5469 55.5469,25.625 55.3594,25.8125 C54.9063,26.2969 54.9063,26.2969 54.7188,26.3906 C54.2969,26.6563 53.6094,26.7813 52.8438,26.7813 C50.7969,26.7813 49.5,25.6875 49.5,23.9844 L49.5,22.8906 C49.5,21.1094 50.75,19.7969 52.4844,19.7969 C53.0625,19.7969 53.6719,19.9531 54.1406,20.2031 C54.625,20.4844 54.7969,20.7031 54.8906,21.1094 C54.9531,21.5156 54.9844,21.6406 55.125,21.7656 C55.2656,21.9063 55.5,22.0156 55.7188,22.0156 C55.9844,22.0156 56.25,21.875 56.4219,21.6563 C56.5313,21.5 56.5625,21.3125 56.5625,20.8906 L56.5625,19.4688 C56.5625,19.0313 56.5469,18.9063 56.4531,18.75 C56.2969,18.4844 56.0156,18.3438 55.7188,18.3438 C55.4219,18.3438 55.2188,18.4375 55,18.75 L54.8281,18.6719 Z " fill="#000000"/><text fill="#000000" font-family="sans-serif" font-size="12" lengthAdjust="spacing" textLength="47" x="68.6844" y="27.1543">Coaster</text><line style="stroke:#A9A9A9;stroke-width:1.5;" x1="28.5844" x2="127.5844" y1="39" y2="39"/><text fill="#000000" font-family="sans-serif" font-size="11" lengthAdjust="spacing" textLength="89" x="33.5844" y="53.2104">Boolean owned</text><text fill="#000000" font-family="sans-serif" font-size="11" lengthAdjust="spacing" textLength="73" x="33.5844" y="66.0151">String image</text><!--MD5=[2c589014e840926a718801db2289e0a7]
class Creator--><rect codeLine="15" fill="#FFFFFF" filter="url(#f5tl98xfmcjbn)" height="52.8047" id="Creator" style="stroke:#A9A9A9;stroke-width:1.5;" width="82" x="37.0844" y="133"/><ellipse cx="54.3344" cy="149" fill="#FFFFFF" rx="11" ry="11" style="stroke:#A9A9A9;stroke-width:1.0;"/><path d="M56.6781,144.6719 C55.7406,144.2344 55.1469,144.0938 54.2719,144.0938 C51.6469,144.0938 49.6469,146.1719 49.6469,148.8906 L49.6469,150.0156 C49.6469,152.5938 51.7563,154.4844 54.6469,154.4844 C55.8656,154.4844 57.0219,154.1875 57.7719,153.6406 C58.35,153.2344 58.6781,152.7813 58.6781,152.3906 C58.6781,151.9375 58.2875,151.5469 57.8188,151.5469 C57.6,151.5469 57.3969,151.625 57.2094,151.8125 C56.7563,152.2969 56.7563,152.2969 56.5688,152.3906 C56.1469,152.6563 55.4594,152.7813 54.6938,152.7813 C52.6469,152.7813 51.35,151.6875 51.35,149.9844 L51.35,148.8906 C51.35,147.1094 52.6,145.7969 54.3344,145.7969 C54.9125,145.7969 55.5219,145.9531 55.9906,146.2031 C56.475,146.4844 56.6469,146.7031 56.7406,147.1094 C56.8031,147.5156 56.8344,147.6406 56.975,147.7656 C57.1156,147.9063 57.35,148.0156 57.5688,148.0156 C57.8344,148.0156 58.1,147.875 58.2719,147.6563 C58.3813,147.5 58.4125,147.3125 58.4125,146.8906 L58.4125,145.4688 C58.4125,145.0313 58.3969,144.9063 58.3031,144.75 C58.1469,144.4844 57.8656,144.3438 57.5688,144.3438 C57.2719,144.3438 57.0688,144.4375 56.85,144.75 L56.6781,144.6719 Z " fill="#000000"/><text fill="#000000" font-family="sans-serif" font-size="12" lengthAdjust="spacing" textLength="45" x="68.8344" y="153.1543">Creator</text><line style="stroke:#A9A9A9;stroke-width:1.5;" x1="38.0844" x2="118.0844" y1="165" y2="165"/><text fill="#000000" font-family="sans-serif" font-size="11" lengthAdjust="spacing" textLength="70" x="43.0844" y="179.2104">String name</text><!--MD5=[f4d134b883c3cc45571da9c280ad87cf]
class Brewery--><rect codeLine="18" fill="#FFFFFF" filter="url(#f5tl98xfmcjbn)" height="32" id="Brewery" style="stroke:#A9A9A9;stroke-width:1.5;" width="83" x="36.5844" y="246"/><ellipse cx="51.5844" cy="262" fill="#FFFFFF" rx="11" ry="11" style="stroke:#A9A9A9;stroke-width:1.0;"/><path d="M53.9281,257.6719 C52.9906,257.2344 52.3969,257.0938 51.5219,257.0938 C48.8969,257.0938 46.8969,259.1719 46.8969,261.8906 L46.8969,263.0156 C46.8969,265.5938 49.0063,267.4844 51.8969,267.4844 C53.1156,267.4844 54.2719,267.1875 55.0219,266.6406 C55.6,266.2344 55.9281,265.7813 55.9281,265.3906 C55.9281,264.9375 55.5375,264.5469 55.0688,264.5469 C54.85,264.5469 54.6469,264.625 54.4594,264.8125 C54.0063,265.2969 54.0063,265.2969 53.8188,265.3906 C53.3969,265.6563 52.7094,265.7813 51.9438,265.7813 C49.8969,265.7813 48.6,264.6875 48.6,262.9844 L48.6,261.8906 C48.6,260.1094 49.85,258.7969 51.5844,258.7969 C52.1625,258.7969 52.7719,258.9531 53.2406,259.2031 C53.725,259.4844 53.8969,259.7031 53.9906,260.1094 C54.0531,260.5156 54.0844,260.6406 54.225,260.7656 C54.3656,260.9063 54.6,261.0156 54.8188,261.0156 C55.0844,261.0156 55.35,260.875 55.5219,260.6563 C55.6313,260.5 55.6625,260.3125 55.6625,259.8906 L55.6625,258.4688 C55.6625,258.0313 55.6469,257.9063 55.5531,257.75 C55.3969,257.4844 55.1156,257.3438 54.8188,257.3438 C54.5219,257.3438 54.3188,257.4375 54.1,257.75 L53.9281,257.6719 Z " fill="#000000"/><text fill="#000000" font-family="sans-serif" font-size="12" lengthAdjust="spacing" textLength="51" x="65.5844" y="266.1543">Brewery</text><!--MD5=[6946b53d1c23a298093e646c61c66bda]
reverse link Creator to Brewery--><path codeLine="21" d="M78.0844,206.6076 C78.0844,220.7112 78.0844,235.2529 78.0844,245.7482 " fill="none" id="Creator-backto-Brewery" style="stroke:#000000;stroke-width:1.0;"/><polygon fill="none" points="71.0845,206.1205,78.0844,186.1204,85.0845,206.1204,71.0845,206.1205" style="stroke:#000000;stroke-width:1.0;"/><!--MD5=[16434731f85cfc684275fff719fe2dc4]
link Coaster to Creator--><path codeLine="23" d="M78.0844,73.107 C78.0844,91.861 78.0844,115.21 78.0844,132.75 " fill="none" id="Coaster-Creator" style="stroke:#000000;stroke-width:1.0;"/><text fill="#000000" font-family="sans-serif" font-size="13" lengthAdjust="spacing" textLength="62" x="10" y="92.7091">*coasters</text><text fill="#000000" font-family="sans-serif" font-size="13" lengthAdjust="spacing" textLength="46" x="26.7656" y="121.9345">creator</text><!--MD5=[de14ee4d77882dfae3eb4306a09d2b62]
@startuml
hide empty members

skinparam class {
  BackgroundColor white
  ArrowColor black
  BorderColor darkGray
  BackgroundColor<<External>> LightYellow
  BorderColor<<External>> LightGray
}

class Coaster << (C,white) >> {
  Boolean owned
  String image
}
class Creator << (C,white) >> {
  String name
}
class Brewery << (C,white) >> {
}

Creator <|- - Brewery

Coaster " *coasters" - - "creator" Creator
@enduml

PlantUML version 1.2021.7(Sun May 23 12:40:07 UTC 2021)
(GPL source distribution)
Java Runtime: Java(TM) SE Runtime Environment
JVM: Java HotSpot(TM) 64-Bit Server VM
Default Encoding: UTF-8
Language: en
Country: US
--></g></svg>