<?xml version="1.0" encoding="UTF-8" standalone="no"?>
<svg xmlns="http://www.w3.org/2000/svg" xmlns:xlink="http://www.w3.org/1999/xlink" contentScriptType="application/ecmascript" contentStyleType="text/css" height="292px" preserveAspectRatio="none" style="width:412px;height:292px;background:#FFFFFF;" version="1.1" viewBox="0 0 412 292" width="412px" zoomAndPan="magnify"><defs><filter height="300%" id="f1bvjbsslnpdsc" width="300%" x="-1" y="-1"><feGaussianBlur result="blurOut" stdDeviation="2.0"/><feColorMatrix in="blurOut" result="blurOut2" type="matrix" values="0 0 0 0 0 0 0 0 0 0 0 0 0 0 0 0 0 0 .4 0"/><feOffset dx="4.0" dy="4.0" in="blurOut2" result="blurOut3"/><feBlend in="SourceGraphic" in2="blurOut3" mode="normal"/></filter></defs><g><!--MD5=[2c589014e840926a718801db2289e0a7]
class Creator--><rect codeLine="11" fill="#FFFFFF" filter="url(#f1bvjbsslnpdsc)" height="52.8047" id="Creator" style="stroke:#A9A9A9;stroke-width:1.5;" width="82" x="60.5" y="133"/><ellipse cx="77.75" cy="149" fill="#FFFFFF" rx="11" ry="11" style="stroke:#A9A9A9;stroke-width:1.0;"/><path d="M80.0938,144.6719 C79.1563,144.2344 78.5625,144.0938 77.6875,144.0938 C75.0625,144.0938 73.0625,146.1719 73.0625,148.8906 L73.0625,150.0156 C73.0625,152.5938 75.1719,154.4844 78.0625,154.4844 C79.2813,154.4844 80.4375,154.1875 81.1875,153.6406 C81.7656,153.2344 82.0938,152.7813 82.0938,152.3906 C82.0938,151.9375 81.7031,151.5469 81.2344,151.5469 C81.0156,151.5469 80.8125,151.625 80.625,151.8125 C80.1719,152.2969 80.1719,152.2969 79.9844,152.3906 C79.5625,152.6563 78.875,152.7813 78.1094,152.7813 C76.0625,152.7813 74.7656,151.6875 74.7656,149.9844 L74.7656,148.8906 C74.7656,147.1094 76.0156,145.7969 77.75,145.7969 C78.3281,145.7969 78.9375,145.9531 79.4063,146.2031 C79.8906,146.4844 80.0625,146.7031 80.1563,147.1094 C80.2188,147.5156 80.25,147.6406 80.3906,147.7656 C80.5313,147.9063 80.7656,148.0156 80.9844,148.0156 C81.25,148.0156 81.5156,147.875 81.6875,147.6563 C81.7969,147.5 81.8281,147.3125 81.8281,146.8906 L81.8281,145.4688 C81.8281,145.0313 81.8125,144.9063 81.7188,144.75 C81.5625,144.4844 81.2813,144.3438 80.9844,144.3438 C80.6875,144.3438 80.4844,144.4375 80.2656,144.75 L80.0938,144.6719 Z " fill="#000000"/><text fill="#000000" font-family="sans-serif" font-size="12" lengthAdjust="spacing" textLength="45" x="92.25" y="153.1543">Creator</text><line style="stroke:#A9A9A9;stroke-width:1.5;" x1="61.5" x2="141.5" y1="165" y2="165"/><text fill="#000000" font-family="sans-serif" font-size="11" lengthAdjust="spacing" textLength="70" x="66.5" y="179.2104">String name</text><!--MD5=[426e75666daf533f17226ff4c87e20fd]
class Shape--><rect codeLine="14" fill="#FFFFFF" filter="url(#f1bvjbsslnpdsc)" height="32" id="Shape" style="stroke:#A9A9A9;stroke-width:1.5;" width="70" x="178.5" y="143.5"/><ellipse cx="193.5" cy="159.5" fill="#FFFFFF" rx="11" ry="11" style="stroke:#A9A9A9;stroke-width:1.0;"/><path d="M195.8438,155.1719 C194.9063,154.7344 194.3125,154.5938 193.4375,154.5938 C190.8125,154.5938 188.8125,156.6719 188.8125,159.3906 L188.8125,160.5156 C188.8125,163.0938 190.9219,164.9844 193.8125,164.9844 C195.0313,164.9844 196.1875,164.6875 196.9375,164.1406 C197.5156,163.7344 197.8438,163.2813 197.8438,162.8906 C197.8438,162.4375 197.4531,162.0469 196.9844,162.0469 C196.7656,162.0469 196.5625,162.125 196.375,162.3125 C195.9219,162.7969 195.9219,162.7969 195.7344,162.8906 C195.3125,163.1563 194.625,163.2813 193.8594,163.2813 C191.8125,163.2813 190.5156,162.1875 190.5156,160.4844 L190.5156,159.3906 C190.5156,157.6094 191.7656,156.2969 193.5,156.2969 C194.0781,156.2969 194.6875,156.4531 195.1563,156.7031 C195.6406,156.9844 195.8125,157.2031 195.9063,157.6094 C195.9688,158.0156 196,158.1406 196.1406,158.2656 C196.2813,158.4063 196.5156,158.5156 196.7344,158.5156 C197,158.5156 197.2656,158.375 197.4375,158.1563 C197.5469,158 197.5781,157.8125 197.5781,157.3906 L197.5781,155.9688 C197.5781,155.5313 197.5625,155.4063 197.4688,155.25 C197.3125,154.9844 197.0313,154.8438 196.7344,154.8438 C196.4375,154.8438 196.2344,154.9375 196.0156,155.25 L195.8438,155.1719 Z " fill="#000000"/><text fill="#000000" font-family="sans-serif" font-size="12" lengthAdjust="spacing" textLength="38" x="207.5" y="163.6543">Shape</text><!--MD5=[5655ee3e2a0d028d03fe20f829576392]
class Square--><rect codeLine="16" fill="#FFFFFF" filter="url(#f1bvjbsslnpdsc)" height="32" id="Square" style="stroke:#A9A9A9;stroke-width:1.5;" width="75" x="125" y="246"/><ellipse cx="140" cy="262" fill="#FFFFFF" rx="11" ry="11" style="stroke:#A9A9A9;stroke-width:1.0;"/><path d="M142.3438,257.6719 C141.4063,257.2344 140.8125,257.0938 139.9375,257.0938 C137.3125,257.0938 135.3125,259.1719 135.3125,261.8906 L135.3125,263.0156 C135.3125,265.5938 137.4219,267.4844 140.3125,267.4844 C141.5313,267.4844 142.6875,267.1875 143.4375,266.6406 C144.0156,266.2344 144.3438,265.7813 144.3438,265.3906 C144.3438,264.9375 143.9531,264.5469 143.4844,264.5469 C143.2656,264.5469 143.0625,264.625 142.875,264.8125 C142.4219,265.2969 142.4219,265.2969 142.2344,265.3906 C141.8125,265.6563 141.125,265.7813 140.3594,265.7813 C138.3125,265.7813 137.0156,264.6875 137.0156,262.9844 L137.0156,261.8906 C137.0156,260.1094 138.2656,258.7969 140,258.7969 C140.5781,258.7969 141.1875,258.9531 141.6563,259.2031 C142.1406,259.4844 142.3125,259.7031 142.4063,260.1094 C142.4688,260.5156 142.5,260.6406 142.6406,260.7656 C142.7813,260.9063 143.0156,261.0156 143.2344,261.0156 C143.5,261.0156 143.7656,260.875 143.9375,260.6563 C144.0469,260.5 144.0781,260.3125 144.0781,259.8906 L144.0781,258.4688 C144.0781,258.0313 144.0625,257.9063 143.9688,257.75 C143.8125,257.4844 143.5313,257.3438 143.2344,257.3438 C142.9375,257.3438 142.7344,257.4375 142.5156,257.75 L142.3438,257.6719 Z " fill="#000000"/><text fill="#000000" font-family="sans-serif" font-size="12" lengthAdjust="spacing" textLength="43" x="154" y="266.1543">Square</text><!--MD5=[e773310f43d0f67da189b8f424daff98]
class Oval--><rect codeLine="18" fill="#FFFFFF" filter="url(#f1bvjbsslnpdsc)" height="32" id="Oval" style="stroke:#A9A9A9;stroke-width:1.5;" width="59" x="235" y="246"/><ellipse cx="250" cy="262" fill="#FFFFFF" rx="11" ry="11" style="stroke:#A9A9A9;stroke-width:1.0;"/><path d="M252.3438,257.6719 C251.4063,257.2344 250.8125,257.0938 249.9375,257.0938 C247.3125,257.0938 245.3125,259.1719 245.3125,261.8906 L245.3125,263.0156 C245.3125,265.5938 247.4219,267.4844 250.3125,267.4844 C251.5313,267.4844 252.6875,267.1875 253.4375,266.6406 C254.0156,266.2344 254.3438,265.7813 254.3438,265.3906 C254.3438,264.9375 253.9531,264.5469 253.4844,264.5469 C253.2656,264.5469 253.0625,264.625 252.875,264.8125 C252.4219,265.2969 252.4219,265.2969 252.2344,265.3906 C251.8125,265.6563 251.125,265.7813 250.3594,265.7813 C248.3125,265.7813 247.0156,264.6875 247.0156,262.9844 L247.0156,261.8906 C247.0156,260.1094 248.2656,258.7969 250,258.7969 C250.5781,258.7969 251.1875,258.9531 251.6563,259.2031 C252.1406,259.4844 252.3125,259.7031 252.4063,260.1094 C252.4688,260.5156 252.5,260.6406 252.6406,260.7656 C252.7813,260.9063 253.0156,261.0156 253.2344,261.0156 C253.5,261.0156 253.7656,260.875 253.9375,260.6563 C254.0469,260.5 254.0781,260.3125 254.0781,259.8906 L254.0781,258.4688 C254.0781,258.0313 254.0625,257.9063 253.9688,257.75 C253.8125,257.4844 253.5313,257.3438 253.2344,257.3438 C252.9375,257.3438 252.7344,257.4375 252.5156,257.75 L252.3438,257.6719 Z " fill="#000000"/><text fill="#000000" font-family="sans-serif" font-size="12" lengthAdjust="spacing" textLength="27" x="264" y="266.1543">Oval</text><!--MD5=[b2002fc29e5d1d6a3fbbde9814c3690d]
class Coaster--><rect codeLine="20" fill="#FFFFFF" filter="url(#f1bvjbsslnpdsc)" height="65.6094" id="Coaster" style="stroke:#A9A9A9;stroke-width:1.5;" width="101" x="163" y="7"/><ellipse cx="187.9" cy="23" fill="#FFFFFF" rx="11" ry="11" style="stroke:#A9A9A9;stroke-width:1.0;"/><path d="M190.2438,18.6719 C189.3063,18.2344 188.7125,18.0938 187.8375,18.0938 C185.2125,18.0938 183.2125,20.1719 183.2125,22.8906 L183.2125,24.0156 C183.2125,26.5938 185.3219,28.4844 188.2125,28.4844 C189.4313,28.4844 190.5875,28.1875 191.3375,27.6406 C191.9156,27.2344 192.2438,26.7813 192.2438,26.3906 C192.2438,25.9375 191.8531,25.5469 191.3844,25.5469 C191.1656,25.5469 190.9625,25.625 190.775,25.8125 C190.3219,26.2969 190.3219,26.2969 190.1344,26.3906 C189.7125,26.6563 189.025,26.7813 188.2594,26.7813 C186.2125,26.7813 184.9156,25.6875 184.9156,23.9844 L184.9156,22.8906 C184.9156,21.1094 186.1656,19.7969 187.9,19.7969 C188.4781,19.7969 189.0875,19.9531 189.5563,20.2031 C190.0406,20.4844 190.2125,20.7031 190.3063,21.1094 C190.3688,21.5156 190.4,21.6406 190.5406,21.7656 C190.6813,21.9063 190.9156,22.0156 191.1344,22.0156 C191.4,22.0156 191.6656,21.875 191.8375,21.6563 C191.9469,21.5 191.9781,21.3125 191.9781,20.8906 L191.9781,19.4688 C191.9781,19.0313 191.9625,18.9063 191.8688,18.75 C191.7125,18.4844 191.4313,18.3438 191.1344,18.3438 C190.8375,18.3438 190.6344,18.4375 190.4156,18.75 L190.2438,18.6719 Z " fill="#000000"/><text fill="#000000" font-family="sans-serif" font-size="12" lengthAdjust="spacing" textLength="47" x="204.1" y="27.1543">Coaster</text><line style="stroke:#A9A9A9;stroke-width:1.5;" x1="164" x2="263" y1="39" y2="39"/><text fill="#000000" font-family="sans-serif" font-size="11" lengthAdjust="spacing" textLength="89" x="169" y="53.2104">Boolean owned</text><text fill="#000000" font-family="sans-serif" font-size="11" lengthAdjust="spacing" textLength="73" x="169" y="66.0151">String image</text><!--MD5=[d75b0a238b734941260681f0026bbb88]
class Round--><rect codeLine="24" fill="#FFFFFF" filter="url(#f1bvjbsslnpdsc)" height="32" id="Round" style="stroke:#A9A9A9;stroke-width:1.5;" width="69" x="329" y="246"/><ellipse cx="344" cy="262" fill="#FFFFFF" rx="11" ry="11" style="stroke:#A9A9A9;stroke-width:1.0;"/><path d="M346.3438,257.6719 C345.4063,257.2344 344.8125,257.0938 343.9375,257.0938 C341.3125,257.0938 339.3125,259.1719 339.3125,261.8906 L339.3125,263.0156 C339.3125,265.5938 341.4219,267.4844 344.3125,267.4844 C345.5313,267.4844 346.6875,267.1875 347.4375,266.6406 C348.0156,266.2344 348.3438,265.7813 348.3438,265.3906 C348.3438,264.9375 347.9531,264.5469 347.4844,264.5469 C347.2656,264.5469 347.0625,264.625 346.875,264.8125 C346.4219,265.2969 346.4219,265.2969 346.2344,265.3906 C345.8125,265.6563 345.125,265.7813 344.3594,265.7813 C342.3125,265.7813 341.0156,264.6875 341.0156,262.9844 L341.0156,261.8906 C341.0156,260.1094 342.2656,258.7969 344,258.7969 C344.5781,258.7969 345.1875,258.9531 345.6563,259.2031 C346.1406,259.4844 346.3125,259.7031 346.4063,260.1094 C346.4688,260.5156 346.5,260.6406 346.6406,260.7656 C346.7813,260.9063 347.0156,261.0156 347.2344,261.0156 C347.5,261.0156 347.7656,260.875 347.9375,260.6563 C348.0469,260.5 348.0781,260.3125 348.0781,259.8906 L348.0781,258.4688 C348.0781,258.0313 348.0625,257.9063 347.9688,257.75 C347.8125,257.4844 347.5313,257.3438 347.2344,257.3438 C346.9375,257.3438 346.7344,257.4375 346.5156,257.75 L346.3438,257.6719 Z " fill="#000000"/><text fill="#000000" font-family="sans-serif" font-size="12" lengthAdjust="spacing" textLength="37" x="358" y="266.1543">Round</text><!--MD5=[f4d134b883c3cc45571da9c280ad87cf]
class Brewery--><rect codeLine="26" fill="#FFFFFF" filter="url(#f1bvjbsslnpdsc)" height="32" id="Brewery" style="stroke:#A9A9A9;stroke-width:1.5;" width="83" x="7" y="246"/><ellipse cx="22" cy="262" fill="#FFFFFF" rx="11" ry="11" style="stroke:#A9A9A9;stroke-width:1.0;"/><path d="M24.3438,257.6719 C23.4063,257.2344 22.8125,257.0938 21.9375,257.0938 C19.3125,257.0938 17.3125,259.1719 17.3125,261.8906 L17.3125,263.0156 C17.3125,265.5938 19.4219,267.4844 22.3125,267.4844 C23.5313,267.4844 24.6875,267.1875 25.4375,266.6406 C26.0156,266.2344 26.3438,265.7813 26.3438,265.3906 C26.3438,264.9375 25.9531,264.5469 25.4844,264.5469 C25.2656,264.5469 25.0625,264.625 24.875,264.8125 C24.4219,265.2969 24.4219,265.2969 24.2344,265.3906 C23.8125,265.6563 23.125,265.7813 22.3594,265.7813 C20.3125,265.7813 19.0156,264.6875 19.0156,262.9844 L19.0156,261.8906 C19.0156,260.1094 20.2656,258.7969 22,258.7969 C22.5781,258.7969 23.1875,258.9531 23.6563,259.2031 C24.1406,259.4844 24.3125,259.7031 24.4063,260.1094 C24.4688,260.5156 24.5,260.6406 24.6406,260.7656 C24.7813,260.9063 25.0156,261.0156 25.2344,261.0156 C25.5,261.0156 25.7656,260.875 25.9375,260.6563 C26.0469,260.5 26.0781,260.3125 26.0781,259.8906 L26.0781,258.4688 C26.0781,258.0313 26.0625,257.9063 25.9688,257.75 C25.8125,257.4844 25.5313,257.3438 25.2344,257.3438 C24.9375,257.3438 24.7344,257.4375 24.5156,257.75 L24.3438,257.6719 Z " fill="#000000"/><text fill="#000000" font-family="sans-serif" font-size="12" lengthAdjust="spacing" textLength="51" x="36" y="266.1543">Brewery</text><!--MD5=[7fba0811110749676b533244f4cbf015]
class CCModel--><rect codeLine="28" fill="#FFFFFF" filter="url(#f1bvjbsslnpdsc)" height="32" id="CCModel" style="stroke:#A9A9A9;stroke-width:1.5;" width="85" x="299" y="24"/><ellipse cx="314" cy="40" fill="#FFFFFF" rx="11" ry="11" style="stroke:#A9A9A9;stroke-width:1.0;"/><path d="M316.3438,35.6719 C315.4063,35.2344 314.8125,35.0938 313.9375,35.0938 C311.3125,35.0938 309.3125,37.1719 309.3125,39.8906 L309.3125,41.0156 C309.3125,43.5938 311.4219,45.4844 314.3125,45.4844 C315.5313,45.4844 316.6875,45.1875 317.4375,44.6406 C318.0156,44.2344 318.3438,43.7813 318.3438,43.3906 C318.3438,42.9375 317.9531,42.5469 317.4844,42.5469 C317.2656,42.5469 317.0625,42.625 316.875,42.8125 C316.4219,43.2969 316.4219,43.2969 316.2344,43.3906 C315.8125,43.6563 315.125,43.7813 314.3594,43.7813 C312.3125,43.7813 311.0156,42.6875 311.0156,40.9844 L311.0156,39.8906 C311.0156,38.1094 312.2656,36.7969 314,36.7969 C314.5781,36.7969 315.1875,36.9531 315.6563,37.2031 C316.1406,37.4844 316.3125,37.7031 316.4063,38.1094 C316.4688,38.5156 316.5,38.6406 316.6406,38.7656 C316.7813,38.9063 317.0156,39.0156 317.2344,39.0156 C317.5,39.0156 317.7656,38.875 317.9375,38.6563 C318.0469,38.5 318.0781,38.3125 318.0781,37.8906 L318.0781,36.4688 C318.0781,36.0313 318.0625,35.9063 317.9688,35.75 C317.8125,35.4844 317.5313,35.3438 317.2344,35.3438 C316.9375,35.3438 316.7344,35.4375 316.5156,35.75 L316.3438,35.6719 Z " fill="#000000"/><text fill="#000000" font-family="sans-serif" font-size="12" lengthAdjust="spacing" textLength="53" x="328" y="44.1543">CCModel</text><!--MD5=[deb4e1f6eb1e3c1256fdb830f96abfbb]
class Country--><rect codeLine="30" fill="#FFFFFF" filter="url(#f1bvjbsslnpdsc)" height="52.8047" id="Country" style="stroke:#A9A9A9;stroke-width:1.5;" width="82" x="283.5" y="133"/><ellipse cx="300.3" cy="149" fill="#FFFFFF" rx="11" ry="11" style="stroke:#A9A9A9;stroke-width:1.0;"/><path d="M302.6438,144.6719 C301.7063,144.2344 301.1125,144.0938 300.2375,144.0938 C297.6125,144.0938 295.6125,146.1719 295.6125,148.8906 L295.6125,150.0156 C295.6125,152.5938 297.7219,154.4844 300.6125,154.4844 C301.8313,154.4844 302.9875,154.1875 303.7375,153.6406 C304.3156,153.2344 304.6438,152.7813 304.6438,152.3906 C304.6438,151.9375 304.2531,151.5469 303.7844,151.5469 C303.5656,151.5469 303.3625,151.625 303.175,151.8125 C302.7219,152.2969 302.7219,152.2969 302.5344,152.3906 C302.1125,152.6563 301.425,152.7813 300.6594,152.7813 C298.6125,152.7813 297.3156,151.6875 297.3156,149.9844 L297.3156,148.8906 C297.3156,147.1094 298.5656,145.7969 300.3,145.7969 C300.8781,145.7969 301.4875,145.9531 301.9563,146.2031 C302.4406,146.4844 302.6125,146.7031 302.7063,147.1094 C302.7688,147.5156 302.8,147.6406 302.9406,147.7656 C303.0813,147.9063 303.3156,148.0156 303.5344,148.0156 C303.8,148.0156 304.0656,147.875 304.2375,147.6563 C304.3469,147.5 304.3781,147.3125 304.3781,146.8906 L304.3781,145.4688 C304.3781,145.0313 304.3625,144.9063 304.2688,144.75 C304.1125,144.4844 303.8313,144.3438 303.5344,144.3438 C303.2375,144.3438 303.0344,144.4375 302.8156,144.75 L302.6438,144.6719 Z " fill="#000000"/><text fill="#000000" font-family="sans-serif" font-size="12" lengthAdjust="spacing" textLength="46" x="314.7" y="153.1543">Country</text><line style="stroke:#A9A9A9;stroke-width:1.5;" x1="284.5" x2="364.5" y1="165" y2="165"/><text fill="#000000" font-family="sans-serif" font-size="11" lengthAdjust="spacing" textLength="70" x="289.5" y="179.2104">String name</text><!--MD5=[d4ca5a4026589bf67f913f07d54add2c]
reverse link Shape to Square--><path codeLine="34" d="M196.613,193.7771 C187.67,211.4008 177.125,232.1807 170.152,245.9219 " fill="none" id="Shape-backto-Square" style="stroke:#000000;stroke-width:1.0;"/><polygon fill="none" points="190.461,190.4311,205.754,175.764,202.946,196.7665,190.461,190.4311" style="stroke:#000000;stroke-width:1.0;"/><!--MD5=[ca8ff0fe64db6b6124b7c0c77867bb8c]
reverse link Shape to Oval--><path codeLine="35" d="M230.387,193.7771 C239.33,211.4008 249.875,232.1807 256.848,245.9219 " fill="none" id="Shape-backto-Oval" style="stroke:#000000;stroke-width:1.0;"/><polygon fill="none" points="224.054,196.7665,221.246,175.764,236.539,190.4311,224.054,196.7665" style="stroke:#000000;stroke-width:1.0;"/><!--MD5=[2d877bb72cea9c5576d21de85354215f]
reverse link Shape to Round--><path codeLine="36" d="M252.908,186.9034 C280.95,205.6914 317.634,230.2697 340.89,245.8513 " fill="none" id="Shape-backto-Round" style="stroke:#000000;stroke-width:1.0;"/><polygon fill="none" points="248.676,192.4936,235.957,175.546,256.468,180.8628,248.676,192.4936" style="stroke:#000000;stroke-width:1.0;"/><!--MD5=[6946b53d1c23a298093e646c61c66bda]
reverse link Creator to Brewery--><path codeLine="37" d="M78.4942,204.1242 C70.6564,218.9864 62.4037,234.6355 56.5433,245.7482 " fill="none" id="Creator-backto-Brewery" style="stroke:#000000;stroke-width:1.0;"/><polygon fill="none" points="72.4675,200.5458,87.9887,186.1204,84.851,207.0765,72.4675,200.5458" style="stroke:#000000;stroke-width:1.0;"/><!--MD5=[16434731f85cfc684275fff719fe2dc4]
link Coaster to Creator--><path codeLine="39" d="M182.896,73.107 C165.02,91.861 142.764,115.21 126.044,132.75 " fill="none" id="Coaster-Creator" style="stroke:#000000;stroke-width:1.0;"/><text fill="#000000" font-family="sans-serif" font-size="13" lengthAdjust="spacing" textLength="62" x="109.169" y="92.7091">*coasters</text><text fill="#000000" font-family="sans-serif" font-size="13" lengthAdjust="spacing" textLength="46" x="80.4014" y="121.9345">creator</text><!--MD5=[07f7a1d76d7473e2ecd087003039a793]
link Coaster to Shape--><path codeLine="40" d="M213.5,73.107 C213.5,95.938 213.5,125.579 213.5,143.259 " fill="none" id="Coaster-Shape" style="stroke:#000000;stroke-width:1.0;"/><text fill="#000000" font-family="sans-serif" font-size="13" lengthAdjust="spacing" textLength="62" x="223.5844" y="92.7091">*coasters</text><text fill="#000000" font-family="sans-serif" font-size="13" lengthAdjust="spacing" textLength="39" x="168.0406" y="132.4837">shape</text><!--MD5=[45e174064e1d931480ae555867255a5e]
link Coaster to Country--><path codeLine="41" d="M243.831,73.107 C261.548,91.861 283.605,115.21 300.175,132.75 " fill="none" id="Coaster-Country" style="stroke:#000000;stroke-width:1.0;"/><text fill="#000000" font-family="sans-serif" font-size="13" lengthAdjust="spacing" textLength="62" x="275.5383" y="81.4915">*coasters</text><text fill="#000000" font-family="sans-serif" font-size="13" lengthAdjust="spacing" textLength="49" x="239.8842" y="121.9345">country</text><!--MD5=[8c62e2d3061ef70a34ffecd972535af5]
@startuml
hide empty members

skinparam class {
  BackgroundColor white
  ArrowColor black
  BorderColor darkGray
  BackgroundColor<<External>> LightYellow
  BorderColor<<External>> LightGray
}

class Creator << (C,white) >> {
  String name
}
class Shape << (C,white) >> {
}
class Square << (C,white) >> {
}
class Oval << (C,white) >> {
}
class Coaster << (C,white) >> {
  Boolean owned
  String image
}
class Round << (C,white) >> {
}
class Brewery << (C,white) >> {
}
class CCModel << (C,white) >> {
}
class Country << (C,white) >> {
  String name
}

Shape <|- - Square
Shape <|- - Oval
Shape <|- - Round
Creator <|- - Brewery

Coaster " *coasters" - - "creator" Creator
Coaster " *coasters" - - "shape" Shape
Coaster " *coasters" - - "country" Country
@enduml

PlantUML version 1.2021.7(Sun May 23 12:40:07 UTC 2021)
(GPL source distribution)
Java Runtime: Java(TM) SE Runtime Environment
JVM: Java HotSpot(TM) 64-Bit Server VM
Default Encoding: UTF-8
Language: en
Country: US
--></g></svg>