<?xml version="1.0" encoding="UTF-8" standalone="no"?>
<svg xmlns="http://www.w3.org/2000/svg" xmlns:xlink="http://www.w3.org/1999/xlink" contentScriptType="application/ecmascript" contentStyleType="text/css" height="151px" preserveAspectRatio="none" style="width:240px;height:151px;background:#FFFFFF;" version="1.1" viewBox="0 0 240 151" width="240px" zoomAndPan="magnify"><defs><filter height="300%" id="fuy3l5xclpfwd" width="300%" x="-1" y="-1"><feGaussianBlur result="blurOut" stdDeviation="2.0"/><feColorMatrix in="blurOut" result="blurOut2" type="matrix" values="0 0 0 0 0 0 0 0 0 0 0 0 0 0 0 0 0 0 .4 0"/><feOffset dx="4.0" dy="4.0" in="blurOut2" result="blurOut3"/><feBlend in="SourceGraphic" in2="blurOut3" mode="normal"/></filter></defs><g><!--MD5=[213ccc2a6a3bbfcf3ba9f50270d5840a]
class CCEModel--><!--MD5=[ac13618b1a974308c1f12eb6c57723dc]
class Event--><rect codeLine="13" fill="#FFFFFF" filter="url(#fuy3l5xclpfwd)" height="32" id="Event" style="stroke:#A9A9A9;stroke-width:1.5;" width="65" x="147.5" y="105"/><ellipse cx="162.5" cy="121" fill="#FFFFFF" rx="11" ry="11" style="stroke:#A9A9A9;stroke-width:1.0;"/><path d="M164.8438,116.6719 C163.9063,116.2344 163.3125,116.0938 162.4375,116.0938 C159.8125,116.0938 157.8125,118.1719 157.8125,120.8906 L157.8125,122.0156 C157.8125,124.5938 159.9219,126.4844 162.8125,126.4844 C164.0313,126.4844 165.1875,126.1875 165.9375,125.6406 C166.5156,125.2344 166.8438,124.7813 166.8438,124.3906 C166.8438,123.9375 166.4531,123.5469 165.9844,123.5469 C165.7656,123.5469 165.5625,123.625 165.375,123.8125 C164.9219,124.2969 164.9219,124.2969 164.7344,124.3906 C164.3125,124.6563 163.625,124.7813 162.8594,124.7813 C160.8125,124.7813 159.5156,123.6875 159.5156,121.9844 L159.5156,120.8906 C159.5156,119.1094 160.7656,117.7969 162.5,117.7969 C163.0781,117.7969 163.6875,117.9531 164.1563,118.2031 C164.6406,118.4844 164.8125,118.7031 164.9063,119.1094 C164.9688,119.5156 165,119.6406 165.1406,119.7656 C165.2813,119.9063 165.5156,120.0156 165.7344,120.0156 C166,120.0156 166.2656,119.875 166.4375,119.6563 C166.5469,119.5 166.5781,119.3125 166.5781,118.8906 L166.5781,117.4688 C166.5781,117.0313 166.5625,116.9063 166.4688,116.75 C166.3125,116.4844 166.0313,116.3438 165.7344,116.3438 C165.4375,116.3438 165.2344,116.4375 165.0156,116.75 L164.8438,116.6719 Z " fill="#000000"/><text fill="#000000" font-family="sans-serif" font-size="12" lengthAdjust="spacing" textLength="33" x="176.5" y="125.1543">Event</text><!--MD5=[7e20e022571e30ec1001cf6eabd7f3e2]
class Model--><!--MD5=[2c589014e840926a718801db2289e0a7]
class Creator--><rect codeLine="21" fill="#FFFFE0" filter="url(#fuy3l5xclpfwd)" height="37.9375" id="Creator" style="stroke:#D3D3D3;stroke-width:1.5;" width="92" x="134" y="7"/><ellipse cx="149" cy="25.9688" fill="#FFFFE0" rx="11" ry="11" style="stroke:#D3D3D3;stroke-width:1.0;"/><path d="M151.3438,21.6406 C150.4063,21.2031 149.8125,21.0625 148.9375,21.0625 C146.3125,21.0625 144.3125,23.1406 144.3125,25.8594 L144.3125,26.9844 C144.3125,29.5625 146.4219,31.4531 149.3125,31.4531 C150.5313,31.4531 151.6875,31.1563 152.4375,30.6094 C153.0156,30.2031 153.3438,29.75 153.3438,29.3594 C153.3438,28.9063 152.9531,28.5156 152.4844,28.5156 C152.2656,28.5156 152.0625,28.5938 151.875,28.7813 C151.4219,29.2656 151.4219,29.2656 151.2344,29.3594 C150.8125,29.625 150.125,29.75 149.3594,29.75 C147.3125,29.75 146.0156,28.6563 146.0156,26.9531 L146.0156,25.8594 C146.0156,24.0781 147.2656,22.7656 149,22.7656 C149.5781,22.7656 150.1875,22.9219 150.6563,23.1719 C151.1406,23.4531 151.3125,23.6719 151.4063,24.0781 C151.4688,24.4844 151.5,24.6094 151.6406,24.7344 C151.7813,24.875 152.0156,24.9844 152.2344,24.9844 C152.5,24.9844 152.7656,24.8438 152.9375,24.625 C153.0469,24.4688 153.0781,24.2813 153.0781,23.8594 L153.0781,22.4375 C153.0781,22 153.0625,21.875 152.9688,21.7188 C152.8125,21.4531 152.5313,21.3125 152.2344,21.3125 C151.9375,21.3125 151.7344,21.4063 151.5156,21.7188 L151.3438,21.6406 Z " fill="#000000"/><text fill="#000000" font-family="sans-serif" font-size="12" font-style="italic" lengthAdjust="spacing" textLength="64" x="161" y="23.1387">«External»</text><text fill="#000000" font-family="sans-serif" font-size="12" lengthAdjust="spacing" textLength="45" x="170.5" y="37.1074">Creator</text><!--MD5=[a684c4dfdaa62df07dd96f7d64e0b677]
reverse link Model to CCEModel--><!--MD5=[8849925c04c4c54ff28e7f15b57702cb]
reverse link Creator to Event--><path codeLine="17" d="M180,65.5245 C180,79.3147 180,94.0696 180,104.7406 " fill="none" id="Creator-backto-Event" style="stroke:#000000;stroke-width:1.0;"/><polygon fill="none" points="173,65.3738,180,45.3738,187,65.3738,173,65.3738" style="stroke:#000000;stroke-width:1.0;"/><!--MD5=[e5d396af40e255421068d9bb07e9eb2b]
@startuml
hide empty members

skinparam class {
  BackgroundColor white
  ArrowColor black
  BorderColor darkGray
  BackgroundColor<<External>> LightYellow
  BorderColor<<External>> LightGray
}

class CCEModel << (C,white) >> {
}
class Event << (C,white) >> {
}

Model <|- - CCEModel
Creator <|- - Event


class Model <<(C,LightYellow)External>>
class Creator <<(C,LightYellow)External>>

hide CCEModel
hide Model
@enduml

PlantUML version 1.2021.7(Sun May 23 12:40:07 UTC 2021)
(GPL source distribution)
Java Runtime: Java(TM) SE Runtime Environment
JVM: Java HotSpot(TM) 64-Bit Server VM
Default Encoding: UTF-8
Language: en
Country: US
--></g></svg>