<?xml version="1.0" encoding="UTF-8" standalone="no"?>
<!-- Created with Inkscape (http://www.inkscape.org/) -->

<svg
   width="17mm"
   height="12mm"
   viewBox="0 0 17 12"
   version="1.1"
   id="svg1"
   inkscape:version="1.3.1 (9b9bdc1480, 2023-11-25, custom)"
   sodipodi:docname="moose-logo.svg"
   xmlns:inkscape="http://www.inkscape.org/namespaces/inkscape"
   xmlns:sodipodi="http://sodipodi.sourceforge.net/DTD/sodipodi-0.dtd"
   xmlns="http://www.w3.org/2000/svg"
   xmlns:svg="http://www.w3.org/2000/svg">
  <sodipodi:namedview
     id="namedview1"
     pagecolor="#ffffff"
     bordercolor="#666666"
     borderopacity="1.0"
     inkscape:showpageshadow="2"
     inkscape:pageopacity="0.0"
     inkscape:pagecheckerboard="0"
     inkscape:deskcolor="#d1d1d1"
     inkscape:document-units="mm"
     inkscape:zoom="5"
     inkscape:cx="59.4"
     inkscape:cy="42.5"
     inkscape:current-layer="layer1"
     inkscape:window-width="1920"
     inkscape:window-height="1011"
     inkscape:window-x="0"
     inkscape:window-y="0"
     inkscape:window-maximized="1"
     showgrid="false" />
  <defs
     id="defs1">
    <inkscape:path-effect
       effect="perspective-envelope"
       up_left_point="59.278536,104.96202"
       up_right_point="105.32767,100.23249"
       down_left_point="59.278536,118.55766"
       down_right_point="105.32767,107.65406"
       id="path-effect2"
       is_visible="true"
       lpeversion="1"
       deform_type="perspective"
       horizontal_mirror="false"
       vertical_mirror="false"
       overflow_perspective="false" />
    <inkscape:path-effect
       effect="perspective-envelope"
       up_left_point="63.032345,186.43307"
       up_right_point="113.81362,178.74672"
       down_left_point="63.032345,196.789"
       down_right_point="113.81362,185.28376"
       id="path-effect10"
       is_visible="true"
       lpeversion="1"
       deform_type="perspective"
       horizontal_mirror="false"
       vertical_mirror="false"
       overflow_perspective="false" />
    <inkscape:path-effect
       effect="perspective-envelope"
       up_left_point="60.5696,166.79296"
       up_right_point="107.07146,162.10177"
       down_left_point="60.5696,176.47397"
       down_right_point="107.07146,169.48112"
       id="path-effect9"
       is_visible="true"
       lpeversion="1"
       deform_type="perspective"
       horizontal_mirror="false"
       vertical_mirror="false"
       overflow_perspective="false" />
    <inkscape:path-effect
       effect="perspective-envelope"
       up_left_point="59.278536,104.96202"
       up_right_point="105.32767,100.23249"
       down_left_point="59.278536,118.55766"
       down_right_point="105.32767,107.65406"
       id="path-effect8"
       is_visible="true"
       lpeversion="1"
       deform_type="perspective"
       horizontal_mirror="false"
       vertical_mirror="false"
       overflow_perspective="false" />
    <inkscape:path-effect
       effect="bend_path"
       id="path-effect7"
       is_visible="true"
       lpeversion="1"
       bendpath="m 60.5696,171.63346 c 19.165234,-7.61939 35.92275,-8.08568 46.50186,0"
       prop_scale="1"
       scale_y_rel="false"
       vertical="false"
       hide_knot="false"
       bendpath-nodetypes="cc" />
    <inkscape:path-effect
       effect="bend_path"
       id="path-effect6"
       is_visible="true"
       lpeversion="1"
       bendpath="m 61.199364,114.9322 c 10.380722,-6.75793 32.221413,-7.17284 41.954346,0"
       prop_scale="1.078525"
       scale_y_rel="false"
       vertical="false"
       hide_knot="false"
       bendpath-nodetypes="cc" />
    <inkscape:path-effect
       effect="bend_path"
       id="path-effect6-0"
       is_visible="true"
       lpeversion="1"
       bendpath="m 61.199364,114.9322 c 10.380722,-6.75793 32.221413,-7.17284 41.954346,0"
       prop_scale="1.078525"
       scale_y_rel="false"
       vertical="false"
       hide_knot="false"
       bendpath-nodetypes="cc" />
  </defs>
  <g
     inkscape:label="Layer 1"
     inkscape:groupmode="layer"
     id="layer1"
     transform="translate(-111.21328,-127.82209)"
     style="display:inline">
    <rect
       style="display:none;fill:#cccccc;stroke:#ededed;stroke-width:0.264583"
       id="rect1"
       width="16.937592"
       height="11.336687"
       x="111.25381"
       y="128.10574"
       ry="0.65476435" />
    <path
       d="m 62.834504,108.18748 0.244478,7.93669 c 0.0086,0.36129 -0.154253,0.71117 -0.490184,1.05141 -0.338236,0.33579 -0.748966,0.56103 -1.23398,0.67482 l -0.293303,0.0688 c -0.465701,0.10926 -0.876777,0.0672 -1.231825,-0.12801 -0.366768,-0.19449 -0.551154,-0.47047 -0.551154,-0.82687 v -9.19311 c 0,-0.7128 0.326824,-1.35915 0.974193,-1.93347 0.63913,-0.56013 1.411284,-0.8854 2.310134,-0.97986 l 0.0389,-0.004 c 0.694932,-0.073 1.312845,0.0221 1.856479,0.28238 0.53756,0.25737 0.898051,0.63366 1.085412,1.12957 l 2.4707,6.62158 2.323636,-7.19344 c 0.161001,-0.51085 0.481287,-0.94497 0.957473,-1.30087 0.471167,-0.35828 0.993572,-0.56327 1.56533,-0.61726 l 0.03116,-0.003 c 0.693663,-0.0729 1.275723,0.0776 1.750431,0.44755 0.482678,0.36437 0.721991,0.84783 0.721991,1.45345 v 7.73477 c 0,0.31162 -0.134244,0.61268 -0.404003,0.90456 -0.271468,0.29371 -0.641695,0.49613 -1.113218,0.60675 l -0.02032,0.005 c -0.374286,0.0878 -0.696695,0.0488 -0.966042,-0.11832 -0.271009,-0.17426 -0.407141,-0.42596 -0.407141,-0.75429 l 0.188379,-7.23144 -2.326042,7.49849 c -0.139577,0.45468 -0.427434,0.86628 -0.866406,1.23641 -0.443238,0.36741 -0.921306,0.61225 -1.43523,0.73282 l -0.0463,0.0109 c -0.535826,0.12572 -1.02655,0.10195 -1.470647,-0.0736 -0.456369,-0.18194 -0.763079,-0.47216 -0.917182,-0.87031 z m 17.637833,2.97219 c 0.550949,0.54466 1.178624,0.73627 1.879239,0.58247 0.688302,-0.1511 1.298045,-0.59817 1.832639,-1.33543 0.527225,-0.7271 0.788122,-1.93476 0.788122,-3.63047 0,-0.8609 -0.260897,-1.56256 -0.788122,-2.11062 -0.534594,-0.55572 -1.144337,-0.79572 -1.832639,-0.71307 -0.700615,0.0841 -1.32544,0.48577 -1.870572,1.21119 -0.558503,0.73623 -0.840682,1.56339 -0.840682,2.47375 -0.0059,1.79388 0.273382,2.96994 0.832015,3.52218 z m 2.274041,-8.57579 c 1.361545,0.0285 2.459494,0.43557 3.314439,1.2087 0.835795,0.75581 1.24671,1.8151 1.24671,3.19051 0,1.37541 -0.388916,2.57714 -1.17925,3.62171 -0.802352,1.06085 -1.920416,1.80761 -3.381899,2.23496 -0.103797,0.0298 -0.172235,0.054 -0.205128,0.0724 -0.03292,0.0185 -0.05763,0.0271 -0.07411,0.0256 l -0.140371,0.033 -0.07452,0.0175 c -0.03316,0.0133 -0.102348,0.0187 -0.207742,0.0163 -1.592402,0.22448 -2.872923,-0.0138 -3.808534,-0.73391 -0.95734,-0.73684 -1.444396,-1.90954 -1.444396,-3.5052 0,-1.58988 0.546371,-2.95585 1.618035,-4.07588 1.044455,-1.09159 2.261596,-1.76482 3.634895,-2.03325 0.160749,-0.0328 0.279502,-0.0559 0.356636,-0.0692 0.08248,-0.003 0.19765,-0.004 0.345234,-0.003 z m 8.043517,6.43889 c 0.418694,0.48782 0.896599,0.67018 1.431181,0.55283 0.52636,-0.11554 0.993621,-0.49244 1.404049,-1.12618 0.405465,-0.62608 0.606364,-1.68044 0.606364,-3.16877 0,-0.75561 -0.200899,-1.3754 -0.606364,-1.86378 -0.410428,-0.49436 -0.877689,-0.71257 -1.404049,-0.64937 -0.534582,0.0642 -1.010319,0.40617 -1.4246,1.03074 -0.423693,0.63269 -0.637471,1.34802 -0.637471,2.14022 -0.0045,1.56092 0.207111,2.59057 0.63089,3.08431 z m 1.732953,-7.44702 c 1.043662,0.0404 1.888615,0.41037 2.548639,1.10043 0.647006,0.67646 0.965748,1.61559 0.965748,2.82736 0,1.21176 -0.301688,2.26218 -0.913591,3.16381 -0.619609,0.91333 -1.480349,1.54083 -2.600796,1.87774 -0.07938,0.0234 -0.131698,0.0428 -0.156841,0.058 -0.02516,0.0153 -0.04404,0.0222 -0.05664,0.0205 l -0.107241,0.0252 -0.05691,0.0134 c -0.02532,0.0108 -0.07814,0.0137 -0.158586,0.009 -1.212095,0.15442 -2.182312,-0.0861 -2.888691,-0.73535 -0.7206,-0.66229 -1.086368,-1.68958 -1.086368,-3.07182 0,-1.37725 0.410351,-2.55201 1.217305,-3.50803 0.78913,-0.93489 1.712068,-1.50634 2.757754,-1.72471 0.122703,-0.0268 0.21339,-0.0456 0.272314,-0.0564 0.06302,-0.002 0.151052,-0.001 0.263904,0.001 z m 8.444872,4.69708 c 0,0.66255 -0.18151,1.25126 -0.54786,1.77085 -0.443596,0.61811 -1.102761,1.03357 -1.991477,1.24401 -0.34654,0.082 -0.782502,0.0897 -1.311562,0.0214 -0.167385,-0.009 -0.297166,-0.10044 -0.38888,-0.2733 -0.09566,-0.17255 -0.123309,-0.3673 -0.08277,-0.58365 l 0.01105,-0.0289 c 0.04783,-0.23523 0.154271,-0.42519 0.318742,-0.56958 0.167251,-0.14879 0.342644,-0.20476 0.526036,-0.16864 0.427352,0.0755 0.780835,0.0828 1.062847,0.023 0.276039,-0.0585 0.500227,-0.18029 0.673663,-0.36503 0.172461,-0.18371 0.25833,-0.39324 0.25833,-0.62938 0,-0.24035 -0.07575,-0.4219 -0.227825,-0.54511 -0.156234,-0.12319 -0.428128,-0.2365 -0.818753,-0.34042 -1.230985,-0.3192 -1.864921,-1.04016 -1.864921,-2.15332 0,-0.75978 0.240807,-1.39191 0.717034,-1.89076 0.469176,-0.51314 1.076491,-0.80132 1.813811,-0.86899 0.261046,-0.027 0.608465,0.004 1.039294,0.0927 0.15427,0.0293 0.27353,0.13275 0.3582,0.31008 0.0844,0.17684 0.10712,0.36462 0.0682,0.56391 l -0.01,0.0136 c -0.0487,0.19667 -0.13825,0.35322 -0.26895,0.46979 -0.13456,0.12169 -0.28129,0.16603 -0.440352,0.13248 -0.668457,-0.14992 -1.149326,-0.0697 -1.433468,0.24529 -0.153543,0.17074 -0.230599,0.36623 -0.230599,0.58584 0,0.21962 0.08755,0.38546 0.261913,0.49706 0.169933,0.11151 0.508741,0.24737 1.010913,0.40609 1.006273,0.31378 1.497113,0.99153 1.497113,2.04091 z m 2.09085,0.44124 1.79444,-0.42503 c 0.12291,-0.0298 0.23279,0.007 0.32979,0.10848 0.0967,0.10154 0.14487,0.24755 0.14487,0.43829 v 0.0229 c 0,0.17929 -0.0455,0.34417 -0.13657,0.49502 -0.0914,0.1475 -0.20404,0.23515 -0.33809,0.2627 l -2.34545,0.54905 c -0.22275,0.0522 -0.41637,-0.01 -0.58025,-0.18607 -0.1648,-0.17753 -0.24755,-0.41508 -0.24755,-0.71191 l 0,-5.51371 c 0,-0.29277 0.0796,-0.55792 0.23825,-0.7945 0.15776,-0.23128 0.35454,-0.3587 0.58955,-0.38306 l 2.23183,-0.23129 c 0.15977,-0.0166 0.28387,0.0473 0.37277,0.19113 0.13558,0.21461 0.16455,0.43474 0.0872,0.66165 -0.0775,0.22754 -0.13164,0.36072 -0.16222,0.39909 -0.0947,0.11571 -0.19676,0.17693 -0.30621,0.18338 l -1.67239,0.10898 v 1.6917 l 1.57944,-0.29974 c 0.12667,-0.0237 0.23738,0.0187 0.33233,0.12675 0.0946,0.1076 0.14182,0.25317 0.14182,0.43699 v 0.023 c 0,0.18382 -0.0472,0.34713 -0.14182,0.49028 -0.0949,0.14363 -0.20566,0.22504 -0.33233,0.24391 l -1.57944,0.22977 z"
       id="path1"
       style="-inkscape-font-specification:'Dyuthi, Normal';display:none;fill:#ffffff;fill-opacity:1;stroke-width:0.264583"
       aria-label="MOOSE"
       transform="matrix(1.02,0,0,0.68161909,51.02185,58.195196)"
       inkscape:original-d="m 63.032154,112.9099 0.130913,5.44325 q 0.0069,0.37207 -0.261827,0.64079 -0.268717,0.26182 -0.647677,0.26182 h -0.151585 q -0.358289,0 -0.627006,-0.2756 -0.275608,-0.27561 -0.275608,-0.62701 v -6.04269 q 0,-0.7028 0.489203,-1.1989 0.489204,-0.4892 1.198893,-0.4892 h 0.02067 q 0.558105,0 1.005967,0.33073 0.447862,0.33073 0.606337,0.87505 l 1.433158,4.98161 1.419379,-4.96783 q 0.151584,-0.54432 0.606336,-0.88194 0.454752,-0.34451 1.019747,-0.33762 h 0.02067 q 0.695909,0 1.185112,0.4892 0.502983,0.48921 0.502983,1.1989 v 6.04269 q 0,0.36518 -0.282497,0.6339 -0.282498,0.26871 -0.764811,0.26871 h -0.01378 q -0.37896,0 -0.647678,-0.26182 -0.268717,-0.26872 -0.268717,-0.64079 l 0.124023,-5.44325 -1.49517,5.29166 q -0.130913,0.46854 -0.537434,0.76481 -0.406521,0.28939 -0.868164,0.28939 h -0.02756 q -0.475423,0 -0.861274,-0.29628 -0.39274,-0.30316 -0.523654,-0.75792 z m 11.49283,4.51307 q 0.661457,0.82683 1.529621,0.82683 0.868163,0 1.564072,-0.81305 0.695909,-0.81304 0.695909,-3.05235 0,-1.13688 -0.695909,-1.94992 -0.695909,-0.81304 -1.564072,-0.81304 -0.868164,0 -1.522731,0.81993 -0.661458,0.81993 -0.661458,1.94303 -0.0069,2.21175 0.654568,3.03857 z m 1.86035,-6.93152 q 1.750107,0.22048 2.914548,1.38492 1.164442,1.16445 1.164442,3.03858 0,1.87413 -1.10243,3.05924 -1.09554,1.17822 -2.97656,1.28846 -0.130914,0.007 -0.172255,0.0207 -0.04134,0.0138 -0.06201,0.007 h -0.117133 q -0.02756,0 -0.06201,0 -0.04134,0.007 -0.172255,-0.0276 -1.936142,-0.18603 -3.004121,-1.31602 -1.067979,-1.12999 -1.067979,-3.03168 0,-1.89481 1.198892,-3.07992 1.198893,-1.18511 2.873208,-1.34358 0.199815,-0.0207 0.296278,-0.0276 0.103353,0.007 0.289388,0.0276 z m 7.551643,6.93152 q 0.661457,0.82683 1.529621,0.82683 0.868163,0 1.564072,-0.81305 0.695909,-0.81304 0.695909,-3.05235 0,-1.13688 -0.695909,-1.94992 -0.695909,-0.81304 -1.564072,-0.81304 -0.868164,0 -1.522731,0.81993 -0.661458,0.81993 -0.661458,1.94303 -0.0069,2.21175 0.654568,3.03857 z m 1.86035,-6.93152 q 1.750107,0.22048 2.914548,1.38492 1.164442,1.16445 1.164442,3.03858 0,1.87413 -1.10243,3.05924 -1.09554,1.17822 -2.97656,1.28846 -0.130914,0.007 -0.172255,0.0207 -0.04134,0.0138 -0.06201,0.007 h -0.117133 q -0.02756,0 -0.06201,0 -0.04134,0.007 -0.172255,-0.0276 -1.936142,-0.18603 -3.004121,-1.31602 -1.067979,-1.12999 -1.067979,-3.03168 0,-1.89481 1.198892,-3.07992 1.198893,-1.18511 2.873208,-1.34358 0.199815,-0.0207 0.296278,-0.0276 0.103353,0.007 0.289388,0.0276 z m 10.610887,6.21494 q 0,1.10932 -0.778591,1.83968 -0.930175,0.85439 -2.714733,0.85439 -0.682129,0 -1.694986,-0.30317 -0.316948,-0.0758 -0.489203,-0.37896 -0.179145,-0.30317 -0.103353,-0.62701 l 0.01378,-0.0276 q 0.08957,-0.3514 0.39963,-0.52365 0.316949,-0.17915 0.668348,-0.062 0.826823,0.26183 1.384928,0.26183 0.551214,0 0.902614,-0.24115 0.351399,-0.24116 0.351399,-0.62701 0,-0.39274 -0.310058,-0.64079 -0.316948,-0.24805 -1.095539,-0.53054 -2.390895,-0.85439 -2.390895,-2.59071 0,-1.18511 0.902614,-1.88102 0.902615,-0.73036 2.377114,-0.71658 0.530545,0 1.426269,0.22048 0.323839,0.0758 0.502983,0.38585 0.179145,0.31006 0.09646,0.6339 l -0.01378,0.0138 q -0.103353,0.31695 -0.378961,0.48231 -0.282497,0.17226 -0.613226,0.0827 -1.371147,-0.38585 -1.936142,0.062 -0.303168,0.24115 -0.303168,0.59255 0,0.3514 0.344509,0.57189 0.337619,0.22049 1.357366,0.60634 2.094617,0.78548 2.094617,2.54247 z m 3.107474,0.9853 2.852542,-0.0551 q 0.30316,-0.007 0.54432,0.21359 0.24116,0.22049 0.24116,0.565 v 0.0276 q 0,0.32384 -0.22738,0.55811 -0.22738,0.22737 -0.5581,0.22048 h -3.693144 q -0.502984,0 -0.868164,-0.36518 -0.36518,-0.36518 -0.36518,-0.86816 v -6.22873 q 0,-0.49609 0.3514,-0.86816 0.351399,-0.36518 0.881944,-0.36518 h 3.507104 q 0.39274,0 0.61323,0.2756 0.33762,0.41342 0.14469,0.80616 -0.19292,0.39274 -0.26872,0.45475 -0.23426,0.18603 -0.50298,0.17225 l -2.652722,-0.12402 v 1.95681 l 2.501142,-0.062 q 0.31005,-0.007 0.54432,0.2136 0.23427,0.22048 0.23427,0.55121 v 0.0276 q 0,0.33073 -0.23427,0.55811 -0.23427,0.22737 -0.54432,0.22048 l -2.501142,-0.062 z"
       inkscape:path-effect="#path-effect2" />
    <ellipse
       style="display:inline;fill:#ffffff;fill-opacity:1;stroke:#ededed;stroke-width:0.365118"
       id="path2-5"
       cx="102.25613"
       cy="153.50639"
       rx="2.6884801"
       ry="1.3804889"
       transform="matrix(0.98805418,-0.15410688,0.12563451,0.99207659,0,0)" />
    <rect
       style="fill:#ffffff;fill-opacity:1;stroke:#ededed;stroke-width:0.181741"
       id="rect3"
       width="3.8058007"
       height="6.2746115"
       x="38.084362"
       y="184.42842"
       ry="0.90668792"
       transform="matrix(0.6626495,-0.74892967,0.48753785,0.87310185,0,0)" />
    <rect
       style="display:inline;fill:#ffffff;fill-opacity:1;stroke:#ededed;stroke-width:0.178486"
       id="rect3-2"
       width="3.2717338"
       height="7.039783"
       x="167.92914"
       y="98.224159"
       ry="1.017256"
       transform="matrix(0.97067526,0.24039456,-0.41280322,0.91082024,0,0)" />
    <rect
       style="fill:#ffffff;fill-opacity:1;stroke:#ededed;stroke-width:0.239875"
       id="rect4"
       width="3.5964341"
       height="7.5677505"
       x="128.8045"
       y="149.78253"
       ry="1.1079566"
       transform="matrix(0.98761384,-0.1569041,-0.01739887,0.99984863,0,0)" />
    <ellipse
       style="fill:#ffffff;fill-opacity:1;stroke:#ededed;stroke-width:0.382242"
       id="path2"
       cx="114.96121"
       cy="130.65903"
       rx="2.9590223"
       ry="1.3746749" />
    <ellipse
       style="display:inline;fill:#ffffff;fill-opacity:1;stroke:#ededed;stroke-width:0.369273"
       id="path2-7"
       cx="113.71554"
       cy="140.7648"
       rx="2.7492337"
       ry="1.3808773"
       transform="matrix(0.9959963,-0.08939442,0.08497229,0.99638331,0,0)" />
    <rect
       style="fill:#ffffff;fill-opacity:1;stroke:#ededed;stroke-width:0.308247"
       id="rect2"
       width="4.647006"
       height="8.7180214"
       x="114.21832"
       y="156.14386"
       ry="1.1771506"
       transform="matrix(0.97464343,-0.22376368,0,1,0,0)" />
    <path
       d="m 62.834504,108.18748 0.244478,7.93669 c 0.0086,0.36129 -0.154253,0.71117 -0.490184,1.05141 -0.338236,0.33579 -0.748966,0.56103 -1.23398,0.67482 l -0.293303,0.0688 c -0.465701,0.10926 -0.876777,0.0672 -1.231825,-0.12801 -0.366768,-0.19449 -0.551154,-0.47047 -0.551154,-0.82687 v -9.19311 c 0,-0.7128 0.326824,-1.35915 0.974193,-1.93347 0.63913,-0.56013 1.411284,-0.8854 2.310134,-0.97986 l 0.0389,-0.004 c 0.694932,-0.073 1.312845,0.0221 1.856479,0.28238 0.53756,0.25737 0.898051,0.63366 1.085412,1.12957 l 2.4707,6.62158 2.323636,-7.19344 c 0.161001,-0.51085 0.481287,-0.94497 0.957473,-1.30087 0.471167,-0.35828 0.993572,-0.56327 1.56533,-0.61726 l 0.03116,-0.003 c 0.693663,-0.0729 1.275723,0.0776 1.750431,0.44755 0.482678,0.36437 0.721991,0.84783 0.721991,1.45345 v 7.73477 c 0,0.31162 -0.134244,0.61268 -0.404003,0.90456 -0.271468,0.29371 -0.641695,0.49613 -1.113218,0.60675 l -0.02032,0.005 c -0.374286,0.0878 -0.696695,0.0488 -0.966042,-0.11832 -0.271009,-0.17426 -0.407141,-0.42596 -0.407141,-0.75429 l 0.188379,-7.23144 -2.326042,7.49849 c -0.139577,0.45468 -0.427434,0.86628 -0.866406,1.23641 -0.443238,0.36741 -0.921306,0.61225 -1.43523,0.73282 l -0.0463,0.0109 c -0.535826,0.12572 -1.02655,0.10195 -1.470647,-0.0736 -0.456369,-0.18194 -0.763079,-0.47216 -0.917182,-0.87031 z m 17.637833,2.97219 c 0.550949,0.54466 1.178624,0.73627 1.879239,0.58247 0.688302,-0.1511 1.298045,-0.59817 1.832639,-1.33543 0.527225,-0.7271 0.788122,-1.93476 0.788122,-3.63047 0,-0.8609 -0.260897,-1.56256 -0.788122,-2.11062 -0.534594,-0.55572 -1.144337,-0.79572 -1.832639,-0.71307 -0.700615,0.0841 -1.32544,0.48577 -1.870572,1.21119 -0.558503,0.73623 -0.840682,1.56339 -0.840682,2.47375 -0.0059,1.79388 0.273382,2.96994 0.832015,3.52218 z m 2.274041,-8.57579 c 1.361545,0.0285 2.459494,0.43557 3.314439,1.2087 0.835795,0.75581 1.24671,1.8151 1.24671,3.19051 0,1.37541 -0.388916,2.57714 -1.17925,3.62171 -0.802352,1.06085 -1.920416,1.80761 -3.381899,2.23496 -0.103797,0.0298 -0.172235,0.054 -0.205128,0.0724 -0.03292,0.0185 -0.05763,0.0271 -0.07411,0.0256 l -0.140371,0.033 -0.07452,0.0175 c -0.03316,0.0133 -0.102348,0.0187 -0.207742,0.0163 -1.592402,0.22448 -2.872923,-0.0138 -3.808534,-0.73391 -0.95734,-0.73684 -1.444396,-1.90954 -1.444396,-3.5052 0,-1.58988 0.546371,-2.95585 1.618035,-4.07588 1.044455,-1.09159 2.261596,-1.76482 3.634895,-2.03325 0.160749,-0.0328 0.279502,-0.0559 0.356636,-0.0692 0.08248,-0.003 0.19765,-0.004 0.345234,-0.003 z m 8.043517,6.43889 c 0.418694,0.48782 0.896599,0.67018 1.431181,0.55283 0.52636,-0.11554 0.993621,-0.49244 1.404049,-1.12618 0.405465,-0.62608 0.606364,-1.68044 0.606364,-3.16877 0,-0.75561 -0.200899,-1.3754 -0.606364,-1.86378 -0.410428,-0.49436 -0.877689,-0.71257 -1.404049,-0.64937 -0.534582,0.0642 -1.010319,0.40617 -1.4246,1.03074 -0.423693,0.63269 -0.637471,1.34802 -0.637471,2.14022 -0.0045,1.56092 0.207111,2.59057 0.63089,3.08431 z m 1.732953,-7.44702 c 1.043662,0.0404 1.888615,0.41037 2.548639,1.10043 0.647006,0.67646 0.965748,1.61559 0.965748,2.82736 0,1.21176 -0.301688,2.26218 -0.913591,3.16381 -0.619609,0.91333 -1.480349,1.54083 -2.600796,1.87774 -0.07938,0.0234 -0.131698,0.0428 -0.156841,0.058 -0.02516,0.0153 -0.04404,0.0222 -0.05664,0.0205 l -0.107241,0.0252 -0.05691,0.0134 c -0.02532,0.0108 -0.07814,0.0137 -0.158586,0.009 -1.212095,0.15442 -2.182312,-0.0861 -2.888691,-0.73535 -0.7206,-0.66229 -1.086368,-1.68958 -1.086368,-3.07182 0,-1.37725 0.410351,-2.55201 1.217305,-3.50803 0.78913,-0.93489 1.712068,-1.50634 2.757754,-1.72471 0.122703,-0.0268 0.21339,-0.0456 0.272314,-0.0564 0.06302,-0.002 0.151052,-0.001 0.263904,0.001 z m 8.444872,4.69708 c 0,0.66255 -0.18151,1.25126 -0.54786,1.77085 -0.443596,0.61811 -1.102761,1.03357 -1.991477,1.24401 -0.34654,0.082 -0.782502,0.0897 -1.311562,0.0214 -0.167385,-0.009 -0.297166,-0.10044 -0.38888,-0.2733 -0.09566,-0.17255 -0.123309,-0.3673 -0.08277,-0.58365 l 0.01105,-0.0289 c 0.04783,-0.23523 0.154271,-0.42519 0.318742,-0.56958 0.167251,-0.14879 0.342644,-0.20476 0.526036,-0.16864 0.427352,0.0755 0.780835,0.0828 1.062847,0.023 0.276039,-0.0585 0.500227,-0.18029 0.673663,-0.36503 0.172461,-0.18371 0.25833,-0.39324 0.25833,-0.62938 0,-0.24035 -0.07575,-0.4219 -0.227825,-0.54511 -0.156234,-0.12319 -0.428128,-0.2365 -0.818753,-0.34042 -1.230985,-0.3192 -1.864921,-1.04016 -1.864921,-2.15332 0,-0.75978 0.240807,-1.39191 0.717034,-1.89076 0.469176,-0.51314 1.076491,-0.80132 1.813811,-0.86899 0.261046,-0.027 0.608465,0.004 1.039294,0.0927 0.15427,0.0293 0.27353,0.13275 0.3582,0.31008 0.0844,0.17684 0.10712,0.36462 0.0682,0.56391 l -0.01,0.0136 c -0.0487,0.19667 -0.13825,0.35322 -0.26895,0.46979 -0.13456,0.12169 -0.28129,0.16603 -0.440352,0.13248 -0.668457,-0.14992 -1.149326,-0.0697 -1.433468,0.24529 -0.153543,0.17074 -0.230599,0.36623 -0.230599,0.58584 0,0.21962 0.08755,0.38546 0.261913,0.49706 0.169933,0.11151 0.508741,0.24737 1.010913,0.40609 1.006273,0.31378 1.497113,0.99153 1.497113,2.04091 z m 2.09085,0.44124 1.79444,-0.42503 c 0.12291,-0.0298 0.23279,0.007 0.32979,0.10848 0.0967,0.10154 0.14487,0.24755 0.14487,0.43829 v 0.0229 c 0,0.17929 -0.0455,0.34417 -0.13657,0.49502 -0.0914,0.1475 -0.20404,0.23515 -0.33809,0.2627 l -2.34545,0.54905 c -0.22275,0.0522 -0.41637,-0.01 -0.58025,-0.18607 -0.1648,-0.17753 -0.24755,-0.41508 -0.24755,-0.71191 l 0,-5.51371 c 0,-0.29277 0.0796,-0.55792 0.23825,-0.7945 0.15776,-0.23128 0.35454,-0.3587 0.58955,-0.38306 l 2.23183,-0.23129 c 0.15977,-0.0166 0.28387,0.0473 0.37277,0.19113 0.13558,0.21461 0.16455,0.43474 0.0872,0.66165 -0.0775,0.22754 -0.13164,0.36072 -0.16222,0.39909 -0.0947,0.11571 -0.19676,0.17693 -0.30621,0.18338 l -1.67239,0.10898 v 1.6917 l 1.57944,-0.29974 c 0.12667,-0.0237 0.23738,0.0187 0.33233,0.12675 0.0946,0.1076 0.14182,0.25317 0.14182,0.43699 v 0.023 c 0,0.18382 -0.0472,0.34713 -0.14182,0.49028 -0.0949,0.14363 -0.20566,0.22504 -0.33233,0.24391 l -1.57944,0.22977 z"
       id="text2-2"
       style="-inkscape-font-specification:'Dyuthi, Normal';display:inline;fill:#347fff;stroke-width:0.264583"
       aria-label="MOOSE"
       transform="matrix(1,0,0,0.66825401,52.390719,59.719383)"
       inkscape:original-d="m 63.032154,112.9099 0.130913,5.44325 q 0.0069,0.37207 -0.261827,0.64079 -0.268717,0.26182 -0.647677,0.26182 h -0.151585 q -0.358289,0 -0.627006,-0.2756 -0.275608,-0.27561 -0.275608,-0.62701 v -6.04269 q 0,-0.7028 0.489203,-1.1989 0.489204,-0.4892 1.198893,-0.4892 h 0.02067 q 0.558105,0 1.005967,0.33073 0.447862,0.33073 0.606337,0.87505 l 1.433158,4.98161 1.419379,-4.96783 q 0.151584,-0.54432 0.606336,-0.88194 0.454752,-0.34451 1.019747,-0.33762 h 0.02067 q 0.695909,0 1.185112,0.4892 0.502983,0.48921 0.502983,1.1989 v 6.04269 q 0,0.36518 -0.282497,0.6339 -0.282498,0.26871 -0.764811,0.26871 h -0.01378 q -0.37896,0 -0.647678,-0.26182 -0.268717,-0.26872 -0.268717,-0.64079 l 0.124023,-5.44325 -1.49517,5.29166 q -0.130913,0.46854 -0.537434,0.76481 -0.406521,0.28939 -0.868164,0.28939 h -0.02756 q -0.475423,0 -0.861274,-0.29628 -0.39274,-0.30316 -0.523654,-0.75792 z m 11.49283,4.51307 q 0.661457,0.82683 1.529621,0.82683 0.868163,0 1.564072,-0.81305 0.695909,-0.81304 0.695909,-3.05235 0,-1.13688 -0.695909,-1.94992 -0.695909,-0.81304 -1.564072,-0.81304 -0.868164,0 -1.522731,0.81993 -0.661458,0.81993 -0.661458,1.94303 -0.0069,2.21175 0.654568,3.03857 z m 1.86035,-6.93152 q 1.750107,0.22048 2.914548,1.38492 1.164442,1.16445 1.164442,3.03858 0,1.87413 -1.10243,3.05924 -1.09554,1.17822 -2.97656,1.28846 -0.130914,0.007 -0.172255,0.0207 -0.04134,0.0138 -0.06201,0.007 h -0.117133 q -0.02756,0 -0.06201,0 -0.04134,0.007 -0.172255,-0.0276 -1.936142,-0.18603 -3.004121,-1.31602 -1.067979,-1.12999 -1.067979,-3.03168 0,-1.89481 1.198892,-3.07992 1.198893,-1.18511 2.873208,-1.34358 0.199815,-0.0207 0.296278,-0.0276 0.103353,0.007 0.289388,0.0276 z m 7.551643,6.93152 q 0.661457,0.82683 1.529621,0.82683 0.868163,0 1.564072,-0.81305 0.695909,-0.81304 0.695909,-3.05235 0,-1.13688 -0.695909,-1.94992 -0.695909,-0.81304 -1.564072,-0.81304 -0.868164,0 -1.522731,0.81993 -0.661458,0.81993 -0.661458,1.94303 -0.0069,2.21175 0.654568,3.03857 z m 1.86035,-6.93152 q 1.750107,0.22048 2.914548,1.38492 1.164442,1.16445 1.164442,3.03858 0,1.87413 -1.10243,3.05924 -1.09554,1.17822 -2.97656,1.28846 -0.130914,0.007 -0.172255,0.0207 -0.04134,0.0138 -0.06201,0.007 h -0.117133 q -0.02756,0 -0.06201,0 -0.04134,0.007 -0.172255,-0.0276 -1.936142,-0.18603 -3.004121,-1.31602 -1.067979,-1.12999 -1.067979,-3.03168 0,-1.89481 1.198892,-3.07992 1.198893,-1.18511 2.873208,-1.34358 0.199815,-0.0207 0.296278,-0.0276 0.103353,0.007 0.289388,0.0276 z m 10.610887,6.21494 q 0,1.10932 -0.778591,1.83968 -0.930175,0.85439 -2.714733,0.85439 -0.682129,0 -1.694986,-0.30317 -0.316948,-0.0758 -0.489203,-0.37896 -0.179145,-0.30317 -0.103353,-0.62701 l 0.01378,-0.0276 q 0.08957,-0.3514 0.39963,-0.52365 0.316949,-0.17915 0.668348,-0.062 0.826823,0.26183 1.384928,0.26183 0.551214,0 0.902614,-0.24115 0.351399,-0.24116 0.351399,-0.62701 0,-0.39274 -0.310058,-0.64079 -0.316948,-0.24805 -1.095539,-0.53054 -2.390895,-0.85439 -2.390895,-2.59071 0,-1.18511 0.902614,-1.88102 0.902615,-0.73036 2.377114,-0.71658 0.530545,0 1.426269,0.22048 0.323839,0.0758 0.502983,0.38585 0.179145,0.31006 0.09646,0.6339 l -0.01378,0.0138 q -0.103353,0.31695 -0.378961,0.48231 -0.282497,0.17226 -0.613226,0.0827 -1.371147,-0.38585 -1.936142,0.062 -0.303168,0.24115 -0.303168,0.59255 0,0.3514 0.344509,0.57189 0.337619,0.22049 1.357366,0.60634 2.094617,0.78548 2.094617,2.54247 z m 3.107474,0.9853 2.852542,-0.0551 q 0.30316,-0.007 0.54432,0.21359 0.24116,0.22049 0.24116,0.565 v 0.0276 q 0,0.32384 -0.22738,0.55811 -0.22738,0.22737 -0.5581,0.22048 h -3.693144 q -0.502984,0 -0.868164,-0.36518 -0.36518,-0.36518 -0.36518,-0.86816 v -6.22873 q 0,-0.49609 0.3514,-0.86816 0.351399,-0.36518 0.881944,-0.36518 h 3.507104 q 0.39274,0 0.61323,0.2756 0.33762,0.41342 0.14469,0.80616 -0.19292,0.39274 -0.26872,0.45475 -0.23426,0.18603 -0.50298,0.17225 l -2.652722,-0.12402 v 1.95681 l 2.501142,-0.062 q 0.31005,-0.007 0.54432,0.2136 0.23427,0.22048 0.23427,0.55121 v 0.0276 q 0,0.33073 -0.23427,0.55811 -0.23427,0.22737 -0.54432,0.22048 l -2.501142,-0.062 z"
       inkscape:path-effect="#path-effect8" />
    <path
       style="fill:none;fill-opacity:1;stroke:#347fff;stroke-width:0.05;stroke-linecap:butt;stroke-linejoin:miter;stroke-dasharray:none;stroke-opacity:1"
       d="m 112.53864,138.47971 c 13.18742,-9.42438 14.01605,-8.12514 14.67291,-2.33422"
       id="path10-2"
       sodipodi:nodetypes="cc" />
    <path
       style="fill:none;fill-opacity:1;stroke:#ffffff;stroke-width:0.565;stroke-linecap:butt;stroke-linejoin:miter;stroke-dasharray:none;stroke-opacity:1"
       d="m 111.78805,138.63129 c 12.85041,-9.06416 15.09907,-9.51 15.70684,-2.44694"
       id="path10"
       sodipodi:nodetypes="cc" />
  </g>
</svg>
