<?xml version="1.0" encoding="UTF-8"?>
<svg id="Calque_2" data-name="Calque 2" xmlns="http://www.w3.org/2000/svg" viewBox="0 0 486.66 374.1">
  <defs>
    <style>
      .cls-1 {
        fill: none;
        stroke: #007cd2;
        stroke-miterlimit: 10;
        stroke-width: 8px;
      }
    </style>
  </defs>
  <polyline class="cls-1" points="243.31 99.11 112.83 6.37 4.77 323.46 70.55 367.93 142.14 174.51 245.11 225.72"/>
  <line class="cls-1" x1="245.11" y1="225.72" x2="112.83" y2="6.37"/>
  <line class="cls-1" x1="113.36" y1="10.71" x2="142.14" y2="174.51"/>
  <line class="cls-1" x1="113.36" y1="10.71" x2="70.55" y2="367.93"/>
  <line class="cls-1" x1="28.89" y1="252.68" x2="70.55" y2="367.93"/>
  <line class="cls-1" x1="28.89" y1="252.68" x2="243.31" y2="99.11"/>
  <polyline class="cls-1" points="243.35 99.11 373.83 6.37 481.89 323.45 416.1 367.92 344.52 174.51 241.55 225.72"/>
  <line class="cls-1" x1="241.55" y1="225.72" x2="373.83" y2="6.37"/>
  <line class="cls-1" x1="373.29" y1="10.7" x2="344.52" y2="174.51"/>
  <line class="cls-1" x1="373.29" y1="10.7" x2="416.1" y2="367.92"/>
  <line class="cls-1" x1="457.76" y1="252.67" x2="416.1" y2="367.92"/>
  <line class="cls-1" x1="457.76" y1="252.67" x2="243.35" y2="99.11"/>
</svg>