<?xml version="1.0" encoding="UTF-8" standalone="no"?>
<!-- Created with Inkscape (http://www.inkscape.org/) -->

<svg
   width="100mm"
   height="100mm"
   viewBox="0 0 100 100"
   version="1.1"
   id="svg1"
   xml:space="preserve"
   sodipodi:docname="Moose_Logo.svg"
   inkscape:version="1.3 (0e150ed6c4, 2023-07-21)"
   xmlns:inkscape="http://www.inkscape.org/namespaces/inkscape"
   xmlns:sodipodi="http://sodipodi.sourceforge.net/DTD/sodipodi-0.dtd"
   xmlns="http://www.w3.org/2000/svg"
   xmlns:svg="http://www.w3.org/2000/svg"><sodipodi:namedview
     id="namedview1"
     pagecolor="#ffffff"
     bordercolor="#999999"
     borderopacity="1"
     inkscape:showpageshadow="0"
     inkscape:pageopacity="0"
     inkscape:pagecheckerboard="0"
     inkscape:deskcolor="#d1d1d1"
     inkscape:document-units="mm"
     inkscape:zoom="1.9401894"
     inkscape:cx="219.56619"
     inkscape:cy="166.7363"
     inkscape:window-width="1920"
     inkscape:window-height="1029"
     inkscape:window-x="0"
     inkscape:window-y="0"
     inkscape:window-maximized="1"
     inkscape:current-layer="layer1"
     showgrid="false"
     showguides="false"><inkscape:grid
       id="grid524"
       units="px"
       originx="-150.0047"
       originy="-272.00247"
       spacingx="0.26458333"
       spacingy="0.26458334"
       empcolor="#0099e5"
       empopacity="0.30196078"
       color="#0099e5"
       opacity="0.14901961"
       empspacing="5"
       dotted="false"
       gridanglex="30"
       gridanglez="30"
       visible="false" /></sodipodi:namedview><defs
     id="defs1"><clipPath
       clipPathUnits="userSpaceOnUse"
       id="clipPath4"><g
         inkscape:label="Clip"
         id="use4"><ellipse
           style="fill:#ef8686;fill-opacity:0.664921;stroke-width:0.0426217;stroke-dasharray:0.0426217, 0.0852434;stroke-dashoffset:0;paint-order:fill markers stroke"
           id="ellipse4"
           ry="53.090679"
           rx="52.869164"
           cy="148.49146"
           cx="105.14761" /></g></clipPath></defs><g
     inkscape:groupmode="layer"
     id="layer1"
     inkscape:label="Layer 1"
     transform="translate(-39.688744,-71.96732)"><path
       style="fill:#007cd2;fill-opacity:1;stroke:none;stroke-width:0.94859"
       d="m 58.572507,119.38488 c 4.214541,-7.92653 13.750284,-10.36411 19.878847,-3.01105 4.185818,5.02215 5.414752,12.50243 5.877995,18.819 0.887872,12.10664 0.260236,24.04119 0.260236,36.18928 3.256572,0.80562 6.467709,0.75452 10.010236,0 0,-12.14806 -0.659107,-24.08262 0.228765,-36.18924 0.463242,-6.31659 1.692177,-13.79685 5.877994,-18.819 6.12856,-7.35305 15.66432,-4.91548 19.87885,3.01105 5.99666,11.27827 4.1447,25.93695 4.1447,38.23352 2.35427,-1.6925 4.15725,-4.51907 5.82962,-6.86211 5.5695,-7.80303 8.66001,-17.05222 9.07698,-26.56916 0.40569,-9.25934 -1.55457,-18.21744 -6.13291,-26.318774 C 129.42032,90.642671 123.49744,84.203751 116.38863,79.627814 96.992128,67.142299 70.129333,70.140612 53.893807,87.003261 39.107068,102.36115 35.393145,125.26371 44.982109,144.42982 c 2.261958,4.52113 6.014843,9.75965 9.631811,13.19264 -0.228683,-13.48695 -1.770398,-25.5766 3.958587,-38.23758 z"
       id="Moose_Logo"
       sodipodi:nodetypes="sssccssscsssccscs" /></g></svg>
